<svg width="24" height="24" viewBox="0 0 24 24" fill="none" xmlns="http://www.w3.org/2000/svg">
    <circle cx="12" cy="12" r="11.75" stroke="#C4C4C4" stroke-width="0.5" />
    <path
        d="M8.80002 5V9.66667V5ZM15.2 5V9.66667V5ZM8.40002 12H10.8H8.40002ZM15.6 12H13.2H15.6ZM8.40002 14.8H10.8H8.40002ZM13.2 14.8H15.6H13.2ZM7.20002 7.33333H16.8C17.0122 7.33333 17.2157 7.43167 17.3657 7.6067C17.5157 7.78173 17.6 8.01913 17.6 8.26667V17.6C17.6 17.8475 17.5157 18.0849 17.3657 18.26C17.2157 18.435 17.0122 18.5333 16.8 18.5333H7.20002C6.98785 18.5333 6.78437 18.435 6.63434 18.26C6.48431 18.0849 6.40002 17.8475 6.40002 17.6V8.26667C6.40002 8.01913 6.48431 7.78173 6.63434 7.6067C6.78437 7.43167 6.98785 7.33333 7.20002 7.33333V7.33333Z"
        stroke="#C4C4C4" stroke-width="1.06667" />
</svg>