<svg width="24" height="24" viewBox="0 0 24 24" fill="none" xmlns="http://www.w3.org/2000/svg">
    <circle cx="12" cy="12" r="11.75" stroke="#C4C4C4" stroke-width="0.5" />
    <path
        d="M10.0002 13.9446V14.3333C10.0002 15.129 10.3162 15.892 10.8788 16.4546C11.4415 17.0172 12.2045 17.3333 13.0002 17.3333C13.7958 17.3333 14.5589 17.0172 15.1215 16.4546C15.6841 15.892 16.0002 15.129 16.0002 14.3333V13.22C15.5552 13.0627 15.1801 12.7532 14.9413 12.3461C14.7024 11.939 14.6152 11.4606 14.695 10.9955C14.7747 10.5303 15.0164 10.1083 15.3772 9.80406C15.7381 9.49984 16.1949 9.33299 16.6668 9.33299C17.1388 9.33299 17.5956 9.49984 17.9564 9.80406C18.3173 10.1083 18.5589 10.5303 18.6387 10.9955C18.7185 11.4606 18.6312 11.939 18.3924 12.3461C18.1536 12.7532 17.7785 13.0627 17.3335 13.22V14.3333C17.3335 15.4826 16.8769 16.5848 16.0643 17.3974C15.2516 18.2101 14.1494 18.6666 13.0002 18.6666C11.8509 18.6666 10.7487 18.2101 9.93603 17.3974C9.12338 16.5848 8.66683 15.4826 8.66683 14.3333V13.9446C7.73478 13.7868 6.88871 13.3041 6.27856 12.5821C5.66842 11.86 5.33362 10.9453 5.3335 9.99998V6.66665C5.3335 6.31302 5.47397 5.97389 5.72402 5.72384C5.97407 5.47379 6.31321 5.33331 6.66683 5.33331H7.3335C7.51031 5.33331 7.67988 5.40355 7.8049 5.52858C7.92992 5.6536 8.00016 5.82317 8.00016 5.99998C8.00016 6.17679 7.92992 6.34636 7.8049 6.47138C7.67988 6.59641 7.51031 6.66665 7.3335 6.66665H6.66683V9.99998C6.66683 10.7072 6.94778 11.3855 7.44788 11.8856C7.94797 12.3857 8.62625 12.6666 9.3335 12.6666C10.0407 12.6666 10.719 12.3857 11.2191 11.8856C11.7192 11.3855 12.0002 10.7072 12.0002 9.99998V6.66665H11.3335C11.1567 6.66665 10.9871 6.59641 10.8621 6.47138C10.7371 6.34636 10.6668 6.17679 10.6668 5.99998C10.6668 5.82317 10.7371 5.6536 10.8621 5.52858C10.9871 5.40355 11.1567 5.33331 11.3335 5.33331H12.0002C12.3538 5.33331 12.6929 5.47379 12.943 5.72384C13.193 5.97389 13.3335 6.31302 13.3335 6.66665V9.99998C13.3334 10.9453 12.9986 11.86 12.3884 12.5821C11.7783 13.3041 10.9322 13.7868 10.0002 13.9446ZM16.6668 12C16.8436 12 17.0132 11.9297 17.1382 11.8047C17.2633 11.6797 17.3335 11.5101 17.3335 11.3333C17.3335 11.1565 17.2633 10.9869 17.1382 10.8619C17.0132 10.7369 16.8436 10.6666 16.6668 10.6666C16.49 10.6666 16.3204 10.7369 16.1954 10.8619C16.0704 10.9869 16.0002 11.1565 16.0002 11.3333C16.0002 11.5101 16.0704 11.6797 16.1954 11.8047C16.3204 11.9297 16.49 12 16.6668 12Z"
        fill="#C4C4C4" />
</svg>