<svg width="24" height="24" viewBox="0 0 24 24" fill="none" xmlns="http://www.w3.org/2000/svg">
      <circle cx="12" cy="12" r="11.75" stroke="#DC0028" stroke-width="0.5" />
      <path fill-rule="evenodd" clip-rule="evenodd"
            d="M12 7C12.1473 7 12.2887 7.05853 12.3928 7.16272C12.497 7.26691 12.5556 7.40821 12.5556 7.55556V12C12.5556 12.1473 12.497 12.2887 12.3928 12.3928C12.2887 12.497 12.1473 12.5556 12 12.5556H7.55556C7.40821 12.5556 7.26691 12.497 7.16272 12.3928C7.05853 12.2887 7 12.1473 7 12C7 11.8527 7.05853 11.7113 7.16272 11.6072C7.26691 11.503 7.40821 11.4444 7.55556 11.4444H11.4444V7.55556C11.4444 7.40821 11.503 7.26691 11.6072 7.16272C11.7113 7.05853 11.8527 7 12 7Z"
            fill="#DC0028" />
      <path fill-rule="evenodd" clip-rule="evenodd"
            d="M11.4445 12C11.4445 11.8527 11.503 11.7114 11.6072 11.6072C11.7114 11.503 11.8527 11.4445 12 11.4445H16.4445C16.5918 11.4445 16.7331 11.503 16.8373 11.6072C16.9415 11.7114 17 11.8527 17 12C17 12.1474 16.9415 12.2887 16.8373 12.3929C16.7331 12.497 16.5918 12.5556 16.4445 12.5556H12.5556V16.4445C12.5556 16.5918 12.497 16.7331 12.3929 16.8373C12.2887 16.9415 12.1474 17 12 17C11.8527 17 11.7114 16.9415 11.6072 16.8373C11.503 16.7331 11.4445 16.5918 11.4445 16.4445V12Z"
            fill="#DC0028" />
</svg>