<svg width="24" height="24" viewBox="0 0 24 24" fill="none" xmlns="http://www.w3.org/2000/svg">
        <circle cx="12" cy="12" r="11.75" stroke="#DC0028" stroke-width="0.5" />
        <path d="M17.2687 9.72398C17.2371 9.65162 17.1928 9.58548 17.138 9.52865L13.138 5.52865C13.0812 5.47383 13.015 5.42959 12.9427 5.39798C12.9227 5.38865 12.9013 5.38331 12.88 5.37598C12.8242 5.357 12.7662 5.34556 12.7073 5.34198C12.6933 5.34065 12.6807 5.33331 12.6667 5.33331H8.00001C7.26467 5.33331 6.66667 5.93131 6.66667 6.66665V17.3333C6.66667 18.0686 7.26467 18.6666 8.00001 18.6666H16C16.7353 18.6666 17.3333 18.0686 17.3333 17.3333V9.99998C17.3333 9.98598 17.326 9.97331 17.3247 9.95865C17.3214 9.89979 17.31 9.84168 17.2907 9.78598C17.284 9.76465 17.278 9.74398 17.2687 9.72398ZM15.0573 9.33331H13.3333V7.60931L15.0573 9.33331ZM8.00001 17.3333V6.66665H12V9.99998C12 10.1768 12.0702 10.3464 12.1953 10.4714C12.3203 10.5964 12.4899 10.6666 12.6667 10.6666H16L16.0013 17.3333H8.00001Z"
                fill="#DC0028" />
        <path d="M9.33333 12H14.6667V13.3333H9.33333V12ZM9.33333 14.6666H14.6667V16H9.33333V14.6666ZM9.33333 9.33331H10.6667V10.6666H9.33333V9.33331Z"
                fill="#DC0028" />
</svg>