<svg width="128" height="48" viewBox="0 0 128 48" fill="none" xmlns="http://www.w3.org/2000/svg">
    <path
        d="M6.8584 42.9492H3.2627L2.5791 45H0.398438L4.10352 35.0469H6.00391L9.72949 45H7.54883L6.8584 42.9492ZM3.81641 41.2881H6.30469L5.05371 37.5625L3.81641 41.2881ZM10.2217 41.2471C10.2217 40.0941 10.4792 39.1758 10.9941 38.4922C11.5137 37.8086 12.2223 37.4668 13.1201 37.4668C13.8402 37.4668 14.4349 37.7357 14.9043 38.2734V34.5H16.8867V45H15.1025L15.0068 44.2139C14.5146 44.8291 13.8812 45.1367 13.1064 45.1367C12.236 45.1367 11.5365 44.7949 11.0078 44.1113C10.4837 43.4232 10.2217 42.4684 10.2217 41.2471ZM12.1973 41.3906C12.1973 42.0833 12.318 42.6143 12.5596 42.9834C12.8011 43.3525 13.152 43.5371 13.6123 43.5371C14.223 43.5371 14.6536 43.2796 14.9043 42.7646V39.8457C14.6582 39.3307 14.2321 39.0732 13.626 39.0732C12.6735 39.0732 12.1973 39.8457 12.1973 41.3906ZM18.1104 41.2471C18.1104 40.0941 18.3678 39.1758 18.8828 38.4922C19.4023 37.8086 20.111 37.4668 21.0088 37.4668C21.7288 37.4668 22.3236 37.7357 22.793 38.2734V34.5H24.7754V45H22.9912L22.8955 44.2139C22.4033 44.8291 21.7699 45.1367 20.9951 45.1367C20.1247 45.1367 19.4251 44.7949 18.8965 44.1113C18.3724 43.4232 18.1104 42.4684 18.1104 41.2471ZM20.0859 41.3906C20.0859 42.0833 20.2067 42.6143 20.4482 42.9834C20.6898 43.3525 21.0407 43.5371 21.501 43.5371C22.1117 43.5371 22.5423 43.2796 22.793 42.7646V39.8457C22.5469 39.3307 22.1208 39.0732 21.5146 39.0732C20.5622 39.0732 20.0859 39.8457 20.0859 41.3906ZM34.0791 45C33.988 44.8223 33.9219 44.6012 33.8809 44.3369C33.4023 44.8701 32.7803 45.1367 32.0146 45.1367C31.29 45.1367 30.6885 44.9271 30.21 44.5078C29.736 44.0885 29.499 43.5599 29.499 42.9219C29.499 42.138 29.7884 41.5365 30.3672 41.1172C30.9505 40.6979 31.7913 40.486 32.8896 40.4814H33.7988V40.0576C33.7988 39.7158 33.71 39.4424 33.5322 39.2373C33.359 39.0322 33.0833 38.9297 32.7051 38.9297C32.3724 38.9297 32.1104 39.0094 31.9189 39.1689C31.7321 39.3285 31.6387 39.5472 31.6387 39.8252H29.6631C29.6631 39.3968 29.7952 39.0003 30.0596 38.6357C30.3239 38.2712 30.6976 37.9863 31.1807 37.7812C31.6637 37.5716 32.2061 37.4668 32.8076 37.4668C33.7191 37.4668 34.4414 37.6969 34.9746 38.1572C35.5124 38.613 35.7812 39.2555 35.7812 40.085V43.291C35.7858 43.9928 35.8838 44.5238 36.0752 44.8838V45H34.0791ZM32.4453 43.626C32.737 43.626 33.0059 43.5622 33.252 43.4346C33.498 43.3024 33.6803 43.127 33.7988 42.9082V41.6367H33.0605C32.0716 41.6367 31.5452 41.9785 31.4814 42.6621L31.4746 42.7783C31.4746 43.0244 31.5612 43.2272 31.7344 43.3867C31.9076 43.5462 32.1445 43.626 32.4453 43.626ZM39.1172 37.6035L39.1787 38.458C39.7074 37.7972 40.416 37.4668 41.3047 37.4668C42.0885 37.4668 42.6719 37.6969 43.0547 38.1572C43.4375 38.6175 43.6335 39.3057 43.6426 40.2217V45H41.667V40.2695C41.667 39.8503 41.5758 39.5472 41.3936 39.3604C41.2113 39.1689 40.9082 39.0732 40.4844 39.0732C39.9284 39.0732 39.5114 39.3102 39.2334 39.7842V45H37.2578V37.6035H39.1172ZM52.9189 45C52.8278 44.8223 52.7617 44.6012 52.7207 44.3369C52.2422 44.8701 51.6201 45.1367 50.8545 45.1367C50.1299 45.1367 49.5283 44.9271 49.0498 44.5078C48.5758 44.0885 48.3389 43.5599 48.3389 42.9219C48.3389 42.138 48.6283 41.5365 49.207 41.1172C49.7904 40.6979 50.6312 40.486 51.7295 40.4814H52.6387V40.0576C52.6387 39.7158 52.5498 39.4424 52.3721 39.2373C52.1989 39.0322 51.9232 38.9297 51.5449 38.9297C51.2122 38.9297 50.9502 39.0094 50.7588 39.1689C50.5719 39.3285 50.4785 39.5472 50.4785 39.8252H48.5029C48.5029 39.3968 48.6351 39.0003 48.8994 38.6357C49.1637 38.2712 49.5374 37.9863 50.0205 37.7812C50.5036 37.5716 51.0459 37.4668 51.6475 37.4668C52.5589 37.4668 53.2812 37.6969 53.8145 38.1572C54.3522 38.613 54.6211 39.2555 54.6211 40.085V43.291C54.6257 43.9928 54.7236 44.5238 54.915 44.8838V45H52.9189ZM51.2852 43.626C51.5768 43.626 51.8457 43.5622 52.0918 43.4346C52.3379 43.3024 52.5202 43.127 52.6387 42.9082V41.6367H51.9004C50.9115 41.6367 50.3851 41.9785 50.3213 42.6621L50.3145 42.7783C50.3145 43.0244 50.401 43.2272 50.5742 43.3867C50.7474 43.5462 50.9844 43.626 51.2852 43.626ZM62.7969 41.3701C62.7969 42.5094 62.5371 43.4232 62.0176 44.1113C61.5026 44.7949 60.8053 45.1367 59.9258 45.1367C59.1784 45.1367 58.5745 44.877 58.1143 44.3574V47.8438H56.1387V37.6035H57.9707L58.0391 38.3281C58.5176 37.7539 59.1419 37.4668 59.9121 37.4668C60.8236 37.4668 61.5322 37.804 62.0381 38.4785C62.5439 39.153 62.7969 40.0827 62.7969 41.2676V41.3701ZM60.8213 41.2266C60.8213 40.5384 60.6982 40.0075 60.4521 39.6338C60.2106 39.2601 59.8574 39.0732 59.3926 39.0732C58.7728 39.0732 58.3467 39.3102 58.1143 39.7842V42.8125C58.3558 43.3001 58.7865 43.5439 59.4062 43.5439C60.3496 43.5439 60.8213 42.7715 60.8213 41.2266ZM70.6855 41.3701C70.6855 42.5094 70.4258 43.4232 69.9062 44.1113C69.3913 44.7949 68.694 45.1367 67.8145 45.1367C67.0671 45.1367 66.4632 44.877 66.0029 44.3574V47.8438H64.0273V37.6035H65.8594L65.9277 38.3281C66.4062 37.7539 67.0306 37.4668 67.8008 37.4668C68.7122 37.4668 69.4209 37.804 69.9268 38.4785C70.4326 39.153 70.6855 40.0827 70.6855 41.2676V41.3701ZM68.71 41.2266C68.71 40.5384 68.5869 40.0075 68.3408 39.6338C68.0993 39.2601 67.7461 39.0732 67.2812 39.0732C66.6615 39.0732 66.2354 39.3102 66.0029 39.7842V42.8125C66.2445 43.3001 66.6751 43.5439 67.2949 43.5439C68.2383 43.5439 68.71 42.7715 68.71 41.2266ZM71.6084 41.2334C71.6084 40.4997 71.7497 39.8457 72.0322 39.2715C72.3148 38.6973 72.7204 38.2529 73.249 37.9385C73.7822 37.624 74.3997 37.4668 75.1016 37.4668C76.0996 37.4668 76.9131 37.7721 77.542 38.3828C78.1755 38.9935 78.5286 39.8229 78.6016 40.8711L78.6152 41.377C78.6152 42.5117 78.2985 43.4232 77.665 44.1113C77.0316 44.7949 76.1816 45.1367 75.1152 45.1367C74.0488 45.1367 73.1966 44.7949 72.5586 44.1113C71.9251 43.4277 71.6084 42.498 71.6084 41.3223V41.2334ZM73.584 41.377C73.584 42.0788 73.7161 42.6165 73.9805 42.9902C74.2448 43.3594 74.623 43.5439 75.1152 43.5439C75.5938 43.5439 75.9674 43.3617 76.2363 42.9971C76.5052 42.6279 76.6396 42.04 76.6396 41.2334C76.6396 40.5452 76.5052 40.012 76.2363 39.6338C75.9674 39.2555 75.5892 39.0664 75.1016 39.0664C74.6185 39.0664 74.2448 39.2555 73.9805 39.6338C73.7161 40.0075 73.584 40.5885 73.584 41.377ZM81.917 45H79.9346V37.6035H81.917V45ZM79.8184 35.6895C79.8184 35.3932 79.9163 35.1494 80.1123 34.958C80.3128 34.7666 80.584 34.6709 80.9258 34.6709C81.263 34.6709 81.5319 34.7666 81.7324 34.958C81.9329 35.1494 82.0332 35.3932 82.0332 35.6895C82.0332 35.9902 81.9307 36.2363 81.7256 36.4277C81.5251 36.6191 81.2585 36.7148 80.9258 36.7148C80.5931 36.7148 80.3242 36.6191 80.1191 36.4277C79.9186 36.2363 79.8184 35.9902 79.8184 35.6895ZM85.3691 37.6035L85.4307 38.458C85.9593 37.7972 86.668 37.4668 87.5566 37.4668C88.3405 37.4668 88.9238 37.6969 89.3066 38.1572C89.6895 38.6175 89.8854 39.3057 89.8945 40.2217V45H87.9189V40.2695C87.9189 39.8503 87.8278 39.5472 87.6455 39.3604C87.4632 39.1689 87.1602 39.0732 86.7363 39.0732C86.1803 39.0732 85.7633 39.3102 85.4854 39.7842V45H83.5098V37.6035H85.3691ZM93.7637 35.7852V37.6035H95.0283V39.0527H93.7637V42.7441C93.7637 43.0176 93.8161 43.2135 93.9209 43.332C94.0257 43.4505 94.2262 43.5098 94.5225 43.5098C94.7412 43.5098 94.9349 43.4938 95.1035 43.4619V44.959C94.7161 45.0775 94.3174 45.1367 93.9072 45.1367C92.5218 45.1367 91.8154 44.4372 91.7881 43.0381V39.0527H90.708V37.6035H91.7881V35.7852H93.7637ZM97.9814 37.6035L98.043 38.4307C98.5671 37.7881 99.2757 37.4668 100.169 37.4668C101.121 37.4668 101.775 37.8428 102.131 38.5947C102.65 37.8428 103.391 37.4668 104.353 37.4668C105.155 37.4668 105.752 37.7015 106.144 38.1709C106.535 38.6357 106.731 39.3376 106.731 40.2764V45H104.749V40.2832C104.749 39.8639 104.667 39.5586 104.503 39.3672C104.339 39.1712 104.049 39.0732 103.635 39.0732C103.042 39.0732 102.632 39.3558 102.404 39.9209L102.411 45H100.436V40.29C100.436 39.8617 100.351 39.5518 100.183 39.3604C100.014 39.1689 99.7269 39.0732 99.3213 39.0732C98.7607 39.0732 98.3551 39.3057 98.1045 39.7705V45H96.1289V37.6035H97.9814ZM111.66 45.1367C110.576 45.1367 109.691 44.804 109.008 44.1387C108.329 43.4733 107.989 42.5869 107.989 41.4795V41.2881C107.989 40.5452 108.133 39.8822 108.42 39.2988C108.707 38.7109 109.113 38.2598 109.637 37.9453C110.165 37.6263 110.767 37.4668 111.441 37.4668C112.453 37.4668 113.248 37.7858 113.827 38.4238C114.41 39.0618 114.702 39.9665 114.702 41.1377V41.9443H109.992C110.056 42.4274 110.247 42.8148 110.566 43.1064C110.89 43.3981 111.298 43.5439 111.79 43.5439C112.551 43.5439 113.146 43.2682 113.574 42.7168L114.545 43.8037C114.249 44.223 113.848 44.5511 113.342 44.7881C112.836 45.0205 112.275 45.1367 111.66 45.1367ZM111.435 39.0664C111.043 39.0664 110.724 39.1986 110.478 39.4629C110.236 39.7272 110.081 40.1055 110.013 40.5977H112.761V40.4404C112.752 40.0029 112.633 39.6657 112.405 39.4287C112.177 39.1872 111.854 39.0664 111.435 39.0664ZM117.648 37.6035L117.71 38.458C118.239 37.7972 118.947 37.4668 119.836 37.4668C120.62 37.4668 121.203 37.6969 121.586 38.1572C121.969 38.6175 122.165 39.3057 122.174 40.2217V45H120.198V40.2695C120.198 39.8503 120.107 39.5472 119.925 39.3604C119.743 39.1689 119.439 39.0732 119.016 39.0732C118.46 39.0732 118.043 39.3102 117.765 39.7842V45H115.789V37.6035H117.648ZM126.043 35.7852V37.6035H127.308V39.0527H126.043V42.7441C126.043 43.0176 126.095 43.2135 126.2 43.332C126.305 43.4505 126.506 43.5098 126.802 43.5098C127.021 43.5098 127.214 43.4938 127.383 43.4619V44.959C126.995 45.0775 126.597 45.1367 126.187 45.1367C124.801 45.1367 124.095 44.4372 124.067 43.0381V39.0527H122.987V37.6035H124.067V35.7852H126.043Z"
        fill="#DC0028" />
    <path d="M62.6667 0V10.6667H52V13.3333H62.6667V24H65.3333V13.3333H76V10.6667H65.3333V0H62.6667Z" fill="#DC0028" />
</svg>