<?xml version="1.0" encoding="UTF-8" standalone="no"?>
<svg
   xmlns:dc="http://purl.org/dc/elements/1.1/"
   xmlns:cc="http://creativecommons.org/ns#"
   xmlns:rdf="http://www.w3.org/1999/02/22-rdf-syntax-ns#"
   xmlns:svg="http://www.w3.org/2000/svg"
   xmlns="http://www.w3.org/2000/svg"
   xmlns:sodipodi="http://sodipodi.sourceforge.net/DTD/sodipodi-0.dtd"
   xmlns:inkscape="http://www.inkscape.org/namespaces/inkscape"
   width="125"
   height="125"
   viewBox="0 0 125 125"
   fill="none"
   version="1.1"
   id="svg28"
   sodipodi:docname="ic_healthcare_info.svg"
   inkscape:version="1.0.1 (3bc2e813f5, 2020-09-07)">
  <metadata
     id="metadata34">
    <rdf:RDF>
      <cc:Work
         rdf:about="">
        <dc:format>image/svg+xml</dc:format>
        <dc:type
           rdf:resource="http://purl.org/dc/dcmitype/StillImage" />
        <dc:title></dc:title>
      </cc:Work>
    </rdf:RDF>
  </metadata>
  <defs
     id="defs32" />
  <sodipodi:namedview
     pagecolor="#ffffff"
     bordercolor="#666666"
     borderopacity="1"
     objecttolerance="10"
     gridtolerance="10"
     guidetolerance="10"
     inkscape:pageopacity="0"
     inkscape:pageshadow="2"
     inkscape:window-width="960"
     inkscape:window-height="489"
     id="namedview30"
     showgrid="false"
     inkscape:zoom="6.1971831"
     inkscape:cx="62.5"
     inkscape:cy="71"
     inkscape:window-x="0"
     inkscape:window-y="553"
     inkscape:window-maximized="0"
     inkscape:current-layer="svg28" />
  <circle
     cx="62.5"
     cy="62.5"
     r="61.5"
     fill="#ffffff"
     stroke="#c4c4c4"
     stroke-width="2"
     id="circle2" />
  <path
     d="M 46.9479,74.2897 C 46.5562,74.2958 46.1672,74.2239 45.8036,74.0782 45.44,73.9324 45.109,73.7159 44.8299,73.441 44.5508,73.1661 44.3291,72.8385 44.1778,72.4772 44.0266,72.1158 43.9487,71.728 43.9487,71.3363 c 10e-5,-0.3918 0.0781,-0.7796 0.2294,-1.1409 0.1514,-0.3613 0.3731,-0.6888 0.6523,-0.9636 0.2791,-0.2748 0.6102,-0.4913 0.9739,-0.637 0.3636,-0.1456 0.7526,-0.2174 1.1443,-0.2113 0.7752,0.0122 1.5146,0.3288 2.0585,0.8813 0.5438,0.5526 0.8486,1.2969 0.8485,2.0722 -1e-4,0.7753 -0.305,1.5195 -0.849,2.072 -0.5441,0.5524 -1.2835,0.8687 -2.0587,0.8807 z"
     fill="#c4c4c4"
     id="path4" />
  <path
     d="m 41.0007,85 v -5.7864 c 0,-2.0866 1.7143,-3.7822 3.8031,-3.7822 h 4.0778 c 2.0888,0 3.9545,1.6956 3.9545,3.7822 V 85 H 41 Z"
     fill="#c4c4c4"
     id="path6" />
  <path
     d="m 77.5636,74.0394 c 0.7831,-8e-4 1.5339,-0.3123 2.0875,-0.8662 0.5537,-0.5539 0.8648,-1.3049 0.8652,-2.088 C 80.525,70.692 80.455,70.301 80.3105,69.9351 80.166,69.5693 79.9499,69.236 79.6749,68.9548 c -0.2751,-0.2811 -0.6035,-0.5045 -0.9661,-0.6571 -0.3625,-0.1525 -0.7519,-0.231 -1.1452,-0.231 -0.3934,0 -0.7827,0.0785 -1.1453,0.231 -0.3626,0.1526 -0.691,0.376 -0.966,0.6571 -0.2751,0.2812 -0.4912,0.6145 -0.6357,0.9803 -0.1445,0.3659 -0.2144,0.7569 -0.2058,1.1501 2e-4,0.7832 0.3113,1.5343 0.865,2.0882 0.5536,0.5539 1.3046,0.8654 2.0878,0.866 z"
     fill="#c4c4c4"
     id="path8" />
  <path
     d="m 83.508,85 v -5.7864 c 0,-2.0866 -1.7142,-3.7822 -3.8045,-3.7822 H 75.63 c -2.0924,0 -3.9552,1.6956 -3.9552,3.7822 V 85 h 11.8325 z"
     fill="#c4c4c4"
     id="path10" />
  <path
     d="m 62.2504,74.274 c -1.6504,0 -2.9872,-1.3268 -2.9872,-2.9621 0,-1.6353 1.3368,-2.9628 2.9872,-2.9628 1.6489,0 2.9857,1.3268 2.9857,2.9628 0,1.636 -1.3361,2.9621 -2.9857,2.9621 z"
     fill="#c4c4c4"
     id="path12" />
  <path
     d="m 55.0569,85 2.3507,-6.4042 c 0.9414,-3.2713 3.6832,-3.1702 3.6832,-3.1702 h 2.327 c 0,0 2.7404,-0.1004 3.6832,3.1702 L 69.4517,85 Z"
     fill="#c4c4c4"
     id="path14" />
  <path
     d="m 62.2504,64.61 v -7.007 l -1.1632,-1.1631 v 7.0033 H 43.4906 V 41.1646 h 17.5966 v 11.445 l 1.1632,1.1624 V 40 H 42.3318 v 24.6093 z"
     fill="#c4c4c4"
     id="path16" />
  <path
     d="m 52.1179,45.9529 c 0.4047,-0.0173 0.7872,-0.1903 1.0675,-0.4828 0.2803,-0.2926 0.4368,-0.6821 0.4368,-1.0872 0,-0.4052 -0.1565,-0.7947 -0.4368,-1.0872 -0.2803,-0.2925 -0.6628,-0.4655 -1.0675,-0.4828 -0.4164,0 -0.8158,0.1654 -1.1102,0.4598 -0.2944,0.2944 -0.4598,0.6938 -0.4598,1.1102 0,0.4164 0.1654,0.8157 0.4598,1.1101 0.2944,0.2945 0.6938,0.4599 1.1102,0.4599 z"
     fill="#c4c4c4"
     id="path18" />
  <path
     d="m 57.3021,52.4775 c 0,0 -1.288,-4.3749 -1.2902,-4.3785 -0.513,-1.7028 -1.9496,-1.6518 -1.9496,-1.6518 H 50.176 c 0,0 -1.4387,-0.051 -1.951,1.6518 l -1.288,4.3785 c -0.0267,0.0849 -0.0361,0.1742 -0.0279,0.2628 0.0083,0.0885 0.0342,0.1746 0.076,0.2531 0.0419,0.0784 0.0991,0.1478 0.168,0.2039 0.069,0.0562 0.1485,0.098 0.2339,0.1231 0.0853,0.0251 0.1748,0.0329 0.2632,0.023 0.0884,-0.0099 0.174,-0.0373 0.2516,-0.0807 0.0777,-0.0433 0.146,-0.1017 0.2009,-0.1717 0.0548,-0.07 0.0952,-0.1503 0.1187,-0.2361 l 1.2299,-4.1869 0.0029,0.0015 0.5482,-0.0015 v 4.7646 l -2.1649,7.4295 c -0.0401,0.1369 -0.0478,0.2813 -0.0224,0.4217 0.0254,0.1404 0.0831,0.273 0.1686,0.3872 0.0855,0.1142 0.1965,0.2069 0.324,0.2707 0.1276,0.0639 0.2683,0.0972 0.411,0.0972 0.3982,0 0.7656,-0.2604 0.8833,-0.6608 l 2.1383,-7.3363 h 0.757 l 2.1383,7.3363 c 0.0337,0.1158 0.09,0.2239 0.1655,0.318 0.0756,0.0941 0.169,0.1723 0.2748,0.2303 0.1059,0.0579 0.2221,0.0944 0.3421,0.1073 0.12,0.0129 0.2414,0.002 0.3571,-0.0321 0.1158,-0.0338 0.2239,-0.0901 0.3179,-0.1656 0.0941,-0.0756 0.1724,-0.169 0.2303,-0.2748 0.058,-0.1058 0.0946,-0.222 0.1076,-0.342 0.0131,-0.1199 0.0023,-0.2413 -0.0315,-0.3571 l -2.1649,-7.4259 v -4.7675 l 0.5482,0.0015 0.0029,-0.0015 1.2313,4.187 c 0.0501,0.1703 0.1657,0.3138 0.3216,0.3988 0.0771,0.0421 0.1618,0.0686 0.2492,0.078 0.0874,0.0094 0.1758,0.0014 0.2602,-0.0233 0.0843,-0.0248 0.1629,-0.066 0.2314,-0.1211 0.0684,-0.0552 0.1253,-0.1233 0.1674,-0.2005 0.0421,-0.0771 0.0686,-0.1618 0.078,-0.2492 0.0094,-0.0874 0.0014,-0.1758 -0.0233,-0.2602 z"
     fill="#c4c4c4"
     id="path20" />
  <path
     d="m 77.5501,51.8181 c -0.7707,-0.017 -1.5041,-0.3351 -2.0432,-0.8862 -0.539,-0.5511 -0.8409,-1.2913 -0.8409,-2.0622 0,-0.7709 0.3019,-1.5112 0.8409,-2.0622 0.5391,-0.5511 1.2725,-0.8692 2.0432,-0.8862 0.3873,-3e-4 0.7709,0.0758 1.1287,0.224 0.3578,0.1482 0.6829,0.3655 0.9565,0.6395 0.2737,0.2741 0.4907,0.5994 0.6384,0.9574 0.1478,0.358 0.2234,0.7416 0.2227,1.1289 6e-4,0.3871 -0.0753,0.7705 -0.2231,1.1283 -0.1479,0.3578 -0.3649,0.6828 -0.6385,0.9566 -0.2737,0.2737 -0.5987,0.4908 -0.9565,0.6388 -0.3577,0.1479 -0.7411,0.2238 -1.1282,0.2233 z"
     fill="#c4c4c4"
     id="path22" />
  <path
     d="m 77.5502,56.2031 c 0,0 0.7154,0.0926 1.1531,-0.5138 0.3961,-0.5539 0.4255,-2.3894 0.4284,-2.7216 h -3.1658 c -0.0108,1.321 0.1428,2.2839 0.4585,2.769 0.3186,0.4951 1.1258,0.4671 1.1258,0.4671 z"
     fill="#c4c4c4"
     id="path24" />
  <path
     d="m 64.703,58.8028 c -0.1083,0.1779 -0.2769,0.5396 -0.2769,0.7677 0,0.6889 0.5561,1.2421 1.2428,1.2421 h 4.0879 c 0.4642,0 1.0742,-0.1873 1.3346,-0.5776 0.879,-1.3052 1.8083,-2.6808 2.0824,-3.092 v 7.7295 h 10.2954 v -7.9268 c 0,-2.073 -1.6195,-3.9394 -3.5353,-3.9394 0.005,0.973 -0.1256,2.589 -0.6953,3.2965 -0.5949,0.7226 -1.2952,0.6594 -1.2952,0.6594 v 3.0159 c 0.2206,0.09 0.4031,0.2541 0.516,0.464 0.1129,0.2099 0.1492,0.4526 0.1027,0.6863 -0.0465,0.2338 -0.173,0.444 -0.3576,0.5947 -0.1847,0.1507 -0.416,0.2324 -0.6544,0.2312 -0.1349,0 -0.2686,-0.0265 -0.3933,-0.0782 -0.1248,-0.0516 -0.2381,-0.1274 -0.3334,-0.2229 -0.0954,-0.0955 -0.171,-0.2089 -0.2225,-0.3337 -0.0515,-0.1248 -0.0779,-0.2585 -0.0776,-0.3935 0,-0.4269 0.2598,-0.7929 0.6315,-0.9479 v -3.0295 c 0,0 -0.6114,0.0502 -1.189,-0.5288 -0.7714,-0.8037 -0.8001,-3.0812 -0.7987,-3.4536 h -0.1872 c -0.6226,-5e-4 -1.2356,0.153 -1.7846,0.4467 -0.549,0.2936 -1.0168,0.7185 -1.3619,1.2366 l -2.4476,3.6933 -3.7133,-0.0014 -5.2439,-5.2446 c -0.0468,-0.0471 -0.1024,-0.0845 -0.1637,-0.11 -0.0612,-0.0255 -0.1269,-0.0387 -0.1933,-0.0387 -0.0664,0 -0.1321,0.0132 -0.1934,0.0387 -0.0612,0.0255 -0.1168,0.0629 -0.1636,0.11 -0.0471,0.0468 -0.0846,0.1025 -0.1102,0.1638 -0.0256,0.0613 -0.0388,0.1271 -0.039,0.1936 -10e-5,0.0664 0.0129,0.1322 0.0382,0.1937 0.0254,0.0614 0.0626,0.1172 0.1096,0.1643 l 4.9906,4.9913 z"
     fill="#c4c4c4"
     id="path26" />
</svg>
