<?xml version="1.0" encoding="UTF-8" standalone="no"?>
<svg
        xmlns:dc="http://purl.org/dc/elements/1.1/"
        xmlns:cc="http://creativecommons.org/ns#"
        xmlns:rdf="http://www.w3.org/1999/02/22-rdf-syntax-ns#"
        xmlns="http://www.w3.org/2000/svg"
        xmlns:sodipodi="http://sodipodi.sourceforge.net/DTD/sodipodi-0.dtd"
        xmlns:inkscape="http://www.inkscape.org/namespaces/inkscape"
        width="125"
        height="125"
        viewBox="0 0 125 125"
        version="1.1"
        id="svg6"
        sodipodi:docname="02.svg"
        style="fill:none"
        inkscape:version="0.92.4 (5da689c313, 2019-01-14)">
    <metadata
            id="metadata12">
        <rdf:RDF>
            <cc:Work
                    rdf:about="">
                <dc:format>image/svg+xml</dc:format>
                <dc:type
                        rdf:resource="http://purl.org/dc/dcmitype/StillImage"/>
                <dc:title></dc:title>
            </cc:Work>
        </rdf:RDF>
    </metadata>
    <defs
            id="defs10"/>
    <sodipodi:namedview
            pagecolor="#ffffff"
            bordercolor="#666666"
            borderopacity="1"
            objecttolerance="10"
            gridtolerance="10"
            guidetolerance="10"
            inkscape:pageopacity="0"
            inkscape:pageshadow="2"
            inkscape:window-width="1366"
            inkscape:window-height="705"
            id="namedview8"
            showgrid="false"
            inkscape:zoom="1.6619718"
            inkscape:cx="-11.809322"
            inkscape:cy="71"
            inkscape:window-x="-8"
            inkscape:window-y="-8"
            inkscape:window-maximized="1"
            inkscape:current-layer="svg6"/>
    <circle
            cx="62.5"
            cy="62.5"
            r="61.5"
            id="circle2"
            style="fill:#ffffff;stroke:#c4c4c4;stroke-width:2"/>
    <path
            d="m 76.8182,66.59085 v -16.3636 c 0,-2.25 -1.8409,-4.0909 -4.0909,-4.0909 H 44.0909 c -2.25,0 -4.0909,1.8409 -4.0909,4.0909 v 16.3636 c 0,2.25 1.8409,4.091 4.0909,4.091 h 28.6364 c 2.25,0 4.0909,-1.841 4.0909,-4.091 z m -18.4091,-2.0454 c -3.3955,0 -6.1364,-2.7409 -6.1364,-6.1364 0,-3.3954 2.7409,-6.1363 6.1364,-6.1363 3.3954,0 6.1364,2.7409 6.1364,6.1363 0,3.3955 -2.741,6.1364 -6.1364,6.1364 z M 85,52.27275 v 22.5 c 0,2.25 -1.8409,4.0909 -4.0909,4.0909 H 46.1364 v -4.0909 h 34.7727 v -22.5 z"
            id="path4"
            inkscape:connector-curvature="0"
            style="fill:#c4c4c4"/>
</svg>
