<?xml version="1.0" encoding="UTF-8" standalone="no"?>
<svg
   xmlns:dc="http://purl.org/dc/elements/1.1/"
   xmlns:cc="http://creativecommons.org/ns#"
   xmlns:rdf="http://www.w3.org/1999/02/22-rdf-syntax-ns#"
   xmlns:svg="http://www.w3.org/2000/svg"
   xmlns="http://www.w3.org/2000/svg"
   xmlns:sodipodi="http://sodipodi.sourceforge.net/DTD/sodipodi-0.dtd"
   xmlns:inkscape="http://www.inkscape.org/namespaces/inkscape"
   width="125"
   height="125"
   viewBox="0 0 125 125"
   fill="none"
   version="1.1"
   id="svg12"
   sodipodi:docname="ic_location.svg"
   inkscape:version="1.0.1 (3bc2e813f5, 2020-09-07)">
  <metadata
     id="metadata18">
    <rdf:RDF>
      <cc:Work
         rdf:about="">
        <dc:format>image/svg+xml</dc:format>
        <dc:type
           rdf:resource="http://purl.org/dc/dcmitype/StillImage" />
        <dc:title></dc:title>
      </cc:Work>
    </rdf:RDF>
  </metadata>
  <defs
     id="defs16" />
  <sodipodi:namedview
     pagecolor="#ffffff"
     bordercolor="#666666"
     borderopacity="1"
     objecttolerance="10"
     gridtolerance="10"
     guidetolerance="10"
     inkscape:pageopacity="0"
     inkscape:pageshadow="2"
     inkscape:window-width="960"
     inkscape:window-height="489"
     id="namedview14"
     showgrid="false"
     inkscape:zoom="6.1971831"
     inkscape:cx="62.5"
     inkscape:cy="71"
     inkscape:window-x="0"
     inkscape:window-y="553"
     inkscape:window-maximized="0"
     inkscape:current-layer="svg12" />
  <circle
     cx="62.5"
     cy="62.5"
     r="61.5"
     fill="#ffffff"
     stroke="#c4c4c4"
     stroke-width="2"
     id="circle2" />
  <path
     fill-rule="evenodd"
     clip-rule="evenodd"
     d="m 40,72.2116 11.0756,4.1287 V 43.0291 L 40,40 Z"
     fill="#c4c4c4"
     id="path4" />
  <path
     fill-rule="evenodd"
     clip-rule="evenodd"
     d="m 72.3605,62.5563 c -3.8278,0 -6.9272,3.3862 -6.9272,7.5656 0,1.08 0.2138,2.1009 0.5822,3.0347 l 6.3675,11.6775 6.3141,-11.6775 c 0.3769,-0.9338 0.585,-1.9547 0.585,-3.0347 0,-4.1794 -3.1022,-7.5656 -6.9216,-7.5656 z m 0.045,11.3653 c -1.1188,7e-4 -2.1922,-0.443 -2.9839,-1.2337 -0.7917,-0.7906 -1.2369,-1.8634 -1.2376,-2.9823 -8e-4,-1.1188 0.443,-2.1922 1.2336,-2.9839 0.7907,-0.7917 1.8634,-1.2369 2.9823,-1.2376 0.554,-4e-4 1.1027,0.1084 1.6147,0.32 0.512,0.2117 0.9772,0.5222 1.3692,0.9136 0.392,0.3915 0.7031,0.8564 0.9155,1.3681 0.2123,0.5117 0.3218,1.0602 0.3222,1.6142 3e-4,0.554 -0.1084,1.1027 -0.3201,1.6147 -0.2117,0.512 -0.5221,0.9772 -0.9136,1.3693 -0.3915,0.392 -0.8563,0.703 -1.368,0.9154 -0.5117,0.2123 -1.0602,0.3218 -1.6143,0.3222 z"
     fill="#c4c4c4"
     id="path6" />
  <path
     fill-rule="evenodd"
     clip-rule="evenodd"
     d="m 85,42.7675 -13.9753,-2.61 v 19.2768 c 0.4387,-0.0562 0.8775,-0.1293 1.3359,-0.1293 5.5603,0 10.0631,4.334 10.0631,9.6834 0,1.3838 -0.3037,2.6888 -0.8465,3.8869 L 80.4943,74.6443 85,76.6047 Z"
     fill="#c4c4c4"
     id="path8" />
  <path
     fill-rule="evenodd"
     clip-rule="evenodd"
     d="m 62.2918,68.9884 c 0,-3.8531 2.3569,-7.155 5.746,-8.7131 V 40.509 l -13.8881,2.52 v 33.3113 l 10.3528,-1.2628 -1.3641,-2.2022 c -0.5561,-1.2205 -0.8447,-2.5457 -0.8466,-3.8869 z"
     fill="#c4c4c4"
     id="path10" />
</svg>
