<?xml version="1.0" encoding="UTF-8" standalone="no"?>
<svg
   xmlns:dc="http://purl.org/dc/elements/1.1/"
   xmlns:cc="http://creativecommons.org/ns#"
   xmlns:rdf="http://www.w3.org/1999/02/22-rdf-syntax-ns#"
   xmlns:svg="http://www.w3.org/2000/svg"
   xmlns="http://www.w3.org/2000/svg"
   xmlns:sodipodi="http://sodipodi.sourceforge.net/DTD/sodipodi-0.dtd"
   xmlns:inkscape="http://www.inkscape.org/namespaces/inkscape"
   width="125"
   height="125"
   viewBox="0 0 125 125"
   fill="none"
   version="1.1"
   id="svg6"
   sodipodi:docname="ic_medical_dictionary.svg"
   inkscape:version="1.0.1 (3bc2e813f5, 2020-09-07)">
  <metadata
     id="metadata12">
    <rdf:RDF>
      <cc:Work
         rdf:about="">
        <dc:format>image/svg+xml</dc:format>
        <dc:type
           rdf:resource="http://purl.org/dc/dcmitype/StillImage" />
        <dc:title></dc:title>
      </cc:Work>
    </rdf:RDF>
  </metadata>
  <defs
     id="defs10" />
  <sodipodi:namedview
     pagecolor="#ffffff"
     bordercolor="#666666"
     borderopacity="1"
     objecttolerance="10"
     gridtolerance="10"
     guidetolerance="10"
     inkscape:pageopacity="0"
     inkscape:pageshadow="2"
     inkscape:window-width="960"
     inkscape:window-height="489"
     id="namedview8"
     showgrid="false"
     inkscape:zoom="6.1971831"
     inkscape:cx="62.5"
     inkscape:cy="71"
     inkscape:window-x="0"
     inkscape:window-y="553"
     inkscape:window-maximized="0"
     inkscape:current-layer="svg6" />
  <circle
     cx="62.5"
     cy="62.5"
     r="61.5"
     fill="#ffffff"
     stroke="#c4c4c4"
     stroke-width="2"
     id="circle2" />
  <path
     d="M 78,40 H 48.75 C 46.0365,40 42,41.7977 42,46.75 v 31.5 C 42,83.2023 46.0365,85 48.75,85 H 82.5 V 80.5 H 48.777 C 47.7375,80.473 46.5,80.0635 46.5,78.25 c 0,-0.2272 0.0203,-0.4298 0.054,-0.6143 0.252,-1.296 1.314,-1.6132 2.223,-1.6357 H 82.5 V 44.5 c 0,-1.1935 -0.4741,-2.3381 -1.318,-3.182 C 80.3381,40.4741 79.1935,40 78,40 Z M 78,60.25 73.5,58 69,60.25 V 44.5 h 9 z"
     fill="#c4c4c4"
     id="path4" />
</svg>
