<?xml version="1.0" encoding="UTF-8" standalone="no"?>
<svg
   xmlns:dc="http://purl.org/dc/elements/1.1/"
   xmlns:cc="http://creativecommons.org/ns#"
   xmlns:rdf="http://www.w3.org/1999/02/22-rdf-syntax-ns#"
   xmlns:svg="http://www.w3.org/2000/svg"
   xmlns="http://www.w3.org/2000/svg"
   xmlns:sodipodi="http://sodipodi.sourceforge.net/DTD/sodipodi-0.dtd"
   xmlns:inkscape="http://www.inkscape.org/namespaces/inkscape"
   width="125"
   height="125"
   viewBox="0 0 125 125"
   fill="none"
   version="1.1"
   id="svg6"
   sodipodi:docname="ic_medical_file.svg"
   inkscape:version="1.0.1 (3bc2e813f5, 2020-09-07)">
  <metadata
     id="metadata12">
    <rdf:RDF>
      <cc:Work
         rdf:about="">
        <dc:format>image/svg+xml</dc:format>
        <dc:type
           rdf:resource="http://purl.org/dc/dcmitype/StillImage" />
        <dc:title></dc:title>
      </cc:Work>
    </rdf:RDF>
  </metadata>
  <defs
     id="defs10" />
  <sodipodi:namedview
     pagecolor="#ffffff"
     bordercolor="#666666"
     borderopacity="1"
     objecttolerance="10"
     gridtolerance="10"
     guidetolerance="10"
     inkscape:pageopacity="0"
     inkscape:pageshadow="2"
     inkscape:window-width="960"
     inkscape:window-height="489"
     id="namedview8"
     showgrid="false"
     inkscape:zoom="6.1971831"
     inkscape:cx="62.5"
     inkscape:cy="71"
     inkscape:window-x="0"
     inkscape:window-y="553"
     inkscape:window-maximized="0"
     inkscape:current-layer="svg6" />
  <circle
     cx="62.5"
     cy="62.5"
     r="61.5"
     fill="#ffffff"
     stroke="#c4c4c4"
     stroke-width="2"
     id="circle2" />
  <path
     d="m 78.885,51.2852 c 0.3014,0.3013 0.4721,0.7081 0.4721,1.135 V 83.3929 C 79.3571,84.2818 78.639,85 77.75,85 H 45.6071 C 44.7182,85 44,84.2818 44,83.3929 V 41.6071 C 44,40.7182 44.7182,40 45.6071,40 h 21.3298 c 0.4269,0 0.8388,0.1708 1.1401,0.4721 z m -3.2343,1.8733 -9.452,-9.452 v 9.452 z m -23.615,7.8348 c -0.1065,0 -0.2087,0.0423 -0.2841,0.1177 -0.0753,0.0753 -0.1177,0.1775 -0.1177,0.2841 v 2.4107 c 0,0.1066 0.0424,0.2088 0.1177,0.2841 0.0754,0.0754 0.1776,0.1177 0.2841,0.1177 h 19.2857 c 0.1066,0 0.2088,-0.0423 0.2841,-0.1177 0.0754,-0.0753 0.1177,-0.1775 0.1177,-0.2841 v -2.4107 c 0,-0.1066 -0.0423,-0.2088 -0.1177,-0.2841 -0.0753,-0.0754 -0.1775,-0.1177 -0.2841,-0.1177 z m 0,6.8304 c -0.1065,0 -0.2087,0.0423 -0.2841,0.1176 -0.0753,0.0754 -0.1177,0.1776 -0.1177,0.2841 v 2.4108 c 0,0.1065 0.0424,0.2087 0.1177,0.2841 0.0754,0.0753 0.1776,0.1176 0.2841,0.1176 h 9.2411 c 0.1065,0 0.2087,-0.0423 0.2841,-0.1176 0.0753,-0.0754 0.1177,-0.1776 0.1177,-0.2841 v -2.4108 c 0,-0.1065 -0.0424,-0.2087 -0.1177,-0.2841 -0.0754,-0.0753 -0.1776,-0.1176 -0.2841,-0.1176 z"
     fill="#c4c4c4"
     id="path4" />
</svg>
