<svg width="135" height="83" viewBox="0 0 135 83" fill="none" xmlns="http://www.w3.org/2000/svg">
    <path
            d="M11.8564 78.5333H9.21973L4.08691 70.1134V78.5333H1.4502V65.7365H4.08691L9.22852 74.174V65.7365H11.8564V78.5333ZM13.5967 73.6906C13.5967 72.7472 13.7783 71.9064 14.1416 71.1681C14.5049 70.4298 15.0264 69.8585 15.7061 69.4542C16.3916 69.0499 17.1855 68.8478 18.0879 68.8478C19.3711 68.8478 20.417 69.2404 21.2256 70.0255C22.04 70.8107 22.4941 71.8771 22.5879 73.2247L22.6055 73.8751C22.6055 75.3341 22.1982 76.506 21.3838 77.3907C20.5693 78.2697 19.4766 78.7091 18.1055 78.7091C16.7344 78.7091 15.6387 78.2697 14.8184 77.3907C14.0039 76.5118 13.5967 75.3165 13.5967 73.8048V73.6906ZM16.1367 73.8751C16.1367 74.7775 16.3066 75.4689 16.6465 75.9493C16.9863 76.424 17.4727 76.6613 18.1055 76.6613C18.7207 76.6613 19.2012 76.4269 19.5469 75.9581C19.8926 75.4835 20.0654 74.7277 20.0654 73.6906C20.0654 72.8058 19.8926 72.1202 19.5469 71.6339C19.2012 71.1476 18.7148 70.9044 18.0879 70.9044C17.4668 70.9044 16.9863 71.1476 16.6465 71.6339C16.3066 72.1144 16.1367 72.8615 16.1367 73.8751ZM33.9961 71.4054C33.6504 71.3585 33.3457 71.3351 33.082 71.3351C32.1211 71.3351 31.4912 71.6603 31.1924 72.3107V78.5333H28.6523V69.0236H31.0518L31.1221 70.1573C31.6318 69.2843 32.3379 68.8478 33.2402 68.8478C33.5215 68.8478 33.7852 68.8859 34.0312 68.962L33.9961 71.4054ZM39.4277 78.7091C38.0332 78.7091 36.8965 78.2814 36.0176 77.4259C35.1445 76.5704 34.708 75.4308 34.708 74.007V73.7609C34.708 72.8058 34.8926 71.9532 35.2617 71.2032C35.6309 70.4474 36.1523 69.8673 36.8262 69.463C37.5059 69.0529 38.2793 68.8478 39.1465 68.8478C40.4473 68.8478 41.4697 69.2579 42.2139 70.0782C42.9639 70.8986 43.3389 72.0616 43.3389 73.5675V74.6046H37.2832C37.3652 75.2257 37.6113 75.7238 38.0215 76.0988C38.4375 76.4738 38.9619 76.6613 39.5947 76.6613C40.5732 76.6613 41.3379 76.3068 41.8887 75.5978L43.1367 76.9952C42.7559 77.5343 42.2402 77.9562 41.5898 78.2609C40.9395 78.5597 40.2188 78.7091 39.4277 78.7091ZM39.1377 70.9044C38.6338 70.9044 38.2236 71.0743 37.9072 71.4142C37.5967 71.754 37.3975 72.2404 37.3096 72.8732H40.8428V72.671C40.8311 72.1085 40.6787 71.6749 40.3857 71.3702C40.0928 71.0597 39.6768 70.9044 39.1377 70.9044ZM49.9395 75.9054C49.9395 75.5948 49.7842 75.3517 49.4736 75.1759C49.1689 74.9943 48.6768 74.8331 47.9971 74.6925C45.7354 74.2179 44.6045 73.257 44.6045 71.8097C44.6045 70.9659 44.9531 70.2628 45.6504 69.7003C46.3535 69.132 47.2705 68.8478 48.4014 68.8478C49.6084 68.8478 50.5723 69.132 51.293 69.7003C52.0195 70.2687 52.3828 71.007 52.3828 71.9152H49.8428C49.8428 71.5519 49.7256 71.2531 49.4912 71.0187C49.2568 70.7784 48.8906 70.6583 48.3926 70.6583C47.9648 70.6583 47.6338 70.755 47.3994 70.9484C47.165 71.1417 47.0479 71.3878 47.0479 71.6866C47.0479 71.9679 47.1797 72.1964 47.4434 72.3722C47.7129 72.5421 48.1641 72.6915 48.7969 72.8204C49.4297 72.9435 49.9629 73.0841 50.3965 73.2423C51.7383 73.7345 52.4092 74.587 52.4092 75.7999C52.4092 76.6671 52.0371 77.3702 51.293 77.9093C50.5488 78.4425 49.5879 78.7091 48.4102 78.7091C47.6133 78.7091 46.9043 78.5685 46.2832 78.2872C45.668 78.0001 45.1846 77.6105 44.833 77.1183C44.4814 76.6202 44.3057 76.0841 44.3057 75.5099H46.7139C46.7373 75.9611 46.9043 76.3068 47.2148 76.547C47.5254 76.7872 47.9414 76.9073 48.4629 76.9073C48.9492 76.9073 49.3154 76.8165 49.5615 76.6349C49.8135 76.4474 49.9395 76.2042 49.9395 75.9054ZM59.748 77.5665C59.1211 78.3282 58.2539 78.7091 57.1465 78.7091C56.127 78.7091 55.3477 78.4161 54.8086 77.8302C54.2754 77.2443 54.0029 76.3859 53.9912 75.255V69.0236H56.5312V75.1671C56.5312 76.1573 56.9824 76.6525 57.8848 76.6525C58.7461 76.6525 59.3379 76.3536 59.6602 75.756V69.0236H62.209V78.5333H59.8184L59.748 77.5665ZM66.8057 78.5333H64.2568V65.0333H66.8057V78.5333ZM71.9473 66.6857V69.0236H73.5732V70.8868H71.9473V75.6329C71.9473 75.9845 72.0146 76.2365 72.1494 76.3888C72.2842 76.5411 72.542 76.6173 72.9229 76.6173C73.2041 76.6173 73.4531 76.5968 73.6699 76.5558V78.4806C73.1719 78.6329 72.6592 78.7091 72.1318 78.7091C70.3506 78.7091 69.4424 77.8097 69.4072 76.0109V70.8868H68.0186V69.0236H69.4072V66.6857H71.9473ZM80.1387 75.9054C80.1387 75.5948 79.9834 75.3517 79.6729 75.1759C79.3682 74.9943 78.876 74.8331 78.1963 74.6925C75.9346 74.2179 74.8037 73.257 74.8037 71.8097C74.8037 70.9659 75.1523 70.2628 75.8496 69.7003C76.5527 69.132 77.4697 68.8478 78.6006 68.8478C79.8076 68.8478 80.7715 69.132 81.4922 69.7003C82.2188 70.2687 82.582 71.007 82.582 71.9152H80.042C80.042 71.5519 79.9248 71.2531 79.6904 71.0187C79.4561 70.7784 79.0898 70.6583 78.5918 70.6583C78.1641 70.6583 77.833 70.755 77.5986 70.9484C77.3643 71.1417 77.2471 71.3878 77.2471 71.6866C77.2471 71.9679 77.3789 72.1964 77.6426 72.3722C77.9121 72.5421 78.3633 72.6915 78.9961 72.8204C79.6289 72.9435 80.1621 73.0841 80.5957 73.2423C81.9375 73.7345 82.6084 74.587 82.6084 75.7999C82.6084 76.6671 82.2363 77.3702 81.4922 77.9093C80.748 78.4425 79.7871 78.7091 78.6094 78.7091C77.8125 78.7091 77.1035 78.5685 76.4824 78.2872C75.8672 78.0001 75.3838 77.6105 75.0322 77.1183C74.6807 76.6202 74.5049 76.0841 74.5049 75.5099H76.9131C76.9365 75.9611 77.1035 76.3068 77.4141 76.547C77.7246 76.7872 78.1406 76.9073 78.6621 76.9073C79.1484 76.9073 79.5146 76.8165 79.7607 76.6349C80.0127 76.4474 80.1387 76.2042 80.1387 75.9054ZM89.4287 78.5333V70.8868H88.0137V69.0236H89.4287V68.215C89.4287 67.1486 89.7334 66.3224 90.3428 65.7365C90.958 65.1447 91.8164 64.8488 92.918 64.8488C93.2695 64.8488 93.7002 64.9073 94.21 65.0245L94.1836 66.9933C93.9727 66.9406 93.7148 66.9142 93.4102 66.9142C92.4551 66.9142 91.9775 67.3624 91.9775 68.2589V69.0236H93.8672V70.8868H91.9775V78.5333H89.4287ZM94.79 73.6906C94.79 72.7472 94.9717 71.9064 95.335 71.1681C95.6982 70.4298 96.2197 69.8585 96.8994 69.4542C97.585 69.0499 98.3789 68.8478 99.2812 68.8478C100.564 68.8478 101.61 69.2404 102.419 70.0255C103.233 70.8107 103.688 71.8771 103.781 73.2247L103.799 73.8751C103.799 75.3341 103.392 76.506 102.577 77.3907C101.763 78.2697 100.67 78.7091 99.2988 78.7091C97.9277 78.7091 96.832 78.2697 96.0117 77.3907C95.1973 76.5118 94.79 75.3165 94.79 73.8048V73.6906ZM97.3301 73.8751C97.3301 74.7775 97.5 75.4689 97.8398 75.9493C98.1797 76.424 98.666 76.6613 99.2988 76.6613C99.9141 76.6613 100.395 76.4269 100.74 75.9581C101.086 75.4835 101.259 74.7277 101.259 73.6906C101.259 72.8058 101.086 72.1202 100.74 71.6339C100.395 71.1476 99.9082 70.9044 99.2812 70.9044C98.6602 70.9044 98.1797 71.1476 97.8398 71.6339C97.5 72.1144 97.3301 72.8615 97.3301 73.8751ZM111.059 77.5665C110.432 78.3282 109.564 78.7091 108.457 78.7091C107.438 78.7091 106.658 78.4161 106.119 77.8302C105.586 77.2443 105.313 76.3859 105.302 75.255V69.0236H107.842V75.1671C107.842 76.1573 108.293 76.6525 109.195 76.6525C110.057 76.6525 110.648 76.3536 110.971 75.756V69.0236H113.52V78.5333H111.129L111.059 77.5665ZM117.773 69.0236L117.853 70.1222C118.532 69.2726 119.443 68.8478 120.586 68.8478C121.594 68.8478 122.344 69.1437 122.836 69.7355C123.328 70.3273 123.58 71.212 123.592 72.3898V78.5333H121.052V72.4513C121.052 71.9122 120.935 71.5226 120.7 71.2823C120.466 71.0363 120.076 70.9132 119.531 70.9132C118.816 70.9132 118.28 71.2179 117.923 71.8273V78.5333H115.383V69.0236H117.773ZM125.13 73.7081C125.13 72.2257 125.461 71.045 126.123 70.1661C126.791 69.2872 127.702 68.8478 128.856 68.8478C129.782 68.8478 130.547 69.1935 131.15 69.8849V65.0333H133.699V78.5333H131.405L131.282 77.5226C130.649 78.3136 129.835 78.7091 128.839 78.7091C127.72 78.7091 126.82 78.2697 126.141 77.3907C125.467 76.506 125.13 75.2784 125.13 73.7081ZM127.67 73.8927C127.67 74.7833 127.825 75.4659 128.136 75.9406C128.446 76.4152 128.897 76.6525 129.489 76.6525C130.274 76.6525 130.828 76.3214 131.15 75.6593V71.9064C130.834 71.2443 130.286 70.9132 129.507 70.9132C128.282 70.9132 127.67 71.9064 127.67 73.8927Z"
            fill="#7A7A7A"/>
    <path
            d="M78.2667 3.93333H85.6V39.1333C85.6 39.9113 85.2909 40.6574 84.7408 41.2075C84.1907 41.7576 83.4446 42.0667 82.6667 42.0667H53.3333C52.5554 42.0667 51.8093 41.7576 51.2591 41.2075C50.709 40.6574 50.4 39.9113 50.4 39.1333V3.93333H57.7333H78.2667ZM73.8667 18.6L62.1333 30.3333L73.8667 18.6ZM59.2 1H76.8V6.86667C76.8 7.64463 76.4909 8.39074 75.9408 8.94085C75.3907 9.49095 74.6446 9.8 73.8667 9.8H62.1333C61.3554 9.8 60.6093 9.49095 60.0591 8.94085C59.509 8.39074 59.2 7.64463 59.2 6.86667V1ZM68 33.2667C66.8444 33.2667 65.7 33.039 64.6324 32.5968C63.5647 32.1546 62.5946 31.5064 61.7775 30.6892C60.9603 29.872 60.3121 28.9019 59.8699 27.8343C59.4276 26.7666 59.2 25.6223 59.2 24.4667C59.2 23.311 59.4276 22.1667 59.8699 21.099C60.3121 20.0314 60.9603 19.0613 61.7775 18.2441C62.5946 17.427 63.5647 16.7788 64.6324 16.3365C65.7 15.8943 66.8444 15.6667 68 15.6667C70.3339 15.6667 72.5722 16.5938 74.2225 18.2441C75.8729 19.8944 76.8 22.1328 76.8 24.4667C76.8 26.8006 75.8729 29.0389 74.2225 30.6892C72.5722 32.3395 70.3339 33.2667 68 33.2667V33.2667Z"
            stroke="#7A7A7A" stroke-width="2"/>
</svg>
