<?xml version="1.0" encoding="UTF-8" standalone="no"?>
<svg
   xmlns:dc="http://purl.org/dc/elements/1.1/"
   xmlns:cc="http://creativecommons.org/ns#"
   xmlns:rdf="http://www.w3.org/1999/02/22-rdf-syntax-ns#"
   xmlns:svg="http://www.w3.org/2000/svg"
   xmlns="http://www.w3.org/2000/svg"
   xmlns:sodipodi="http://sodipodi.sourceforge.net/DTD/sodipodi-0.dtd"
   xmlns:inkscape="http://www.inkscape.org/namespaces/inkscape"
   width="125"
   height="125"
   viewBox="0 0 125 125"
   fill="none"
   version="1.1"
   id="svg6"
   sodipodi:docname="ic_support.svg"
   inkscape:version="1.0.1 (3bc2e813f5, 2020-09-07)">
  <metadata
     id="metadata12">
    <rdf:RDF>
      <cc:Work
         rdf:about="">
        <dc:format>image/svg+xml</dc:format>
        <dc:type
           rdf:resource="http://purl.org/dc/dcmitype/StillImage" />
        <dc:title></dc:title>
      </cc:Work>
    </rdf:RDF>
  </metadata>
  <defs
     id="defs10" />
  <sodipodi:namedview
     pagecolor="#ffffff"
     bordercolor="#666666"
     borderopacity="1"
     objecttolerance="10"
     gridtolerance="10"
     guidetolerance="10"
     inkscape:pageopacity="0"
     inkscape:pageshadow="2"
     inkscape:window-width="960"
     inkscape:window-height="489"
     id="namedview8"
     showgrid="false"
     inkscape:zoom="6.1971831"
     inkscape:cx="62.5"
     inkscape:cy="71"
     inkscape:window-x="0"
     inkscape:window-y="553"
     inkscape:window-maximized="0"
     inkscape:current-layer="svg6" />
  <circle
     cx="62.5"
     cy="62.5"
     r="61.5"
     fill="#ffffff"
     stroke="#c4c4c4"
     stroke-width="2"
     id="circle2" />
  <path
     fill-rule="evenodd"
     clip-rule="evenodd"
     d="M 85,46.625 C 85,45.1332 84.4074,43.7024 83.3525,42.6475 82.2976,41.5926 80.8668,41 79.375,41 h -33.75 c -1.4918,0 -2.9226,0.5926 -3.9775,1.6475 C 40.5926,43.7024 40,45.1332 40,46.625 v 22.5 c 0,1.4918 0.5926,2.9226 1.6475,3.9775 1.0549,1.0549 2.4857,1.6475 3.9775,1.6475 h 26.9606 c 0.7459,2e-4 1.4611,0.2966 1.9885,0.8241 l 8.024,8.024 c 0.1965,0.197 0.4471,0.3313 0.7199,0.3859 0.2729,0.0545 0.5558,0.0269 0.8129,-0.0794 0.2572,-0.1063 0.477,-0.2865 0.6317,-0.5178 0.1547,-0.2312 0.2373,-0.5032 0.2374,-0.7815 z m -35.1562,2.8125 c -0.373,0 -0.7307,0.1482 -0.9944,0.4119 -0.2637,0.2637 -0.4119,0.6214 -0.4119,0.9944 0,0.3729 0.1482,0.7306 0.4119,0.9943 0.2637,0.2637 0.6214,0.4119 0.9944,0.4119 h 25.3124 c 0.373,0 0.7307,-0.1482 0.9944,-0.4119 0.2637,-0.2637 0.4119,-0.6214 0.4119,-0.9943 0,-0.373 -0.1482,-0.7307 -0.4119,-0.9944 -0.2637,-0.2637 -0.6214,-0.4119 -0.9944,-0.4119 z m 0,7.0313 c -0.373,0 -0.7307,0.1481 -0.9944,0.4118 -0.2637,0.2638 -0.4119,0.6214 -0.4119,0.9944 0,0.373 0.1482,0.7306 0.4119,0.9944 0.2637,0.2637 0.6214,0.4118 0.9944,0.4118 h 25.3124 c 0.373,0 0.7307,-0.1481 0.9944,-0.4118 0.2637,-0.2638 0.4119,-0.6214 0.4119,-0.9944 0,-0.373 -0.1482,-0.7306 -0.4119,-0.9944 -0.2637,-0.2637 -0.6214,-0.4118 -0.9944,-0.4118 z m 0,7.0312 c -0.373,0 -0.7307,0.1482 -0.9944,0.4119 -0.2637,0.2637 -0.4119,0.6214 -0.4119,0.9943 0,0.373 0.1482,0.7307 0.4119,0.9944 0.2637,0.2637 0.6214,0.4119 0.9944,0.4119 h 14.0624 c 0.373,0 0.7307,-0.1482 0.9944,-0.4119 0.2637,-0.2637 0.4119,-0.6214 0.4119,-0.9944 0,-0.3729 -0.1482,-0.7306 -0.4119,-0.9943 C 64.6369,63.6482 64.2792,63.5 63.9062,63.5 Z"
     fill="#c4c4c4"
     id="path4" />
</svg>
