<?xml version="1.0" encoding="UTF-8" standalone="no"?>
<svg
   xmlns:dc="http://purl.org/dc/elements/1.1/"
   xmlns:cc="http://creativecommons.org/ns#"
   xmlns:rdf="http://www.w3.org/1999/02/22-rdf-syntax-ns#"
   xmlns:svg="http://www.w3.org/2000/svg"
   xmlns="http://www.w3.org/2000/svg"
   xmlns:sodipodi="http://sodipodi.sourceforge.net/DTD/sodipodi-0.dtd"
   xmlns:inkscape="http://www.inkscape.org/namespaces/inkscape"
   width="125"
   height="125"
   viewBox="0 0 125 125"
   fill="none"
   version="1.1"
   id="svg10"
   sodipodi:docname="ic_virtual_clinic.svg"
   inkscape:version="1.0.1 (3bc2e813f5, 2020-09-07)">
  <metadata
     id="metadata16">
    <rdf:RDF>
      <cc:Work
         rdf:about="">
        <dc:format>image/svg+xml</dc:format>
        <dc:type
           rdf:resource="http://purl.org/dc/dcmitype/StillImage" />
        <dc:title></dc:title>
      </cc:Work>
    </rdf:RDF>
  </metadata>
  <defs
     id="defs14" />
  <sodipodi:namedview
     pagecolor="#ffffff"
     bordercolor="#666666"
     borderopacity="1"
     objecttolerance="10"
     gridtolerance="10"
     guidetolerance="10"
     inkscape:pageopacity="0"
     inkscape:pageshadow="2"
     inkscape:window-width="960"
     inkscape:window-height="489"
     id="namedview12"
     showgrid="false"
     inkscape:zoom="6.1971831"
     inkscape:cx="62.5"
     inkscape:cy="71"
     inkscape:window-x="0"
     inkscape:window-y="553"
     inkscape:window-maximized="0"
     inkscape:current-layer="svg10" />
  <circle
     cx="62.5"
     cy="62.5"
     r="61.5"
     fill="#ffffff"
     stroke="#c4c4c4"
     stroke-width="2"
     id="circle2" />
  <path
     d="M 78.4444,30 H 46.5556 c -1.2083,0 -2.367,0.4892 -3.2213,1.3599 C 42.48,32.2306 42,33.4115 42,34.6429 v 55.7142 c 0,1.2314 0.48,2.4123 1.3343,3.283 C 44.1886,94.5108 45.3473,95 46.5556,95 h 31.8888 c 1.2083,0 2.367,-0.4892 3.2213,-1.3599 C 82.52,92.7694 83,91.5885 83,90.3571 V 34.6429 C 83,33.4115 82.52,32.2306 81.6657,31.3599 80.8114,30.4892 79.6527,30 78.4444,30 Z M 64.7778,90.3571 h -4.5556 v -4.6428 h 4.5556 z M 46.5556,81.0714 V 34.6429 h 31.8888 v 46.4285 z"
     fill="#c4c4c4"
     id="path4" />
  <path
     d="m 62.4483,56.6786 c 1.8147,0 3.2857,-1.4711 3.2857,-3.2857 0,-1.8147 -1.471,-3.2857 -3.2857,-3.2857 -1.8146,0 -3.2857,1.471 -3.2857,3.2857 0,1.8146 1.4711,3.2857 3.2857,3.2857 z"
     stroke="#c4c4c4"
     stroke-width="2"
     stroke-linecap="round"
     stroke-linejoin="round"
     id="path6" />
  <path
     d="M 69.0198,56.6786 C 66.5556,62.4286 62.4484,69 62.4484,69 c 0,0 -4.1071,-6.5714 -6.5714,-12.3214 C 53.4127,50.9286 57.5198,46 62.4484,46 c 4.9286,0 9.0357,4.9286 6.5714,10.6786 z"
     stroke="#c4c4c4"
     stroke-width="2"
     stroke-linecap="round"
     stroke-linejoin="round"
     id="path8" />
</svg>
