<svg width="58" height="58" viewBox="0 0 58 58" fill="none" xmlns="http://www.w3.org/2000/svg">
    <path
        d="M23.0234 51.158C30.8815 52.5172 37.8067 51.3811 44.1742 47.689C49.3979 44.8767 53.4147 40.2524 55.4696 34.6856C57.2665 29.9802 57.5095 24.8227 56.1628 19.9691C54.8162 15.1155 51.9508 10.821 47.9867 7.71512C45.0975 5.28412 41.7575 3.44692 38.1577 2.30865C34.558 1.17038 30.7692 0.753392 27.0082 1.08154C18.2883 1.71041 11.2516 5.30107 6.07031 11.7724C3.86473 14.485 2.31172 17.6683 1.53115 21.0766C0.750585 24.4849 0.763333 28.0271 1.56841 31.4297C2.83682 37.165 6.13552 42.2481 10.8561 45.7416C11.3217 45.981 11.6767 46.3913 11.8468 46.8867C12.0169 47.382 11.9889 47.9239 11.7687 48.3991L11.14 49.8495C10.4911 51.4318 9.79148 53.0852 9.11214 54.6675C8.80736 55.3189 8.44781 55.9433 8.03736 56.5338C7.94611 56.686 7.84471 56.8381 7.74332 56.9903C10.246 57.1366 12.7508 56.7412 15.0868 55.831C17.4229 54.9208 19.5351 53.5171 21.2794 51.7158C21.5119 51.5013 21.7885 51.3402 22.0897 51.2439C22.391 51.1475 22.7096 51.1182 23.0234 51.158ZM20.0323 50.4074C18.1974 52.4492 15.8148 53.9209 13.1679 54.6472C12.7623 54.7283 12.3973 54.8095 11.8701 54.8805L11.2516 54.9819L11.4543 54.3835C11.9816 52.8722 12.5595 51.3406 13.2186 49.7075C13.4417 49.0178 13.5836 48.3788 13.7154 47.7905C13.9429 47.2178 13.9495 46.581 13.734 46.0037C13.5185 45.4264 13.0964 44.9498 12.5494 44.6664C5.92836 39.7774 2.65333 33.4583 2.85612 25.7191C2.90477 22.8511 3.53667 20.0231 4.71333 17.4074C5.88999 14.7916 7.58676 12.4429 9.70023 10.5045C12.2943 7.91388 15.3967 5.88881 18.8117 4.55685C22.2268 3.22488 25.8807 2.61489 29.5431 2.76529C39.6825 3.00873 47.3986 7.27897 52.4277 15.4644C54.8279 19.4731 55.8506 24.1574 55.3398 28.802C54.829 33.4467 52.8127 37.7965 49.5988 41.1873C42.5012 48.5613 33.6597 51.3304 23.2363 49.3829C22.6622 49.1978 22.0445 49.197 21.47 49.3807C20.8954 49.5645 20.3927 49.9235 20.0323 50.4074Z"
        fill="#B22A25" />
    <path
        d="M21.9582 22.2396C22.5637 22.2598 23.1614 22.0987 23.6748 21.7768C24.1882 21.455 24.5938 20.9871 24.8397 20.4332C25.0855 19.8792 25.1604 19.2645 25.0548 18.6677C24.9491 18.0709 24.6677 17.5193 24.2466 17.0835C23.8255 16.6477 23.2839 16.3477 22.6913 16.2218C22.0986 16.0959 21.4819 16.15 20.9201 16.377C20.3584 16.604 19.8772 16.9937 19.5383 17.4961C19.1993 17.9985 19.0181 18.5906 19.0177 19.1967C19.0173 19.9865 19.3238 20.7455 19.8725 21.3133C20.4212 21.8811 21.1691 22.2133 21.9582 22.2396Z"
        fill="#B22A25" />
    <path
        d="M37.289 22.4324C37.9095 22.4587 38.5238 22.2986 39.0528 21.9729C39.5817 21.6471 40.0011 21.1705 40.257 20.6043C40.513 20.0381 40.5937 19.4083 40.4889 18.7958C40.3841 18.1833 40.0986 17.6163 39.6689 17.1675C39.2393 16.7187 38.6853 16.4088 38.0782 16.2775C37.471 16.1463 36.8385 16.1998 36.262 16.4311C35.6855 16.6624 35.1914 17.061 34.8431 17.5755C34.4949 18.0901 34.3085 18.6971 34.308 19.3184C34.2985 19.7189 34.3683 20.1173 34.5131 20.4907C34.658 20.8642 34.8751 21.2054 35.152 21.4947C35.429 21.784 35.7603 22.0157 36.127 22.1766C36.4937 22.3376 36.8886 22.4245 37.289 22.4324Z"
        fill="#B22A25" />
    <path
        d="M14.0291 27.7068C13.1233 27.6573 12.2215 27.8595 11.4234 28.2909C10.6253 28.7223 9.962 29.3662 9.50695 30.1512C9.30416 30.628 9.16221 31.267 9.60835 31.6118C9.83141 31.764 9.92267 31.7539 10.3688 31.2568L10.5615 31.0438L10.7135 30.912C10.8171 30.838 10.9123 30.753 10.9974 30.6584L11.403 30.2324L11.6261 30.7801C12.5478 32.9829 13.7473 35.0587 15.1952 36.9573C17.3552 39.3124 20.0761 41.0824 23.1042 42.1022C26.1323 43.122 29.3692 43.3584 32.5133 42.7895C35.6413 42.3389 38.597 41.0777 41.0872 39.1312C43.5773 37.1846 45.5152 34.6204 46.7085 31.693C46.891 31.2264 47.114 30.7801 47.55 30.6787C47.986 30.5773 48.3206 30.983 48.564 31.267L48.6248 31.3684C48.7566 31.5611 48.9189 31.8249 49.0405 31.8553C49.1622 31.8857 49.1419 31.8553 49.223 31.7843C49.4047 31.6347 49.5355 31.4324 49.5972 31.2053C49.659 30.9781 49.6487 30.7374 49.5678 30.5164C49.3985 29.9965 49.1134 29.5219 48.734 29.1283C48.3546 28.7347 47.8909 28.4325 47.3777 28.2443C46.9183 27.9823 46.4041 27.8311 45.876 27.803C45.3479 27.7748 44.8205 27.8704 44.3358 28.0821C44.1944 28.1475 44.0744 28.2519 43.99 28.383C43.9056 28.5141 43.8603 28.6666 43.8593 28.8225C43.8593 29.0558 44.0317 29.1471 44.4879 29.2992H44.6907C44.8755 29.2833 45.0612 29.3183 45.2274 29.4006C45.3937 29.4829 45.5342 29.6092 45.6337 29.7658L45.7249 29.9281L45.6641 30.1005C44.4098 33.249 42.3545 36.0148 39.7021 38.1237C37.6855 39.6448 35.3504 40.6887 32.8725 41.1771C30.3945 41.6655 27.8381 41.5856 25.3954 40.9435C22.7299 40.2895 20.2485 39.0361 18.1401 37.2784C16.0317 35.5208 14.3518 33.3053 13.2281 30.8004C13.1349 30.6503 13.0772 30.4809 13.0597 30.305C13.0421 30.1292 13.065 29.9517 13.1267 29.7861C13.2169 29.6686 13.3317 29.5723 13.4631 29.504C13.5945 29.4356 13.7392 29.3969 13.8872 29.3905C14.2116 29.3195 14.5057 29.2485 14.7896 29.1674C15.0735 29.0862 15.1749 29.0456 15.1952 28.9848C15.2154 28.9239 15.2459 28.8428 15.0634 28.4979C14.9559 28.301 14.8084 28.1288 14.6302 27.9925C14.4521 27.8562 14.2473 27.7589 14.0291 27.7068Z"
        fill="#B22A25" />
</svg>