<svg width="56" height="35" viewBox="0 0 56 35" fill="none" xmlns="http://www.w3.org/2000/svg">
    <path
        d="M0 34.1332C0.00915752 34.3598 0.107242 34.574 0.273665 34.731C0.434576 34.8929 0.651821 34.989 0.88181 35H55.1283C55.3548 34.9865 55.568 34.8906 55.7263 34.731C55.8967 34.5685 55.995 34.3466 56 34.1133V19.0094C55.9837 18.7961 55.886 18.5968 55.7263 18.4515C55.5628 18.3048 55.3497 18.2231 55.1283 18.2223H53.0404V14.4264C53.0567 14.3241 53.0567 14.2199 53.0404 14.1176C53.0045 14.0244 52.9493 13.9395 52.8782 13.8685C52.8073 13.7946 52.7208 13.7368 52.6248 13.6991C52.5321 13.6594 52.432 13.639 52.3309 13.6393H46.2494C46.0478 13.6393 45.8544 13.7181 45.7119 13.8582C45.5693 13.9983 45.4892 14.1884 45.4892 14.3866V18.2124H42.4485V5.45972C42.4504 5.35903 42.426 5.25954 42.3776 5.17079C42.3384 5.07397 42.2798 4.98587 42.2052 4.91176C42.1277 4.84377 42.0384 4.7898 41.9417 4.75235C41.8409 4.73732 41.7384 4.73732 41.6376 4.75235H39.6105V0.866781C39.6085 0.6446 39.5217 0.431265 39.3672 0.269001C39.21 0.107735 38.9962 0.0115217 38.7692 0L32.6878 0C32.4672 0.0135191 32.2604 0.109822 32.11 0.269001C31.9539 0.430171 31.8668 0.644212 31.8668 0.866781V4.70253H24.1738V0.866781C24.1713 0.641713 24.0847 0.425389 23.9305 0.259038C23.7673 0.0958486 23.545 0.00273132 23.3122 0L17.2308 0C17.0067 0.0109906 16.7957 0.107501 16.6429 0.269001C16.4856 0.430275 16.3953 0.64345 16.3895 0.866781V4.70253H14.3624C14.2553 4.68106 14.145 4.68106 14.038 4.70253C13.9401 4.7376 13.8505 4.79183 13.7745 4.86194C13.6961 4.93106 13.6339 5.01603 13.592 5.11102C13.5494 5.20535 13.5253 5.30676 13.5211 5.40991V18.2223H10.6425V14.4264C10.6423 14.3215 10.6252 14.2172 10.5919 14.1176C10.5498 14.0275 10.4953 13.9437 10.4297 13.8685C10.3588 13.7946 10.2723 13.7368 10.1763 13.6991C10.0836 13.6594 9.98349 13.639 9.88235 13.6393H3.71982C3.60799 13.6353 3.49646 13.6531 3.39161 13.6915C3.28675 13.7299 3.19063 13.7882 3.10873 13.8632C3.02683 13.9381 2.96076 14.0282 2.91431 14.1283C2.86786 14.2283 2.84193 14.3364 2.83801 14.4463V18.2223H0.861539C0.642518 18.2196 0.431248 18.3019 0.273665 18.4515C0.110238 18.6023 0.0122274 18.8093 0 19.0293L0 34.1332ZM46.9691 15.2035H51.4085V18.1924H46.9691V15.2035ZM54.3783 19.8064V33.4159H28.6842V19.8264L54.3783 19.8064ZM33.448 1.60404H38.0091V4.70253H33.448V1.60404ZM18.0214 1.60404H22.5723V4.70253H18.0011L18.0214 1.60404ZM15.2036 6.30658H40.8673V18.2622H15.1327L15.2036 6.30658ZM4.45973 15.2434H9.02081V18.2323H4.45973V15.2434ZM1.61158 19.8264H27.0726V33.4159H1.61158V19.8264Z"
        fill="#76C695" />
</svg>