<svg width="42" height="56" viewBox="0 0 42 56" fill="none" xmlns="http://www.w3.org/2000/svg">
    <path
        d="M28.0238 0H2.92062C2.09384 0.0719273 1.32736 0.463785 0.783314 1.09268C0.510208 1.4037 0.301036 1.76582 0.167816 2.15822C0.0345956 2.55062 -0.0200463 2.96556 0.00702969 3.37922V52.6107C-0.0485655 53.4481 0.227286 54.2738 0.774684 54.9084C1.32208 55.543 2.09683 55.9352 2.9307 56H28.0541C28.8823 55.9252 29.6489 55.5293 30.191 54.8965C30.7332 54.2637 31.0082 53.4437 30.9576 52.6107V3.39946C31.0105 2.55993 30.7327 1.73313 30.1839 1.09725C29.6351 0.461375 28.8594 0.0673164 28.0238 0V0ZM29.2437 53.8146C28.9434 54.1521 28.5239 54.359 28.0742 54.3913H2.92062C2.69343 54.3777 2.47123 54.3188 2.26698 54.218C2.06273 54.1173 1.88052 53.9767 1.73099 53.8045C1.44356 53.4758 1.29527 53.0474 1.31764 52.6107V3.40958C1.29317 2.96638 1.44139 2.531 1.73099 2.19548C2.02778 1.85742 2.44305 1.64723 2.89037 1.60867H28.0944C28.5378 1.65075 28.9487 1.86054 29.2437 2.19548C29.5376 2.53309 29.6894 2.97198 29.6671 3.41969V52.6107C29.6821 53.0512 29.5309 53.4811 29.2437 53.8146Z"
        fill="#E64EBB" />
    <path
        d="M15.4822 53.0963C15.8188 53.0943 16.1472 52.9923 16.4261 52.8032C16.7049 52.6141 16.9217 52.3464 17.0491 52.0338C17.1766 51.7212 17.2089 51.3777 17.142 51.0467C17.0751 50.7157 16.912 50.412 16.6734 50.1739C16.4347 49.9358 16.1311 49.7739 15.8009 49.7088C15.4706 49.6436 15.1286 49.678 14.8178 49.8078C14.5071 49.9375 14.2416 50.1566 14.0548 50.4376C13.8681 50.7185 13.7684 51.0487 13.7684 51.3865C13.771 51.8409 13.9528 52.2757 14.2739 52.5961C14.595 52.9165 15.0294 53.0963 15.4822 53.0963Z"
        fill="#E64EBB" />
    <path
        d="M39.043 34.3285C39.6239 34.3245 40.1907 34.1481 40.6719 33.8215C41.1531 33.4949 41.5273 33.0327 41.7473 32.4931C41.9674 31.9535 42.0234 31.3607 41.9083 30.7892C41.7933 30.2178 41.5123 29.6932 41.1008 29.2817C40.6894 28.8701 40.1657 28.59 39.5959 28.4765C39.0261 28.363 38.4355 28.4212 37.8986 28.6438C37.3617 28.8665 36.9024 29.2436 36.5786 29.7276C36.2548 30.2117 36.081 30.781 36.079 31.364C36.079 31.7542 36.1557 32.1405 36.3048 32.5008C36.4539 32.8611 36.6724 33.1884 36.9477 33.4638C37.2231 33.7392 37.5499 33.9573 37.9095 34.1057C38.269 34.2541 38.6542 34.3298 39.043 34.3285Z"
        fill="#E64EBB" />
    <path
        d="M10.6632 5.60506H20.2206C20.4836 5.62578 20.7442 5.54224 20.9465 5.37236C21.1434 5.20633 21.2696 4.97107 21.2993 4.71472C21.2721 4.45475 21.1456 4.21545 20.9465 4.04697C20.7442 3.87709 20.4836 3.79355 20.2206 3.81427H10.6632C10.4003 3.79355 10.1397 3.87709 9.93736 4.04697C9.73589 4.21789 9.60922 4.46126 9.5845 4.72484C9.61683 4.9827 9.74679 5.21818 9.94744 5.38247C10.1487 5.54621 10.405 5.62591 10.6632 5.60506Z"
        fill="#E64EBB" />
    <path d="M29.8586 7.31491H0.652191V8.55935H29.8889L29.8586 7.31491Z" fill="#E64EBB" />
    <path d="M29.8586 47.4407H0.652191V48.6952H29.8889L29.8586 47.4407Z" fill="#E64EBB" />
    <path
        d="M16.1375 33.6809H14.8269L14.2624 33.6101C12.3449 33.3441 10.5709 32.4432 9.22156 31.0504C7.8716 29.658 7.03578 27.8448 6.85238 25.9108L6.16683 18.8285C6.061 17.8026 6.34949 16.7748 6.97336 15.9552C7.60814 15.1376 8.52556 14.5888 9.54417 14.4173H9.83654L9.9676 14.1644C10.1093 13.916 10.3131 13.7088 10.5588 13.5633C10.8045 13.4179 11.0837 13.3391 11.3689 13.3348C11.8265 13.3435 12.2632 13.5282 12.5888 13.8508C12.9133 14.1714 13.0981 14.6079 13.103 15.0649C13.1132 15.426 13.0072 15.7808 12.8005 16.0766C12.5991 16.367 12.3089 16.5836 11.9738 16.6938C11.6455 16.7958 11.294 16.7958 10.9657 16.6938C10.6294 16.5916 10.3356 16.382 10.1289 16.0968L9.84662 15.7528L9.4232 15.8844C8.94133 16.0156 8.50513 16.2783 8.16299 16.6432C7.89741 16.9357 7.69491 17.2802 7.56818 17.6549C7.44697 18.0265 7.40574 18.4196 7.4472 18.8083L8.12267 25.8905C8.29324 27.7219 9.14228 29.4224 10.5019 30.6558C11.8658 31.8929 13.6388 32.5778 15.4772 32.5778C17.3156 32.5778 19.0886 31.8929 20.4525 30.6558C21.8151 29.4234 22.6676 27.723 22.8418 25.8905L23.5072 18.8083C23.553 18.4106 23.5108 18.0076 23.3836 17.6281C23.2564 17.2486 23.0473 16.9019 22.7712 16.6128C22.4379 16.2314 22.0049 15.951 21.5211 15.8034L21.0977 15.6719L20.8255 16.026C20.607 16.3201 20.2975 16.5333 19.9455 16.6322C19.5934 16.731 19.2186 16.71 18.8797 16.5724C18.6709 16.4924 18.4818 16.3682 18.3253 16.2081C18.1664 16.0523 18.0397 15.8667 17.9522 15.6618C17.8724 15.4553 17.8313 15.2358 17.8313 15.0143C17.8299 14.7898 17.8731 14.5674 17.9584 14.3599C18.0437 14.1524 18.1693 13.964 18.3279 13.8058C18.4865 13.6475 18.6749 13.5226 18.8822 13.4382C19.0895 13.3539 19.3114 13.3119 19.5351 13.3145C19.8187 13.3163 20.0969 13.3931 20.3416 13.5371C20.5874 13.6863 20.7919 13.895 20.9364 14.1442L21.0876 14.387L21.3699 14.4376C22.2633 14.5786 23.0835 15.0169 23.6988 15.682C24.0888 16.1051 24.3874 16.6046 24.5759 17.1491C24.759 17.6922 24.8276 18.2675 24.7775 18.8387L24.102 25.9209C23.9209 27.8584 23.0849 29.6756 21.7328 31.0706C20.3873 32.4704 18.6119 33.3755 16.692 33.6405L16.1375 33.6809Z"
        fill="#E64EBB" />
    <path
        d="M27.4894 42.5539H25.0799C23.1856 42.5855 21.3071 42.2022 19.5754 41.4309C18.0568 40.6712 16.7894 39.4871 15.9258 38.0213C15.0735 36.5693 14.6635 34.8987 14.7463 33.2155L16.0468 33.2762C15.9938 34.7077 16.3549 36.1239 17.0867 37.3538C17.8184 38.5836 18.8894 39.5745 20.1702 40.2067C21.7282 40.8981 23.4169 41.2432 25.1203 41.2184C30.4635 41.3297 34.1231 41.2184 36.21 39.1949C37.7324 37.6976 38.4482 35.2188 38.4482 31.3944H39.7588C39.7588 35.5931 38.922 38.3754 37.1275 40.1359C35.0002 42.1695 31.8649 42.5539 27.4894 42.5539Z"
        fill="#E54EBB" />
</svg>