<svg width="56" height="54" viewBox="0 0 56 54" fill="none" xmlns="http://www.w3.org/2000/svg">
    <path
        d="M52.2312 20.7616H46.6312C46.5528 19.9371 46.3449 19.1301 46.0152 18.3704L53.0264 11.32C53.1016 11.2474 53.1614 11.1604 53.2022 11.0642C53.2431 10.9679 53.2641 10.8645 53.2641 10.76C53.2641 10.6554 53.2431 10.552 53.2022 10.4558C53.1614 10.3596 53.1016 10.2726 53.0264 10.2L48.7984 5.97196C48.7258 5.89677 48.6388 5.83696 48.5426 5.79612C48.4464 5.75527 48.3429 5.73422 48.2384 5.73422C48.1339 5.73422 48.0304 5.75527 47.9342 5.79612C47.838 5.83696 47.751 5.89677 47.6784 5.97196L41.8768 11.8296V5.79276C42.4146 5.43908 42.8242 4.9216 43.045 4.31694C43.2657 3.71229 43.2858 3.05262 43.1024 2.43563C42.9189 1.81864 42.5416 1.27714 42.0263 0.891336C41.5111 0.505527 40.8853 0.295923 40.2416 0.293564H34.524C33.8799 0.293735 33.2531 0.501852 32.7368 0.886947C32.2206 1.27204 31.8424 1.81353 31.6587 2.43085C31.4749 3.04816 31.4954 3.7083 31.717 4.31304C31.9387 4.91778 32.3497 5.4348 32.8888 5.78716V14.1872C31.7304 14.7014 30.7106 15.4833 29.9133 16.4686C29.1159 17.4538 28.5639 18.6142 28.3024 19.8544C27.328 16.752 24.9032 14.2544 20.776 14.2544C19.931 14.2569 19.0944 14.4223 18.312 14.7416C18.5808 13.5712 18.872 11.3424 17.752 9.70156C16.1728 7.38876 12.5832 7.23756 12.432 7.23196H11.872L11.6816 7.79196C11.6312 7.93756 10.4664 11.3368 12.0456 13.6496C12.251 13.9413 12.4897 14.2082 12.7568 14.4448C9.5424 15.0048 7.2016 17.3792 6.4512 20.7896H3.7688C2.76925 20.7896 1.81064 21.1866 1.10386 21.8934C0.397069 22.6002 0 23.5588 0 24.5584C0 25.5579 0.397069 26.5165 1.10386 27.2233C1.81064 27.9301 2.76925 28.3272 3.7688 28.3272H5.1856L7.1904 49.8816C7.19926 50.9065 7.61263 51.8864 8.34051 52.608C9.06839 53.3296 10.0519 53.7344 11.0768 53.7344H44.9232C45.9481 53.7344 46.9316 53.3296 47.6595 52.608C48.3874 51.8864 48.8007 50.9065 48.8096 49.8816L50.8144 28.3272H52.2312C53.2307 28.3272 54.1894 27.9301 54.8961 27.2233C55.6029 26.5165 56 25.5579 56 24.5584C56 23.5588 55.6029 22.6002 54.8961 21.8934C54.1894 21.1866 53.2307 20.7896 52.2312 20.7896V20.7616ZM48.2496 7.65756L51.3744 10.788L28.0952 34.0672L24.9704 30.92L48.2496 7.65756ZM45.0408 20.7616H43.6016L44.7776 19.5856C44.9022 19.9684 44.9903 20.3621 45.0408 20.7616ZM34.524 1.85036H40.2416C40.6071 1.87319 40.9501 2.03446 41.2008 2.30133C41.4515 2.5682 41.5911 2.9206 41.5911 3.28676C41.5911 3.65293 41.4515 4.00533 41.2008 4.2722C40.9501 4.53906 40.6071 4.70033 40.2416 4.72316H34.524C34.1585 4.70033 33.8155 4.53906 33.5648 4.2722C33.3141 4.00533 33.1745 3.65293 33.1745 3.28676C33.1745 2.9206 33.3141 2.5682 33.5648 2.30133C33.8155 2.03446 34.1585 1.87319 34.524 1.85036ZM33.9304 15.464C34.0805 15.41 34.2105 15.3113 34.3026 15.1811C34.3947 15.0509 34.4447 14.8955 34.4456 14.736V6.27996H40.32V13.3808L32.9448 20.7616H29.7304C29.8725 19.5767 30.3402 18.4543 31.0816 17.5191C31.8231 16.584 32.8091 15.8726 33.9304 15.464ZM12.9584 8.85596C14 9.00716 15.68 9.46636 16.4472 10.592C17.2144 11.7176 17.0072 13.56 16.7888 14.4672C15.8648 14.3328 14.1064 13.9072 13.3 12.7424C12.4936 11.5776 12.74 9.76316 12.9584 8.85596ZM14.1792 15.8448C15.2016 15.8534 16.1981 16.1674 17.0408 16.7464L17.4776 17.0376L17.9088 16.7408C18.7549 16.1651 19.7527 15.8533 20.776 15.8448C24.4216 15.8448 26.264 18.1576 26.936 20.7616H8.0248C8.7416 18.04 10.7184 15.8448 14.1792 15.8448ZM3.7688 26.7424C3.18214 26.7424 2.61951 26.5093 2.20468 26.0945C1.78985 25.6797 1.5568 25.117 1.5568 24.5304C1.5568 23.9437 1.78985 23.3811 2.20468 22.9662C2.61951 22.5514 3.18214 22.3184 3.7688 22.3184H31.388L26.964 26.7424H3.7688ZM47.2584 49.7416V49.8144C47.2584 50.4337 47.0124 51.0277 46.5744 51.4656C46.1365 51.9035 45.5425 52.1496 44.9232 52.1496H11.0768C10.4575 52.1496 9.8635 51.9035 9.42556 51.4656C8.98763 51.0277 8.7416 50.4337 8.7416 49.8144V49.7416L6.748 28.2992H25.4072L23.3184 30.388C23.2432 30.4606 23.1834 30.5476 23.1426 30.6438C23.1017 30.74 23.0807 30.8434 23.0807 30.948C23.0807 31.0525 23.1017 31.1559 23.1426 31.2522C23.1834 31.3484 23.2432 31.4354 23.3184 31.508L27.5464 35.736C27.6186 35.8119 27.7055 35.8723 27.8017 35.9136C27.898 35.9549 28.0016 35.9762 28.1064 35.9762C28.2112 35.9762 28.3148 35.9549 28.4111 35.9136C28.5073 35.8723 28.5942 35.8119 28.6664 35.736L36.064 28.2936H49.28L47.2584 49.7416ZM52.2312 26.7424H37.6208L42.0448 22.3184H52.2312C52.5217 22.3184 52.8093 22.3756 53.0777 22.4867C53.3461 22.5979 53.5899 22.7608 53.7953 22.9662C54.0007 23.1716 54.1637 23.4155 54.2748 23.6839C54.386 23.9522 54.4432 24.2399 54.4432 24.5304C54.4432 24.8208 54.386 25.1085 54.2748 25.3769C54.1637 25.6452 54.0007 25.8891 53.7953 26.0945C53.5899 26.2999 53.3461 26.4628 53.0777 26.574C52.8093 26.6851 52.5217 26.7424 52.2312 26.7424Z"
        fill="#EB5757" />
</svg>