<svg width="35" height="55" viewBox="0 0 35 55" fill="none" xmlns="http://www.w3.org/2000/svg">
    <path
        d="M34.4663 8.27675C34.5748 8.22894 34.6725 8.16031 34.7537 8.07487C34.8197 7.99827 34.8687 7.90886 34.8974 7.81244C34.9425 7.70721 34.9636 7.59348 34.959 7.47935C34.9618 7.36485 34.9405 7.25101 34.8963 7.14502C34.8522 7.03904 34.7861 6.94323 34.7024 6.86364C34.6219 6.78346 34.526 6.71985 34.4203 6.67652C34.3145 6.63319 34.2011 6.61102 34.0865 6.6113H25.0543L24.9721 6.05616C24.6259 4.3594 23.6929 2.8329 22.3317 1.73615C20.9704 0.639402 19.2649 0.0400887 17.5051 0.0400887C15.7454 0.0400887 14.0399 0.639402 12.6786 1.73615C11.3174 2.8329 10.3843 4.3594 10.0381 6.05616L9.91496 6.66177H0.882698C0.656487 6.65891 0.43799 6.74257 0.273305 6.89511C0.108621 7.04764 0.0106274 7.25712 0 7.47935C0.00215642 7.7034 0.0944092 7.91751 0.256598 8.07487C0.338954 8.15536 0.436648 8.21908 0.544085 8.26238C0.651522 8.30569 0.76659 8.32772 0.882698 8.32722H9.91496L10.0381 8.94292C10.3843 10.6397 11.3174 12.1662 12.6786 13.2629C14.0399 14.3597 15.7454 14.959 17.5051 14.959C19.2649 14.959 20.9704 14.3597 22.3317 13.2629C23.6929 12.1662 24.6259 10.6397 24.9721 8.94292L25.0953 8.32722H34.1276C34.2425 8.32917 34.357 8.31211 34.4663 8.27675ZM21.6466 11.5471C20.9653 12.2167 20.1266 12.7108 19.2048 12.9857C18.2829 13.2606 17.3064 13.3079 16.3616 13.1233C15.4168 12.9386 14.5329 12.5278 13.788 11.9272C13.0431 11.3266 12.4602 10.5547 12.0909 9.67976C11.6506 8.6254 11.5364 7.46677 11.7625 6.34887C11.9393 5.46473 12.3246 4.63369 12.8872 3.92248C13.4499 3.21127 14.1742 2.6397 15.0022 2.25368C15.8302 1.86765 16.7386 1.67791 17.6546 1.6997C18.5707 1.72149 19.4687 1.95419 20.2768 2.37914C21.0848 2.80408 21.7802 3.40941 22.3072 4.14654C22.8342 4.88367 23.1782 5.73205 23.3114 6.62357C23.4446 7.51509 23.3634 8.4249 23.0743 9.27996C22.7851 10.135 22.2962 10.9115 21.6466 11.5471Z"
        fill="#F29A4D" />
    <path
        d="M17.5 37.0637C16.9528 37.065 16.4111 37.1723 15.9061 37.3795C15.401 37.5866 14.9424 37.8896 14.5564 38.2711C14.1704 38.6526 13.8646 39.1051 13.6564 39.6028C13.4482 40.1005 13.3418 40.6336 13.3431 41.1718V50.902C13.3463 51.7122 13.593 52.5033 14.0523 53.176C14.5115 53.8486 15.1627 54.3727 15.9241 54.6823C16.6854 54.992 17.5228 55.0733 18.331 54.9161C19.1392 54.7589 19.8821 54.3702 20.4663 53.7989C21.2422 53.027 21.6806 51.9874 21.6877 50.902V41.1718C21.689 40.6319 21.5819 40.0971 21.3725 39.5981C21.163 39.0991 20.8553 38.6457 20.4672 38.2639C20.079 37.8822 19.6179 37.5797 19.1105 37.3737C18.6031 37.1677 18.0592 37.0623 17.5103 37.0637H17.5ZM19.9223 50.9424C19.8815 51.5488 19.6104 52.1181 19.1628 52.5372C18.7137 52.9516 18.121 53.1823 17.5051 53.1823C16.8893 53.1823 16.2966 52.9516 15.8475 52.5372C15.3999 52.1181 15.1287 51.5488 15.088 50.9424V41.1718C15.0718 40.8625 15.1207 40.5532 15.2317 40.2633C15.3452 39.9592 15.5201 39.6809 15.7459 39.445C15.9717 39.2091 16.2437 39.0205 16.5455 38.8906C16.8482 38.7609 17.1749 38.6939 17.5051 38.6939C17.8354 38.6939 18.1621 38.7609 18.4648 38.8906C18.7666 39.0205 19.0386 39.2091 19.2643 39.445C19.4901 39.6809 19.665 39.9592 19.7786 40.2633C19.8928 40.5664 19.9418 40.8895 19.9223 41.2121V50.9424Z"
        fill="#F29A4D" />
    <path
        d="M28.5748 42.5142C29.2458 41.1156 29.5962 39.5892 29.6012 38.0428V27.3637C29.5957 24.5849 28.4701 21.9216 26.4711 19.9576C24.472 17.9936 21.7627 16.8892 18.937 16.8866H16.0631C13.2409 16.8946 10.5368 18.0013 8.54218 19.9647C6.54757 21.9281 5.42477 24.5884 5.41936 27.3637V38.0428C5.41895 39.587 5.7667 41.1122 6.43757 42.5085C7.10844 43.9047 8.08573 45.1374 9.29912 46.1176L10.7361 47.2885V41.0607C10.7358 40.188 10.9102 39.3237 11.2493 38.5172C11.9368 36.8859 13.2547 35.5898 14.9135 34.9137C16.1474 34.4083 17.5059 34.2738 18.8176 34.5271C20.1292 34.7804 21.3351 35.4102 22.283 36.3369C22.9115 36.9543 23.41 37.6876 23.7499 38.4947C24.0899 39.3018 24.2645 40.1669 24.2639 41.0406V47.2784L25.6598 46.1277C26.8941 45.1528 27.8902 43.918 28.5748 42.5142ZM25.9985 40.2936C25.8035 38.211 24.8244 36.2751 23.2532 34.8657C21.6819 33.4562 19.6319 32.6749 17.5051 32.6749C15.3784 32.6749 13.3284 33.4562 11.7571 34.8657C10.1859 36.2751 9.20672 38.211 9.01173 40.2936L9.73021 44.4118L7.50293 40.3744C7.29808 39.6133 7.19118 38.83 7.18475 38.0428V27.3637C7.19018 25.0427 8.13089 22.8184 9.80078 21.1781C11.4707 19.5378 13.7336 18.6153 16.0938 18.6126H18.9677C21.3244 18.6206 23.5821 19.5455 25.2475 21.1852C26.913 22.8249 27.8509 25.0462 27.8563 27.3637V38.0428C27.8546 38.8476 27.7442 39.6486 27.5279 40.4248L25.5674 44.6642L25.9985 40.2936Z"
        fill="#F29A4D" />
    <path d="M16.217 12.2839L20.3226 6.67186H17.654L18.7727 2.73536L14.6672 8.3474H17.346L16.217 12.2839Z"
        fill="#F29A4D" />
</svg>