<svg width="56" height="57" viewBox="0 0 56 57" fill="none" xmlns="http://www.w3.org/2000/svg">
    <path d="M24 1H21.3V3.7H24V1Z" fill="#56CCF2" />
    <path d="M26.7 1H24V3.7H26.7V1Z" fill="#56CCF2" />
    <path d="M29.3 1H26.6V3.7H29.3V1Z" fill="#56CCF2" />
    <path d="M24 3.7H21.3V6.4H24V3.7Z" fill="#56CCF2" />
    <path d="M26.7 3.7H24V6.4H26.7V3.7Z" fill="#56CCF2" />
    <path d="M29.3 3.7H26.6V6.4H29.3V3.7Z" fill="#56CCF2" />
    <path d="M32 3.7H29.3V6.4H32V3.7Z" fill="#56CCF2" />
    <path d="M34.7 3.7H32V6.4H34.7V3.7Z" fill="#56CCF2" />
    <path d="M24 6.3H21.3V9H24V6.3Z" fill="#56CCF2" />
    <path d="M29.3 6.3H26.6V9H29.3V6.3Z" fill="#56CCF2" />
    <path d="M34.7 6.3H32V9H34.7V6.3Z" fill="#56CCF2" />
    <path d="M24 9H21.3V11.7H24V9Z" fill="#56CCF2" />
    <path d="M26.7 9H24V11.7H26.7V9Z" fill="#56CCF2" />
    <path d="M32 9H29.3V11.7H32V9Z" fill="#56CCF2" />
    <path d="M26.7 11.7H24V14.4H26.7V11.7Z" fill="#56CCF2" />
    <path d="M29.3 11.7H26.6V14.4H29.3V11.7Z" fill="#56CCF2" />
    <path d="M24 14.3H21.3V17H24V14.3Z" fill="#56CCF2" />
    <path d="M26.7 14.3H24V17H26.7V14.3Z" fill="#56CCF2" />
    <path d="M32 14.3H29.3V17H32V14.3Z" fill="#56CCF2" />
    <path d="M34.7 14.3H32V17H34.7V14.3Z" fill="#56CCF2" />
    <path d="M24 17H21.3V19.7H24V17Z" fill="#56CCF2" />
    <path d="M29.3 17H26.6V19.7H29.3V17Z" fill="#56CCF2" />
    <path d="M34.7 17H32V19.7H34.7V17Z" fill="#56CCF2" />
    <path d="M26.7 19.7H24V22.4H26.7V19.7Z" fill="#56CCF2" />
    <path d="M29.3 19.7H26.6V22.4H29.3V19.7Z" fill="#56CCF2" />
    <path d="M32 19.7H29.3V22.4H32V19.7Z" fill="#56CCF2" />
    <path d="M34.7 19.7H32V22.4H34.7V19.7Z" fill="#56CCF2" />
    <path d="M2.7 22.3H0V25H2.7V22.3Z" fill="#56CCF2" />
    <path d="M5.3 22.3H2.7V25H5.4V22.3H5.3Z" fill="#56CCF2" />
    <path d="M13.3 22.3H10.6V25H13.3V22.3Z" fill="#56CCF2" />
    <path d="M16 22.3H13.3V25H16V22.3Z" fill="#56CCF2" />
    <path d="M18.7 22.3H16V25H18.7V22.3Z" fill="#56CCF2" />
    <path d="M32 22.3H29.3V25H32V22.3Z" fill="#56CCF2" />
    <path d="M42.7 22.3H40V25H42.7V22.3Z" fill="#56CCF2" />
    <path d="M48 22.3H45.3V25H48V22.3Z" fill="#56CCF2" />
    <path d="M50.7 22.3H48V25H50.7V22.3Z" fill="#56CCF2" />
    <path d="M53.3 22.3H50.6V25H53.3V22.3Z" fill="#56CCF2" />
    <path d="M56 22.3H53.3V25H56V22.3Z" fill="#56CCF2" />
    <path d="M2.7 25H0V27.7H2.7V25Z" fill="#56CCF2" />
    <path d="M10.7 25H8V27.7H10.7V25Z" fill="#56CCF2" />
    <path d="M13.3 25H10.6V27.7H13.3V25Z" fill="#56CCF2" />
    <path d="M16 25H13.3V27.7H16V25Z" fill="#56CCF2" />
    <path d="M26.7 25H24V27.7H26.7V25Z" fill="#56CCF2" />
    <path d="M29.3 25H26.6V27.7H29.3V25Z" fill="#56CCF2" />
    <path d="M45.3 25H42.6V27.7H45.3V25Z" fill="#56CCF2" />
    <path d="M48 25H45.3V27.7H48V25Z" fill="#56CCF2" />
    <path d="M50.7 25H48V27.7H50.7V25Z" fill="#56CCF2" />
    <path d="M5.3 27.7H2.7V30.4H5.4V27.7H5.3Z" fill="#56CCF2" />
    <path d="M8 27.7H5.3V30.4H8V27.7Z" fill="#56CCF2" />
    <path d="M10.7 27.7H8V30.4H10.7V27.7Z" fill="#56CCF2" />
    <path d="M13.3 27.7H10.6V30.4H13.3V27.7Z" fill="#56CCF2" />
    <path d="M16 27.7H13.3V30.4H16V27.7Z" fill="#56CCF2" />
    <path d="M18.7 27.7H16V30.4H18.7V27.7Z" fill="#56CCF2" />
    <path d="M24 27.7H21.3V30.4H24V27.7Z" fill="#56CCF2" />
    <path d="M29.3 27.7H26.6V30.4H29.3V27.7Z" fill="#56CCF2" />
    <path d="M32 27.7H29.3V30.4H32V27.7Z" fill="#56CCF2" />
    <path d="M37.3 27.7H34.6V30.4H37.3V27.7Z" fill="#56CCF2" />
    <path d="M40 27.7H37.3V30.4H40V27.7Z" fill="#56CCF2" />
    <path d="M42.7 27.7H40V30.4H42.7V27.7Z" fill="#56CCF2" />
    <path d="M45.3 27.7H42.6V30.4H45.3V27.7Z" fill="#56CCF2" />
    <path d="M48 27.7H45.3V30.4H48V27.7Z" fill="#56CCF2" />
    <path d="M53.3 27.7H50.6V30.4H53.3V27.7Z" fill="#56CCF2" />
    <path d="M5.3 30.3H2.7V33H5.4V30.3H5.3Z" fill="#56CCF2" />
    <path d="M10.7 30.3H8V33H10.7V30.3Z" fill="#56CCF2" />
    <path d="M13.3 30.3H10.6V33H13.3V30.3Z" fill="#56CCF2" />
    <path d="M16 30.3H13.3V33H16V30.3Z" fill="#56CCF2" />
    <path d="M21.3 30.3H18.6V33H21.3V30.3Z" fill="#56CCF2" />
    <path d="M29.3 30.3H26.6V33H29.3V30.3Z" fill="#56CCF2" />
    <path d="M37.3 30.3H34.6V33H37.3V30.3Z" fill="#56CCF2" />
    <path d="M10.7 33H8V35.7H10.7V33Z" fill="#56CCF2" />
    <path d="M18.7 33H16V35.7H18.7V33Z" fill="#56CCF2" />
    <path d="M21.3 33H18.6V35.7H21.3V33Z" fill="#56CCF2" />
    <path d="M24 33H21.3V35.7H24V33Z" fill="#56CCF2" />
    <path d="M26.7 33H24V35.7H26.7V33Z" fill="#56CCF2" />
    <path d="M37.3 33H34.6V35.7H37.3V33Z" fill="#56CCF2" />
    <path d="M42.7 33H40V35.7H42.7V33Z" fill="#56CCF2" />
    <path d="M45.3 33H42.6V35.7H45.3V33Z" fill="#56CCF2" />
    <path d="M48 33H45.3V35.7H48V33Z" fill="#56CCF2" />
    <path d="M53.3 33H50.6V35.7H53.3V33Z" fill="#56CCF2" />
    <path d="M24 35.7H21.3V38.4H24V35.7Z" fill="#56CCF2" />
    <path d="M26.7 35.7H24V38.4H26.7V35.7Z" fill="#56CCF2" />
    <path d="M29.3 35.7H26.6V38.4H29.3V35.7Z" fill="#56CCF2" />
    <path d="M32 35.7H29.3V38.4H32V35.7Z" fill="#56CCF2" />
    <path d="M45.3 35.7H42.6V38.4H45.3V35.7Z" fill="#56CCF2" />
    <path d="M48 35.7H45.3V38.4H48V35.7Z" fill="#56CCF2" />
    <path d="M50.7 35.7H48V38.4H50.7V35.7Z" fill="#56CCF2" />
    <path d="M53.3 35.7H50.6V38.4H53.3V35.7Z" fill="#56CCF2" />
    <path d="M26.7 38.3H24V41H26.7V38.3Z" fill="#56CCF2" />
    <path d="M37.3 38.3H34.6V41H37.3V38.3Z" fill="#56CCF2" />
    <path d="M40 38.3H37.3V41H40V38.3Z" fill="#56CCF2" />
    <path d="M42.7 38.3H40V41H42.7V38.3Z" fill="#56CCF2" />
    <path d="M45.3 38.3H42.6V41H45.3V38.3Z" fill="#56CCF2" />
    <path d="M48 38.3H45.3V41H48V38.3Z" fill="#56CCF2" />
    <path d="M53.3 38.3H50.6V41H53.3V38.3Z" fill="#56CCF2" />
    <path d="M24 41H21.3V43.7H24V41Z" fill="#56CCF2" />
    <path d="M26.7 41H24V43.7H26.7V41Z" fill="#56CCF2" />
    <path d="M29.3 41H26.6V43.7H29.3V41Z" fill="#56CCF2" />
    <path d="M32 41H29.3V43.7H32V41Z" fill="#56CCF2" />
    <path d="M37.3 41H34.6V43.7H37.3V41Z" fill="#56CCF2" />
    <path d="M42.7 41H40V43.7H42.7V41Z" fill="#56CCF2" />
    <path d="M53.3 41H50.6V43.7H53.3V41Z" fill="#56CCF2" />
    <path d="M24 43.7H21.3V46.4H24V43.7Z" fill="#56CCF2" />
    <path d="M26.7 43.7H24V46.4H26.7V43.7Z" fill="#56CCF2" />
    <path d="M29.3 43.7H26.6V46.4H29.3V43.7Z" fill="#56CCF2" />
    <path d="M32 43.7H29.3V46.4H32V43.7Z" fill="#56CCF2" />
    <path d="M37.3 43.7H34.6V46.4H37.3V43.7Z" fill="#56CCF2" />
    <path d="M45.3 43.7H42.6V46.4H45.3V43.7Z" fill="#56CCF2" />
    <path d="M48 43.7H45.3V46.4H48V43.7Z" fill="#56CCF2" />
    <path d="M53.3 43.7H50.6V46.4H53.3V43.7Z" fill="#56CCF2" />
    <path d="M56 43.7H53.3V46.4H56V43.7Z" fill="#56CCF2" />
    <path d="M26.7 46.3H24V49H26.7V46.3Z" fill="#56CCF2" />
    <path d="M29.3 46.3H26.6V49H29.3V46.3Z" fill="#56CCF2" />
    <path d="M40 46.3H37.3V49H40V46.3Z" fill="#56CCF2" />
    <path d="M42.7 46.3H40V49H42.7V46.3Z" fill="#56CCF2" />
    <path d="M45.3 46.3H42.6V49H45.3V46.3Z" fill="#56CCF2" />
    <path d="M50.7 46.3H48V49H50.7V46.3Z" fill="#56CCF2" />
    <path d="M56 46.3H53.3V49H56V46.3Z" fill="#56CCF2" />
    <path d="M26.7 49H24V51.7H26.7V49Z" fill="#56CCF2" />
    <path d="M40 49H37.3V51.7H40V49Z" fill="#56CCF2" />
    <path d="M42.7 49H40V51.7H42.7V49Z" fill="#56CCF2" />
    <path d="M45.3 49H42.6V51.7H45.3V49Z" fill="#56CCF2" />
    <path d="M48 49H45.3V51.7H48V49Z" fill="#56CCF2" />
    <path d="M24 51.7H21.3V54.4H24V51.7Z" fill="#56CCF2" />
    <path d="M29.3 51.7H26.6V54.4H29.3V51.7Z" fill="#56CCF2" />
    <path d="M37.3 51.7H34.6V54.4H37.3V51.7Z" fill="#56CCF2" />
    <path d="M24 54.3H21.3V57H24V54.3Z" fill="#56CCF2" />
    <path d="M29.3 54.3H26.6V57H29.3V54.3Z" fill="#56CCF2" />
    <path d="M34.7 54.3H32V57H34.7V54.3Z" fill="#56CCF2" />
    <path d="M37.3 54.3H34.6V57H37.3V54.3Z" fill="#56CCF2" />
    <path d="M48 54.3H45.3V57H48V54.3Z" fill="#56CCF2" />
    <path d="M56 54.3H53.3V57H56V54.3Z" fill="#56CCF2" />
    <path d="M8.3 6.7H5.7V9.4H8.4V6.7H8.3Z" fill="#56CCF2" />
    <path d="M11 6.7H8.3V9.4H11V6.7Z" fill="#56CCF2" />
    <path d="M13.7 6.7H11V9.4H13.7V6.7Z" fill="#56CCF2" />
    <path d="M8.3 9.3H5.7V12H8.4V9.3H8.3Z" fill="#56CCF2" />
    <path d="M11 9.3H8.3V12H11V9.3Z" fill="#56CCF2" />
    <path d="M13.7 9.3H11V12H13.7V9.3Z" fill="#56CCF2" />
    <path d="M8.3 12H5.7V14.7H8.4V12H8.3Z" fill="#56CCF2" />
    <path d="M11 12H8.3V14.7H11V12Z" fill="#56CCF2" />
    <path d="M13.7 12H11V14.7H13.7V12Z" fill="#56CCF2" />
    <path d="M18.7 1.7H0.699997V19.7H18.7V1.7Z" stroke="#56CCF2" stroke-width="1.3" stroke-miterlimit="10" />
    <path d="M8.3 43.3H5.7V46H8.4V43.3H8.3Z" fill="#56CCF2" />
    <path d="M11 43.3H8.3V46H11V43.3Z" fill="#56CCF2" />
    <path d="M13.7 43.3H11V46H13.7V43.3Z" fill="#56CCF2" />
    <path d="M8.3 46H5.7V48.7H8.4V46H8.3Z" fill="#56CCF2" />
    <path d="M11 46H8.3V48.7H11V46Z" fill="#56CCF2" />
    <path d="M13.7 46H11V48.7H13.7V46Z" fill="#56CCF2" />
    <path d="M8.3 48.7H5.7V51.4H8.4V48.7H8.3Z" fill="#56CCF2" />
    <path d="M11 48.7H8.3V51.4H11V48.7Z" fill="#56CCF2" />
    <path d="M13.7 48.7H11V51.4H13.7V48.7Z" fill="#56CCF2" />
    <path d="M18.7 38.3H0.699997V56.3H18.7V38.3Z" stroke="#56CCF2" stroke-width="1.3" stroke-miterlimit="10" />
    <path d="M45 6.70001H42.3V9.40001H45V6.70001Z" fill="#56CCF2" />
    <path d="M47.7 6.70001H45V9.40001H47.7V6.70001Z" fill="#56CCF2" />
    <path d="M50.4 6.70001H47.7V9.40001H50.4V6.70001Z" fill="#56CCF2" />
    <path d="M45 9.30002H42.3V12H45V9.30002Z" fill="#56CCF2" />
    <path d="M47.7 9.30002H45V12H47.7V9.30002Z" fill="#56CCF2" />
    <path d="M50.4 9.30002H47.7V12H50.4V9.30002Z" fill="#56CCF2" />
    <path d="M45 12H42.3V14.7H45V12Z" fill="#56CCF2" />
    <path d="M47.7 12H45V14.7H47.7V12Z" fill="#56CCF2" />
    <path d="M50.4 12H47.7V14.7H50.4V12Z" fill="#56CCF2" />
    <path d="M55.3 1.60001H37.3V19.6H55.3V1.60001Z" stroke="#56CCF2" stroke-width="1.3" stroke-miterlimit="10" />
</svg>