<svg width="56" height="54" viewBox="0 0 56 54" fill="none" xmlns="http://www.w3.org/2000/svg">
    <path
        d="M6.4454 21.5105V52.5624C6.44397 52.7516 6.4805 52.9392 6.55288 53.1142C6.62525 53.2893 6.73202 53.4483 6.86697 53.5821C7.00192 53.7159 7.16236 53.8217 7.33896 53.8934C7.51555 53.9652 7.70477 54.0014 7.89562 54H48.1043C48.2952 54.0014 48.4844 53.9652 48.661 53.8934C48.8376 53.8217 48.998 53.7159 49.133 53.5821C49.2679 53.4483 49.3747 53.2893 49.4471 53.1142C49.5194 52.9392 49.556 52.7516 49.5546 52.5624V21.5105H47.7821V52.2536H8.20715V21.5105H6.4454Z"
        fill="#B02A26" />
    <path
        d="M27.5322 0.15965L0.300292 20.9248C0.17544 21.0212 0.0839525 21.1538 0.0385125 21.3041C-0.00692747 21.4544 -0.00406813 21.615 0.0466941 21.7636C0.0974564 21.9122 0.193606 22.0415 0.321814 22.1335C0.450022 22.2256 0.603935 22.2758 0.762214 22.2772H55.2368C55.3951 22.2758 55.549 22.2256 55.6772 22.1335C55.8054 22.0415 55.9015 21.9122 55.9523 21.7636C56.0031 21.615 56.0059 21.4544 55.9605 21.3041C55.9151 21.1538 55.8236 21.0212 55.6987 20.9248L28.4668 0.15965C28.3331 0.0568946 28.1687 0.00112915 27.9995 0.00112915C27.8303 0.00112915 27.6659 0.0568946 27.5322 0.15965ZM27.9941 2.02319L52.2719 20.5201H3.72711L27.9941 2.02319Z"
        fill="#B02A26" />
    <path
        d="M27.9946 34.5766C29.9529 34.5766 31.8311 35.347 33.2169 36.7187C34.6026 38.0903 35.3825 39.9511 35.3854 41.8923V53.0203H37.1578V41.8923C37.0765 39.5385 36.076 37.308 34.3675 35.6713C32.6589 34.0347 30.3759 33.1199 28 33.1199C25.624 33.1199 23.341 34.0347 21.6325 35.6713C19.9239 37.308 18.9234 39.5385 18.8421 41.8923V53.0203H20.6146V41.8923C20.6174 39.9529 21.3959 38.0938 22.7793 36.7224C24.1627 35.3511 26.0382 34.5794 27.9946 34.5766Z"
        fill="#B02A26" />
</svg>