<svg width="56" height="35" viewBox="0 0 56 35" fill="none" xmlns="http://www.w3.org/2000/svg">
    <path
        d="M9.98528 2.11247L1.48918 16.2712C1.36905 16.4711 1.28898 16.6929 1.25357 16.9241C1.21815 17.1553 1.22808 17.3913 1.28279 17.6187C1.3375 17.846 1.43591 18.0601 1.5724 18.2489C1.70889 18.4376 1.88077 18.5973 2.07822 18.7187L8.25811 22.5415L9.6059 20.2862L10.9537 21.2976C10.6483 21.7238 10.4715 22.2307 10.4449 22.7567C10.4183 23.2827 10.5431 23.8052 10.8039 24.2608C11.0678 24.7174 11.4583 25.0855 11.9268 25.3192C12.3954 25.5529 12.9215 25.6421 13.4396 25.5755C13.3409 26.0496 13.3685 26.5418 13.5195 27.0015C13.6771 27.4583 13.9488 27.866 14.3082 28.1848C14.6734 28.4984 15.1145 28.7079 15.5861 28.7916C16.0519 28.8762 16.5316 28.8308 16.9738 28.6601C16.9407 29.1742 17.0552 29.687 17.3033 30.1367C17.5533 30.5857 17.9237 30.9539 18.3716 31.1986C18.8173 31.4435 19.3236 31.5524 19.8292 31.5121C20.3363 31.4814 20.8229 31.2983 21.2269 30.9862C21.2274 31.4958 21.373 31.9944 21.6462 32.4223C21.9207 32.8566 22.3074 33.2064 22.7644 33.4336C23.2211 33.6498 23.729 33.7303 24.2291 33.6659C24.7292 33.6015 25.201 33.3947 25.5897 33.0696L27.4467 31.5121L29.9526 33.2819C30.3277 33.5541 30.7702 33.7152 31.2305 33.7472C31.6902 33.7757 32.149 33.6778 32.5583 33.464C32.9658 33.2445 33.3049 32.9144 33.5376 32.5107C33.7704 32.107 33.8876 31.6457 33.8762 31.1784C34.306 31.4432 34.8008 31.5799 35.3039 31.5728C35.8066 31.5606 36.2966 31.4103 36.7215 31.1379C37.1385 30.857 37.4704 30.4643 37.6802 30.0036C37.8899 29.543 37.9694 29.0323 37.9096 28.5287C38.3644 28.6499 38.8425 28.6499 39.2973 28.5287C39.6459 28.4482 39.975 28.2977 40.2653 28.0862C40.5555 27.8746 40.8009 27.6063 40.9871 27.2971C41.1732 26.9879 41.2963 26.644 41.349 26.2858C41.4017 25.9275 41.383 25.5622 41.294 25.2115C41.6633 25.2329 42.0327 25.1735 42.3773 25.0374C42.7218 24.9013 43.0334 24.6916 43.2908 24.4226C43.5544 24.1324 43.752 23.7872 43.8698 23.4113C43.9696 23.0631 43.9901 22.6966 43.9297 22.3393L47.3741 19.2041L48.9216 21.6414L54.8419 17.8995C55.2741 17.6115 55.5791 17.1649 55.6927 16.6537C55.8063 16.1425 55.7196 15.6065 55.4509 15.1587L47.6836 2.52712C47.5441 2.30182 47.3622 2.10659 47.1481 1.9526C46.9341 1.79861 46.6922 1.68889 46.4363 1.62971C46.1803 1.57053 45.9154 1.56306 45.6566 1.60772C45.3978 1.65238 45.1503 1.74829 44.9281 1.88998L39.0078 5.63193L40.096 7.40177L36.9412 8.57493L32.4186 6.93656C31.8463 6.7296 31.2374 6.64691 30.6315 6.69384C30.044 6.75069 29.4738 6.92606 28.9542 7.20962C26.9432 6.72629 24.8416 6.7926 22.8642 7.40177C20.9985 7.56511 19.1258 7.63262 17.2534 7.60404L18.6311 5.29819L12.4213 1.51578C12.2232 1.3909 12.0026 1.30723 11.7723 1.26963C11.542 1.23204 11.3066 1.24129 11.0798 1.29683C10.8531 1.35237 10.6395 1.4531 10.4516 1.59314C10.2636 1.73318 10.1051 1.90972 9.98528 2.11247ZM11.2532 2.01134L17.2434 5.6825L7.90868 21.156L1.91848 17.4848L11.2532 2.01134ZM46.3158 2.24394L55.1314 16.5544L49.2111 20.2154L40.3855 5.95556L46.3158 2.24394ZM31.1007 7.68495C31.4418 7.70036 31.7784 7.76858 32.0991 7.88722L36.9412 9.63683L40.6451 8.27153L46.845 18.304L43.6202 21.338C43.4625 21.0776 43.2635 20.8452 43.0312 20.6503L31.6698 11.2752C30.5362 11.9269 29.2857 12.343 27.9915 12.4993C26.6972 12.6556 25.3852 12.5489 24.1321 12.1854C23.996 12.1436 23.8746 12.0628 23.7827 11.9528C23.6941 11.8368 23.6451 11.6949 23.6429 11.5483C23.6327 11.4015 23.6714 11.2555 23.7528 11.1336C23.835 11.0112 23.9541 10.919 24.0922 10.8707C25.8126 10.2412 27.4465 9.39152 28.9542 8.34232C29.5393 7.92451 30.2352 7.69539 30.951 7.68495H31.1007ZM26.1788 7.89733C26.683 7.89543 27.1867 7.92922 27.6863 7.99846C26.4449 8.77892 25.1266 9.4263 23.7528 9.93012C23.4215 10.0518 23.1355 10.2744 22.9341 10.5673C22.7345 10.8691 22.6339 11.227 22.6464 11.59C22.659 11.9531 22.7841 12.303 23.004 12.5899C23.2229 12.8713 23.523 13.0764 23.8626 13.1765C26.4219 13.9063 29.1565 13.6617 31.55 12.4888L42.4022 21.4088C42.7168 21.6752 42.9174 22.0545 42.9621 22.4674C43.0068 22.8802 42.892 23.2946 42.6418 23.6237C42.3922 23.9502 42.0288 24.1677 41.6261 24.2317C41.2233 24.2956 40.8116 24.2011 40.4754 23.9675L32.3587 18.0613C32.3062 18.0219 32.2465 17.9936 32.1831 17.9779C32.1196 17.9623 32.0537 17.9597 31.9893 17.9703C31.8632 17.999 31.7505 18.0703 31.6698 18.1725C31.6309 18.2257 31.603 18.2862 31.5875 18.3504C31.5721 18.4147 31.5695 18.4814 31.5799 18.5467C31.6037 18.6791 31.6748 18.7979 31.7796 18.8805L39.6168 24.5743C39.9609 24.8456 40.1896 25.24 40.2557 25.6767C40.3154 26.1039 40.2125 26.538 39.9677 26.8911C39.723 27.2442 39.3548 27.4898 38.9379 27.578C38.717 27.6199 38.4901 27.6165 38.2706 27.5678C38.051 27.5192 37.8434 27.4263 37.66 27.2948L30.2621 21.9145C30.1534 21.8415 30.0215 21.8126 29.8927 21.8336C29.8287 21.8437 29.7674 21.8668 29.7125 21.9016C29.6576 21.9363 29.6102 21.982 29.5732 22.0359C29.5347 22.0888 29.5069 22.1489 29.4916 22.2129C29.4762 22.2768 29.4736 22.3431 29.4838 22.4081C29.494 22.473 29.5169 22.5353 29.5511 22.5912C29.5853 22.6471 29.6302 22.6955 29.683 22.7337L36.2124 27.487C36.4046 27.6097 36.5689 27.7723 36.6945 27.9641C36.8201 28.1558 36.9042 28.3724 36.9412 28.5994C36.9917 28.8361 36.9917 29.0809 36.9412 29.3175C36.893 29.5362 36.8012 29.7427 36.6716 29.9243C36.5418 30.1117 36.3753 30.2701 36.1824 30.3895C35.9924 30.5038 35.7821 30.5794 35.5634 30.612C35.3432 30.6624 35.1147 30.6624 34.8945 30.612C34.6766 30.5582 34.4725 30.4583 34.2955 30.3187L28.1555 25.8587C28.1039 25.822 28.0452 25.7967 27.9833 25.7845C27.9214 25.7723 27.8576 25.7735 27.7961 25.7879C27.6732 25.8113 27.563 25.8797 27.4866 25.9801C27.4174 26.0879 27.3858 26.216 27.3968 26.3442C27.4175 26.4724 27.4853 26.588 27.5865 26.6678L32.2788 30.0861C32.5688 30.3247 32.7602 30.6644 32.8157 31.0386C32.8711 31.4129 32.7864 31.7945 32.5783 32.1088C32.3552 32.4251 32.018 32.6395 31.6398 32.7055C31.2592 32.7748 30.8667 32.6953 30.5416 32.483L28.1356 30.7334C28.3846 30.2696 28.4956 29.7427 28.4551 29.2164C28.4125 28.6892 28.2181 28.1864 27.896 27.7701C27.5797 27.3556 27.1487 27.0458 26.658 26.8802C26.1657 26.7087 25.6345 26.6876 25.1305 26.8195C25.1622 26.4106 25.1043 25.9996 24.9608 25.616C24.831 25.2389 24.6234 24.8941 24.3518 24.6047C24.0742 24.319 23.7381 24.0985 23.3672 23.9587C22.9963 23.8189 22.5997 23.7632 22.2053 23.7956C22.3381 23.2444 22.2969 22.6649 22.0873 22.1387C21.8777 21.6125 21.5104 21.1662 21.0372 20.8627C20.5614 20.5569 20.0022 20.4118 19.4398 20.4481C18.8798 20.4882 18.346 20.7038 17.9123 21.065L17.7426 21.2167C17.7362 20.7069 17.5875 20.2093 17.3136 19.7816C17.0398 19.3539 16.652 19.0134 16.1951 18.7996C15.7365 18.5885 15.2279 18.5144 14.7292 18.5861C14.2305 18.6578 13.7623 18.8722 13.3797 19.2041L11.6725 20.6301L10.1051 19.4266L16.6044 8.60527C18.7434 8.65743 20.8835 8.58314 23.014 8.38277C24.0386 8.05996 25.1057 7.89629 26.1788 7.89733ZM14.9771 19.5581H15.1468C15.4828 19.5701 15.807 19.6866 16.0753 19.8918C16.3432 20.1002 16.5441 20.3844 16.6525 20.7084C16.7609 21.0325 16.772 21.3818 16.6843 21.7122C16.5908 22.04 16.4032 22.3322 16.1452 22.5516L14.1485 24.2001C13.8063 24.4717 13.3721 24.5953 12.9404 24.544C12.5076 24.4942 12.1105 24.2768 11.8323 23.9372C11.557 23.5972 11.4244 23.1615 11.4629 22.7236C11.494 22.2859 11.695 21.8787 12.0219 21.5909L14.0187 19.9323C14.3025 19.701 14.653 19.5697 15.017 19.5581H14.9771ZM19.5396 21.4493C19.8919 21.4374 20.2395 21.5325 20.538 21.7223C20.8313 21.918 21.0579 22.2005 21.187 22.5314C21.3016 22.8562 21.319 23.208 21.2369 23.5427C21.1538 23.889 20.9609 24.1981 20.6878 24.4226L17.1136 27.4566C16.8572 27.6669 16.5453 27.7959 16.2169 27.8275C15.8885 27.8591 15.5582 27.7919 15.2673 27.6343C14.9764 27.4767 14.7378 27.2357 14.5814 26.9415C14.425 26.6473 14.3578 26.3128 14.3881 25.9801C14.4322 25.5343 14.6473 25.124 14.9871 24.8373L18.5513 21.8538C18.8273 21.6181 19.1697 21.4766 19.5297 21.4493H19.5396ZM22.3451 24.7968C22.6978 24.7804 23.0468 24.8759 23.3434 25.0699C23.6369 25.2609 23.8639 25.5403 23.9924 25.8688C24.1137 26.1916 24.138 26.5435 24.0622 26.8802C23.9752 27.2247 23.7831 27.5326 23.5131 27.76L20.7177 30.1063C20.3724 30.3889 19.9316 30.5233 19.4897 30.4805C19.1519 30.4553 18.8295 30.3271 18.565 30.1126C18.3005 29.8982 18.1063 29.6077 18.0079 29.2793C17.9096 28.9509 17.9117 28.6 18.0141 28.2729C18.1164 27.9457 18.3141 27.6576 18.5812 27.4465L21.3766 25.1103C21.6592 24.8754 22.0098 24.7405 22.375 24.726L22.3451 24.7968ZM25.8194 27.7297C26.1553 27.7417 26.4795 27.8583 26.7479 28.0634C26.952 28.2152 27.1193 28.412 27.2371 28.6391C27.3549 28.8661 27.4201 29.1173 27.4278 29.3736C27.4355 29.63 27.3855 29.8847 27.2815 30.1186C27.1775 30.3524 27.0223 30.5592 26.8277 30.7233L24.9608 32.2706C24.6159 32.5486 24.1773 32.6788 23.7389 32.6334C23.3004 32.5881 22.8969 32.3707 22.6146 32.0279C22.3317 31.6844 22.1949 31.2412 22.2342 30.7956C22.2735 30.3501 22.4857 29.9385 22.8243 29.6512L24.6812 28.1039C24.9505 27.8809 25.2825 27.7499 25.6297 27.7297H25.8194Z"
        fill="#845CA6" stroke="#845DA7" stroke-width="0.5" />
</svg>