<svg width="48" height="58" viewBox="0 0 48 58" fill="none" xmlns="http://www.w3.org/2000/svg">
    <path
        d="M40.2948 9.60257C40.2948 9.23806 40.0761 9.01935 39.7116 9.01935H28.9219C28.5574 9.01935 28.3387 9.23806 28.3387 9.60257C28.3387 9.89419 28.5574 10.1858 28.9219 10.1858H30.0155V13.3935H31.1819V10.1858H37.4516V13.3935H38.6181V10.1858H39.7116C40.0761 10.1858 40.2948 9.96709 40.2948 9.60257Z"
        fill="#F3CA4E" stroke="#F3CA4E" stroke-width="0.3" />
    <path
        d="M20.1735 1.58323C20.1735 1.21871 19.9548 1 19.5903 1H8.94643C8.58191 1 8.3632 1.21871 8.3632 1.58323C8.3632 1.94774 8.58191 2.16645 8.94643 2.16645H10.2587V19.8819H11.4251V2.16645H16.9658V19.8819H18.1322V2.16645H19.5903C19.8819 2.16645 20.1735 1.94774 20.1735 1.58323Z"
        fill="#F3CA4E" stroke="#F3CA4E" stroke-width="0.3" />
    <path
        d="M5.73871 24.5477V51.3032C5.73871 51.8136 6.90516 51.8136 6.90516 51.3032V24.5477C6.90516 24.329 6.61355 24.1832 6.32194 24.1832C6.03032 24.1832 5.73871 24.329 5.73871 24.5477Z"
        fill="#F3CA4E" stroke="#F3CA4E" stroke-width="0.3" />
    <path
        d="M10.9148 24.5477V51.3032C10.9148 51.449 11.2064 51.6677 11.4981 51.6677C11.7897 51.6677 12.0813 51.5219 12.0813 51.3032V24.5477C12.0813 24.329 11.7897 24.1832 11.4981 24.1832C11.2064 24.1832 10.9148 24.329 10.9148 24.5477Z"
        fill="#F3CA4E" stroke="#F3CA4E" stroke-width="0.3" />
    <path
        d="M16.0181 24.5477V51.3032C16.0181 51.449 16.3097 51.6677 16.6013 51.6677C16.8929 51.6677 17.1845 51.5219 17.1845 51.3032V24.5477C17.1845 24.329 16.8929 24.1832 16.6013 24.1832C16.3097 24.1832 16.0181 24.329 16.0181 24.5477Z"
        fill="#F3CA4E" stroke="#F3CA4E" stroke-width="0.3" />
    <path
        d="M21.1213 24.5477V51.3032C21.1213 51.449 21.4129 51.6677 21.7045 51.6677C21.9961 51.6677 22.2877 51.5219 22.2877 51.3032V24.5477C22.2877 24.329 21.9961 24.1832 21.7045 24.1832C21.4129 24.1832 21.1213 24.329 21.1213 24.5477Z"
        fill="#F3CA4E" stroke="#F3CA4E" stroke-width="0.3" />
    <path
        d="M31.5465 20.3193V51.2303C31.5465 51.3761 31.8381 51.6677 32.1297 51.6677C32.4213 51.6677 32.7129 51.5219 32.7129 51.2303V20.3193C32.7129 20.0277 32.4213 19.8819 32.1297 19.8819C31.8381 19.8819 31.5465 20.0277 31.5465 20.3193Z"
        fill="#F3CA4E" stroke="#F3CA4E" stroke-width="0.3" />
    <path
        d="M36.6497 20.3193V51.2303C36.6497 51.3761 36.9413 51.6677 37.2329 51.6677C37.5245 51.6677 37.8161 51.5219 37.8161 51.2303V20.3193C37.8161 20.0277 37.5245 19.8819 37.2329 19.8819C36.9413 19.8819 36.6497 20.0277 36.6497 20.3193Z"
        fill="#F3CA4E" stroke="#F3CA4E" stroke-width="0.3" />
    <path
        d="M41.8258 20.3193V51.2303C41.8258 51.3761 42.1174 51.6677 42.409 51.6677C42.7006 51.6677 42.9923 51.5219 42.9923 51.2303V20.3193C42.9923 20.0277 42.7006 19.8819 42.409 19.8819C42.1174 19.8819 41.8258 20.0277 41.8258 20.3193Z"
        fill="#F3CA4E" stroke="#F3CA4E" stroke-width="0.3" />
    <path
        d="M27.3181 26.2245C27.1723 25.3497 26.8077 24.5478 26.5161 24.1103C25.9329 23.0168 25.0581 22.069 23.8916 21.4858C23.7458 21.4129 23.6 21.34 23.4542 21.2671C23.3084 21.1942 23.0897 21.1213 22.9439 21.0484C22.7981 21.0484 22.6523 20.9755 22.5065 20.9755C22.3606 20.9755 22.1419 20.9026 21.9961 20.9026H6.97807C3.69742 20.9026 1 23.8916 1 27.5368V48.3142C1 51.9594 3.69742 54.9484 6.97807 54.9484H7.63419H9.38387H11.4981H17.9135H20.0277H21.4858C22.4335 54.9484 23.2355 54.7297 23.9645 54.3652C24.329 54.1465 24.6206 53.9277 24.9852 53.709C25.2768 53.4903 25.5684 53.1987 25.7871 52.9071C26.8806 51.6678 27.4639 50.0639 27.4639 48.3142V27.5368C27.4639 27.0994 27.391 26.589 27.3181 26.2245ZM26.3703 48.3142C26.3703 49.8452 25.7871 51.2303 24.8394 52.251C24.5477 52.5426 24.2561 52.8342 23.8916 53.0529C23.5271 53.2716 23.1626 53.4903 22.7981 53.5632C22.3606 53.709 21.9232 53.7819 21.4858 53.7819H6.97807C4.28065 53.7819 2.09355 51.3032 2.09355 48.3142V27.5368C2.09355 24.5478 4.28065 22.069 6.97807 22.069H21.4129C21.6316 22.069 21.8503 22.069 22.2148 22.1419C22.5794 22.2148 22.9439 22.2878 23.3084 22.4336C23.7458 22.5794 24.1103 22.9439 24.4748 23.2355C24.6935 23.3813 24.8394 23.6 24.9852 23.8187C25.4955 24.4019 25.86 25.131 26.0787 25.9329C26.2245 26.4432 26.2974 26.9536 26.2974 27.4639V48.3142H26.3703Z"
        fill="#F3CA4E" stroke="#F3CA4E" stroke-width="0.3" />
    <path
        d="M43.3568 15.6535H24.9123C23.2355 15.6535 22.1419 16.6742 21.4129 18.351C21.5587 18.351 21.34 18.4239 21.4858 18.4968C21.7045 18.5697 22.2877 18.5697 22.5065 18.6426C23.0168 17.549 23.7458 16.82 24.9123 16.82H43.3568C45.1064 16.82 46.4916 18.351 46.4916 20.2465V50.5013C46.4916 52.3968 45.1064 53.9277 43.3568 53.9277H26.2245C25.9329 54.2923 25.7142 54.5839 25.4226 54.9484C25.3497 55.0213 25.2768 55.0942 25.2039 55.0942H26.0058H26.8077H27.0994H27.9013H28.9219H29.8697H38.7639H39.5658H40.5864H41.3884H41.5342H43.3568C45.6897 55.0942 47.5852 52.98 47.5852 50.4284V20.3194C47.5852 17.7677 45.6897 15.6535 43.3568 15.6535Z"
        fill="#F3CA4E" stroke="#F3CA4E" stroke-width="0.3" />
    <path
        d="M8.87352 54.2923C7.99869 54.2923 7.26965 55.0213 7.26965 55.8961C7.26965 56.771 7.99869 57.5 8.87352 57.5C9.74836 57.5 10.4774 56.771 10.4774 55.8961C10.4774 55.0213 9.82127 54.2923 8.87352 54.2923ZM8.87352 56.5523C8.50901 56.5523 8.21739 56.2607 8.21739 55.8961C8.21739 55.5316 8.50901 55.24 8.87352 55.24C9.23804 55.24 9.52965 55.5316 9.52965 55.8961C9.52965 56.2607 9.23804 56.5523 8.87352 56.5523Z"
        fill="#F3CA4E" />
    <path
        d="M19.2987 54.2923C18.4239 54.2923 17.6949 55.0213 17.6949 55.8961C17.6949 56.771 18.4239 57.5 19.2987 57.5C20.1736 57.5 20.9026 56.771 20.9026 55.8961C20.9026 55.0213 20.1736 54.2923 19.2987 54.2923ZM19.2987 56.5523C18.9342 56.5523 18.6426 56.2607 18.6426 55.8961C18.6426 55.5316 18.9342 55.24 19.2987 55.24C19.6632 55.24 19.9549 55.5316 19.9549 55.8961C19.9549 56.2607 19.6632 56.5523 19.2987 56.5523Z"
        fill="#F3CA4E" />
    <path
        d="M29.7239 54.2923C28.849 54.2923 28.12 55.0213 28.12 55.8961C28.12 56.771 28.849 57.5 29.7239 57.5C30.5987 57.5 31.3278 56.771 31.3278 55.8961C31.3278 55.0213 30.5987 54.2923 29.7239 54.2923ZM29.7239 56.5523C29.3594 56.5523 29.0678 56.2607 29.0678 55.8961C29.0678 55.5316 29.3594 55.24 29.7239 55.24C30.0884 55.24 30.38 55.5316 30.38 55.8961C30.38 56.2607 30.0884 56.5523 29.7239 56.5523Z"
        fill="#F3CA4E" />
    <path
        d="M40.4407 54.2923C39.5658 54.2923 38.8368 55.0213 38.8368 55.8961C38.8368 56.771 39.5658 57.5 40.4407 57.5C41.3155 57.5 42.0445 56.771 42.0445 55.8961C42.0445 55.0213 41.3155 54.2923 40.4407 54.2923ZM40.4407 56.5523C40.0761 56.5523 39.7845 56.2607 39.7845 55.8961C39.7845 55.5316 40.0761 55.24 40.4407 55.24C40.8052 55.24 41.0968 55.5316 41.0968 55.8961C41.0968 56.2607 40.8052 56.5523 40.4407 56.5523Z"
        fill="#F3CA4E" />
</svg>