<svg width="56" height="48" viewBox="0 0 56 48" fill="none" xmlns="http://www.w3.org/2000/svg">
    <path
        d="M44.1079 27.5774C43.258 27.5751 42.4266 27.8323 41.7188 28.3164C41.0111 28.8005 40.4589 29.4897 40.1321 30.2969C39.8053 31.104 39.7186 31.9928 39.8831 32.8506C40.0475 33.7085 40.4557 34.4968 41.0558 35.1159C41.656 35.735 42.4212 36.157 43.2546 36.3284C44.088 36.4998 44.9521 36.413 45.7375 36.0789C46.5229 35.7449 47.1943 35.1786 47.6667 34.4517C48.1391 33.7249 48.3913 32.8701 48.3913 31.9958C48.3913 30.8259 47.9404 29.7039 47.1374 28.8756C46.3344 28.0473 45.245 27.5804 44.1079 27.5774ZM44.1079 34.8486C43.559 34.8509 43.0217 34.6855 42.5643 34.3735C42.1068 34.0614 41.7496 33.6166 41.538 33.0956C41.3264 32.5745 41.2699 32.0005 41.3756 31.4464C41.4813 30.8922 41.7445 30.3828 42.1319 29.9826C42.5192 29.5825 43.0133 29.3097 43.5515 29.1986C44.0897 29.0876 44.6478 29.1434 45.1552 29.359C45.6625 29.5746 46.0962 29.9402 46.4014 30.4096C46.7066 30.879 46.8696 31.431 46.8696 31.9958C46.8696 32.7504 46.579 33.4743 46.0614 34.0089C45.5438 34.5436 44.8414 34.8455 44.1079 34.8486Z"
        fill="#3766E0" />
    <path
        d="M11.8921 27.5774C11.0426 27.5774 10.2123 27.8365 9.50605 28.322C8.7998 28.8075 8.24934 29.4976 7.92428 30.3049C7.59923 31.1123 7.51418 32.0007 7.67989 32.8578C7.8456 33.7148 8.25463 34.5021 8.85525 35.1201C9.45588 35.738 10.2211 36.1588 11.0542 36.3293C11.8873 36.4998 12.7508 36.4123 13.5356 36.0778C14.3203 35.7434 14.991 35.1771 15.463 34.4505C15.9349 33.7239 16.1867 32.8696 16.1867 31.9958C16.1838 30.8249 15.7303 29.7028 14.9256 28.8749C14.1208 28.0469 13.0302 27.5804 11.8921 27.5774ZM11.8921 34.8486C11.3431 34.8509 10.8059 34.6855 10.3484 34.3735C9.89094 34.0614 9.53377 33.6166 9.32216 33.0956C9.11055 32.5745 9.05403 32.0005 9.15975 31.4464C9.26547 30.8922 9.52867 30.3828 9.91602 29.9827C10.3034 29.5825 10.7974 29.3097 11.3356 29.1986C11.8739 29.0876 12.432 29.1434 12.9393 29.359C13.4467 29.5746 13.8804 29.9402 14.1856 30.4096C14.4908 30.879 14.6537 31.431 14.6537 31.9958C14.6537 32.7504 14.3631 33.4743 13.8455 34.0089C13.3279 34.5436 12.6255 34.8455 11.8921 34.8486Z"
        fill="#3766E0" />
    <path
        d="M51.0628 41.5864H51.2093C52.5528 41.3341 53.7678 40.6054 54.643 39.527C55.5183 38.4485 55.9985 37.0885 56 35.6836V28.3775C55.9942 26.7911 55.3821 25.2707 54.296 24.1446C53.2098 23.0185 51.7368 22.377 50.1948 22.3588H50.0483V22.2196L47.8841 10.959C47.641 9.6818 46.974 8.53116 45.9973 7.70401C45.0206 6.87686 43.7948 6.42462 42.5298 6.42467H37.9533L36.409 0.707412C36.3525 0.503259 36.2328 0.323676 36.068 0.195982C35.9031 0.0682879 35.7023 -0.000527803 35.496 3.04836e-06H20.504C20.2977 -0.000527803 20.0969 0.0682879 19.9321 0.195982C19.7672 0.323676 19.6475 0.503259 19.591 0.707412L18.0354 6.42467H13.5266C12.2519 6.41108 11.0128 6.85716 10.0244 7.68546C9.03605 8.51375 8.36082 9.67197 8.11594 10.959L5.95169 22.324H5.80515C4.26324 22.3422 2.79017 22.9837 1.70402 24.1098C0.61788 25.2359 0.00581731 26.7563 0 28.3428L0 35.6488C0.00153758 37.0537 0.481691 38.4137 1.35696 39.4922C2.23222 40.5706 3.44722 41.2994 4.79066 41.5516H4.9372V44.7871C4.93422 45.1485 5.00083 45.5069 5.13319 45.8416C5.26554 46.1763 5.46102 46.4808 5.70834 46.7374C5.95567 46.994 6.24993 47.1977 6.57416 47.3366C6.8984 47.4756 7.24617 47.5472 7.59742 47.5472H13.2335C13.936 47.5472 14.6098 47.2601 15.1066 46.749C15.6034 46.2379 15.8824 45.5447 15.8824 44.8219V41.6676H40.1063V44.8219C40.1063 45.5447 40.3854 46.2379 40.8821 46.749C41.3789 47.2601 42.0527 47.5472 42.7552 47.5472H48.3913C49.0949 47.5472 49.7698 47.2604 50.2684 46.7497C50.767 46.2389 51.0485 45.5458 51.0515 44.8219L51.0628 41.5864ZM21.2142 1.94828H34.7407L35.9581 6.42467H20.0081L21.2142 1.94828ZM9.94203 11.3301C10.1062 10.4823 10.5555 9.72106 11.2111 9.18023C11.8666 8.6394 12.6865 8.35356 13.5266 8.37294H42.5298C43.355 8.3731 44.1546 8.66805 44.792 9.20741C45.4293 9.74678 45.8649 10.4971 46.0242 11.3301L48.1208 22.324H7.8905L9.94203 11.3301ZM13.9775 44.8219C13.9775 45.028 13.8979 45.2256 13.7563 45.3713C13.6146 45.517 13.4225 45.5989 13.2222 45.5989H7.58615C7.48603 45.6004 7.38661 45.5815 7.29367 45.5431C7.20074 45.5048 7.11615 45.4478 7.04482 45.3755C6.97349 45.3032 6.91685 45.217 6.87819 45.122C6.83954 45.0269 6.81963 44.9249 6.81965 44.8219V41.6676H13.9887L13.9775 44.8219ZM49.1465 44.8219C49.1436 45.029 49.0615 45.2267 48.9181 45.372C48.7747 45.5174 48.5814 45.5989 48.38 45.5989H42.744C42.5437 45.5989 42.3516 45.517 42.2099 45.3713C42.0683 45.2256 41.9887 45.028 41.9887 44.8219V41.6676H49.1578L49.1465 44.8219ZM50.1272 39.7193H5.88406C5.36205 39.7223 4.84459 39.6194 4.36133 39.4163C3.87806 39.2133 3.43849 38.9141 3.06781 38.536C2.69712 38.1579 2.4026 37.7082 2.20113 37.2127C1.99966 36.7173 1.89519 36.1858 1.89372 35.6488V28.3428C1.89372 27.2632 2.31057 26.2278 3.05256 25.4645C3.79455 24.7011 4.80091 24.2723 5.85024 24.2723H50.1498C51.1982 24.2753 52.2028 24.7052 52.9442 25.4679C53.6855 26.2306 54.1033 27.2641 54.1063 28.3428V35.6488C54.1033 36.7274 53.6855 37.761 52.9442 38.5237C52.2028 39.2864 51.1982 39.7162 50.1498 39.7193H50.1272Z"
        fill="#3766E0" />
</svg>