<?xml version="1.0" encoding="UTF-8" standalone="no"?>
<svg xmlns:osb="http://www.openswatchbook.org/uri/2009/osb" xmlns:dc="http://purl.org/dc/elements/1.1/"
   xmlns:cc="http://creativecommons.org/ns#" xmlns:rdf="http://www.w3.org/1999/02/22-rdf-syntax-ns#"
   xmlns:svg="http://www.w3.org/2000/svg" xmlns="http://www.w3.org/2000/svg"
   xmlns:sodipodi="http://sodipodi.sourceforge.net/DTD/sodipodi-0.dtd"
   xmlns:inkscape="http://www.inkscape.org/namespaces/inkscape" width="20" height="20" viewBox="0 0 20 20" version="1.1"
   id="svg8" sodipodi:docname="group-avatar.svg" inkscape:version="1.0.1 (3bc2e813f5, 2020-09-07)">
   <metadata id="metadata14">
      <rdf:RDF>
         <cc:Work rdf:about="">
            <dc:format>image/svg+xml</dc:format>
            <dc:type rdf:resource="http://purl.org/dc/dcmitype/StillImage" />
            <dc:title>
               user avatar
            </dc:title>
         </cc:Work>
      </rdf:RDF>
   </metadata>
   <defs id="defs12">
      <linearGradient id="linearGradient845" osb:paint="solid">
         <stop style="stop-color:#f4f5f8;stop-opacity:1;" offset="0" id="stop843" />
      </linearGradient>
   </defs>
   <sodipodi:namedview pagecolor="#ffffff" bordercolor="#666666" borderopacity="1" objecttolerance="10"
      gridtolerance="10" guidetolerance="10" inkscape:pageopacity="0" inkscape:pageshadow="2"
      inkscape:window-width="960" inkscape:window-height="1016" id="namedview10" showgrid="false"
      inkscape:zoom="7.6190755" inkscape:cx="9.4226256" inkscape:cy="17.944851" inkscape:window-x="960"
      inkscape:window-y="27" inkscape:window-maximized="0" inkscape:current-layer="g869"
      inkscape:document-rotation="0" />
   <title id="title2">
      user avatar
   </title>
   <rect style="fill:#9d9fa6;fill-opacity:1" id="rect18" width="20" height="20" x="0" y="0" />
   <g id="g869" transform="matrix(0.72297983,0,0,0.72297983,5.4084357,2.892877)">
      <path id="path849"
         style="fill:#f4f5f8;fill-opacity:1;stroke:none;stroke-width:0.432421;stroke-miterlimit:4;stroke-dasharray:none;stroke-opacity:1;paint-order:markers stroke fill"
         d="m 12.251794,6.6170883 c -1.190582,0.00501 -2.153084,0.9715927 -2.15305,2.1621855 -2.3e-5,1.1941514 0.968034,2.1622082 2.162185,2.1621862 1.194152,2.2e-5 2.162209,-0.9680348 2.162186,-2.1621862 2.3e-5,-1.1941516 -0.968034,-2.1622084 -2.162186,-2.1621855 -0.0031,-6.4e-6 -0.0061,-6.4e-6 -0.0091,0 z m 0.0091,4.9730277 c -2.559978,0 -3.8919332,1.513547 -3.8919332,2.378404 v 0.46401 h 7.7839032 v -0.46401 c 0,-0.864857 -1.331954,-2.378404 -3.891934,-2.378404 z"
         sodipodi:nodetypes="sccccssssccss" />
      <g id="g861" transform="matrix(-0.90730916,0,0,0.90730916,13.927726,1.4409265)" style="stroke:none">
         <path id="path857"
            style="fill:#f4f5f8;fill-opacity:1;stroke:none;stroke-width:0.476597;stroke-miterlimit:4;stroke-dasharray:none;stroke-opacity:1;paint-order:markers stroke fill"
            d="m 14.854631,5.7049592 c -1.312212,0.00552 -2.373043,1.0708507 -2.373006,2.3830747 -2.5e-5,1.3161461 1.066929,2.3830991 2.383075,2.3830741 1.316146,2.5e-5 2.3831,-1.066928 2.383075,-2.3830741 C 17.2478,6.7718876 16.180846,5.704934 14.8647,5.7049592 c -0.0034,-7.1e-6 -0.0067,-7.1e-6 -0.01007,0 z m 0.01007,5.4810718 c -2.821506,0 -4.289534,1.668171 -4.289534,2.621382 v 0.511414 h 8.579068 v -0.511414 c 0,-0.953211 -1.468026,-2.621382 -4.289534,-2.621382 z"
            sodipodi:nodetypes="sccccssssccss" />
      </g>
      <path id="path4"
         style="fill:#f4f5f8;fill-opacity:1;stroke:#9d9fa6;stroke-width:1.25495;stroke-miterlimit:4;stroke-dasharray:none;stroke-opacity:1;paint-order:markers stroke fill"
         d="m 6.3382868,4.6828593 c -1.6422113,0.0069 -2.9698217,1.3401517 -2.969776,2.9823775 -3.1e-5,1.6471344 1.3352432,2.9824092 2.9823776,2.9823782 1.6471341,3.1e-5 2.982408,-1.3352441 2.9823769,-2.9823782 3.13e-5,-1.6471343 -1.3352426,-2.9824085 -2.9823769,-2.9823775 -0.0042,-8.9e-6 -0.0084,-8.9e-6 -0.012602,0 z m 0.012602,6.8594697 c -3.531068,0 -5.36827956,2.087686 -5.36827956,3.280615 v 0.923163 H 11.719168 v -0.923163 c 0,-1.192929 -1.8372114,-3.280615 -5.3682792,-3.280615 z"
         sodipodi:nodetypes="ccccccssccss" />
   </g>
</svg>
