<svg width="42" height="42" viewBox="0 0 42 42" fill="none" xmlns="http://www.w3.org/2000/svg">
<circle cx="21" cy="21" r="21" fill="#9E9E9E"/>
<circle cx="21" cy="21" r="21" fill="#F7F7F7"/>
<path d="M20.6976 7.89319C16.4601 7.89319 13.0123 11.3409 13.0123 15.5783C13.0123 19.8166 16.4601 23.2643 20.6976 23.2643C24.936 23.2643 28.3837 19.8166 28.3837 15.5783C28.3846 11.3409 24.936 7.89319 20.6976 7.89319ZM20.6976 21.1759C17.6111 21.1759 15.0998 18.6656 15.0998 15.5783C15.0998 12.4919 17.6111 9.98155 20.6976 9.98155C23.784 9.98155 26.2953 12.4919 26.2953 15.5783C26.2953 18.6656 23.7849 21.1759 20.6976 21.1759Z" fill="#9E9E9E"/>
<path d="M21 0C9.42048 0 0 9.42027 0 20.9995C0 32.5797 9.42048 42 21 42C32.5795 42 42 32.5797 42 20.9995C42.0009 9.42027 32.5804 0 21 0ZM10.3252 36.5998C10.423 31.3689 13.437 27.1542 17.1302 27.1542H24.2648C28.0196 27.1542 31.0753 31.5093 31.0753 36.8615C31.0753 36.9032 31.0834 36.943 31.0888 36.9847C28.1654 38.8358 24.7068 39.9107 21 39.9107C17.0423 39.9107 13.3654 38.6872 10.3252 36.5998ZM33.199 35.4352C32.6637 29.5459 28.8637 24.9653 24.2657 24.9653H17.1311C12.66 24.9653 8.9423 29.2959 8.24858 34.9506C4.46572 31.4912 2.08841 26.5175 2.08841 20.9986C2.08841 10.5713 10.5725 2.08836 21 2.08836C31.4275 2.08836 39.9116 10.5722 39.9116 20.9986C39.9116 26.781 37.3006 31.963 33.199 35.4352Z" fill="#9E9E9E"/>
<path d="M2.47009 20.4632C2.47009 23.2443 4.73261 25.5074 7.5138 25.5074C10.295 25.5074 12.558 23.2444 12.558 20.4632C12.558 17.682 10.2955 15.4189 7.5138 15.4189C4.73207 15.4189 2.47009 17.682 2.47009 20.4632ZM4.07511 20.4627C4.07511 18.5666 5.61831 17.0234 7.5138 17.0234C9.41035 17.0234 10.953 18.5666 10.953 20.4627C10.953 22.3587 9.41035 23.9019 7.5138 23.9019C5.61829 23.9019 4.07511 22.3592 4.07511 20.4627Z" fill="#9E9E9E" stroke="#9E9E9E" stroke-width="0.25"/>
<path d="M12.3411 29.4847L12.4312 29.5714L12.5179 29.4813L13.4566 28.5053L13.5432 28.4153L13.4532 28.3286C11.8501 26.7852 9.74003 25.9354 7.51325 25.9354C5.39077 25.9354 3.35439 26.7175 1.7795 28.1379L1.68663 28.2216L1.77044 28.3145L2.67816 29.3198L2.76189 29.4126L2.85467 29.3289C4.13365 28.1752 5.78904 27.5399 7.51378 27.5399C9.32371 27.5399 11.0382 28.2303 12.3411 29.4847Z" fill="#9E9E9E" stroke="#9E9E9E" stroke-width="0.25"/>
<path d="M29.4419 20.4632C29.4419 23.2444 31.7049 25.5074 34.4861 25.5074C37.2673 25.5074 39.5298 23.2443 39.5298 20.4632C39.5298 17.682 37.2673 15.4189 34.4861 15.4189C31.7049 15.4189 29.4419 17.682 29.4419 20.4632ZM31.0469 20.4627C31.0469 18.5666 32.5896 17.0234 34.4861 17.0234C36.3816 17.0234 37.9248 18.5666 37.9248 20.4627C37.9248 22.3587 36.3816 23.9019 34.4861 23.9019C32.5901 23.9019 31.0469 22.3592 31.0469 20.4627Z" fill="#9E9E9E" stroke="#9E9E9E" stroke-width="0.25"/>
<path d="M29.529 29.4347L29.6148 29.5255L29.7057 29.4398C31.0034 28.2148 32.701 27.5398 34.4861 27.5398C36.2103 27.5398 37.8646 28.1751 39.1442 29.3288L39.237 29.4125L39.3207 29.3197L40.2284 28.3127L40.3121 28.2199L40.2193 28.1362C38.6444 26.7169 36.608 25.9348 34.4861 25.9348C32.2896 25.9348 30.2009 26.7654 28.6038 28.2736L28.5128 28.3595L28.5987 28.4504L29.529 29.4347Z" fill="#9E9E9E" stroke="#9E9E9E" stroke-width="0.25"/>
</svg>
