<svg width="42" height="42" viewBox="0 0 42 42" fill="none" xmlns="http://www.w3.org/2000/svg">
<circle cx="21" cy="21" r="21" fill="#9E9E9E"/>
<circle cx="21" cy="21" r="21" fill="#F7F7F7"/>
<path d="M20.6976 7.89319C16.4601 7.89319 13.0123 11.3409 13.0123 15.5783C13.0123 19.8166 16.4601 23.2643 20.6976 23.2643C24.936 23.2643 28.3837 19.8166 28.3837 15.5783C28.3846 11.3409 24.936 7.89319 20.6976 7.89319ZM20.6976 21.1759C17.6111 21.1759 15.0998 18.6656 15.0998 15.5783C15.0998 12.4919 17.6111 9.98155 20.6976 9.98155C23.784 9.98155 26.2953 12.4919 26.2953 15.5783C26.2953 18.6656 23.7849 21.1759 20.6976 21.1759Z" fill="#9E9E9E"/>
<path d="M21 0C9.42048 0 0 9.42027 0 20.9995C0 32.5797 9.42048 42 21 42C32.5795 42 42 32.5797 42 20.9995C42.0009 9.42027 32.5804 0 21 0ZM10.3252 36.5998C10.423 31.3689 13.437 27.1542 17.1302 27.1542H24.2648C28.0196 27.1542 31.0753 31.5093 31.0753 36.8615C31.0753 36.9032 31.0834 36.943 31.0888 36.9847C28.1654 38.8358 24.7068 39.9107 21 39.9107C17.0423 39.9107 13.3654 38.6872 10.3252 36.5998ZM33.199 35.4352C32.6637 29.5459 28.8637 24.9653 24.2657 24.9653H17.1311C12.66 24.9653 8.9423 29.2959 8.24858 34.9506C4.46572 31.4912 2.08841 26.5175 2.08841 20.9986C2.08841 10.5713 10.5725 2.08836 21 2.08836C31.4275 2.08836 39.9116 10.5722 39.9116 20.9986C39.9116 26.781 37.3006 31.963 33.199 35.4352Z" fill="#9E9E9E"/>
</svg>
