<svg width="56" height="56" viewBox="0 0 56 56" fill="none" xmlns="http://www.w3.org/2000/svg">
<mask id="mask0" mask-type="alpha" maskUnits="userSpaceOnUse" x="0" y="0" width="56" height="56">
<path d="M28 56C43.464 56 56 43.464 56 28C56 12.536 43.464 0 28 0C12.536 0 0 12.536 0 28C0 43.464 12.536 56 28 56Z" fill="white"/>
</mask>
<g mask="url(#mask0)">
<path d="M70 0H-14V18.648H70V0Z" fill="#CE2028"/>
<path d="M70 18.6479H-14V37.2959H70V18.6479Z" fill="white"/>
<path d="M70 37.3521H-14V56H70V37.3521Z" fill="black"/>
<path d="M30.856 30.9682C31.024 31.6402 31.248 32.3122 31.416 32.9842C31.472 33.1522 31.528 33.1522 31.64 33.0962C31.864 32.9842 32.144 33.0962 32.312 33.1522C32.536 33.2642 32.592 33.4882 32.592 33.7122C32.592 33.8242 32.592 33.9362 32.704 33.9362C32.816 33.9362 32.872 34.0482 32.928 34.1042C32.984 34.2162 33.04 34.2722 33.208 34.3282C33.32 34.3282 33.32 34.4402 33.208 34.4962C33.096 34.5522 33.096 34.6082 33.04 34.7202C32.984 34.8322 32.928 35.0002 32.816 35.0562C32.76 35.1122 32.76 35.1682 32.76 35.2242C32.704 35.4482 32.592 35.6162 32.368 35.6722C31.584 35.8962 30.8 35.9522 29.96 36.0082C28.616 36.1202 27.272 36.1202 25.872 36.0082C25.088 35.9522 24.304 35.8402 23.52 35.6722C23.24 35.6162 23.128 35.4482 23.072 35.2242C23.072 35.1682 23.072 35.1122 23.016 35.0562C22.904 35.0002 22.848 34.8322 22.792 34.7202C22.792 34.6082 22.736 34.5522 22.624 34.4962C22.512 34.4402 22.568 34.3282 22.68 34.3282C22.792 34.3282 22.848 34.2162 22.96 34.1602C23.184 33.9922 23.352 33.7682 23.352 33.4322C23.352 33.0962 23.912 32.9842 24.136 32.9842C24.192 32.9842 24.248 32.9842 24.304 33.0402C24.416 33.0962 24.472 33.0962 24.528 32.9282C24.696 32.3122 24.864 31.6962 25.032 31.0802C25.032 31.0242 25.088 30.9682 25.032 30.9682C24.976 30.9682 24.92 31.0242 24.864 31.0802C23.968 31.9202 23.072 32.7042 22.12 33.5442C22.064 33.6002 22.064 33.6002 22.008 33.6562C21.952 33.7122 21.896 33.7122 21.896 33.6002C21.896 33.4322 21.896 33.3202 21.896 33.1522C22.008 30.9122 22.064 28.7282 22.176 26.4882C22.232 25.5922 22.232 24.6402 22.288 23.7442C22.288 23.6322 22.288 23.4642 22.344 23.3522C22.456 22.7362 22.96 22.4562 23.632 22.6242C24.024 22.7362 24.416 22.9042 24.752 23.1282C25.2 23.4082 25.648 23.5202 26.152 23.5762C26.208 23.5762 26.32 23.5762 26.376 23.5202C26.824 22.8482 27.104 22.0642 27.104 21.2242C27.104 21.0002 27.048 20.8322 26.824 20.6642C26.712 20.5522 26.544 20.4962 26.376 20.6082C26.208 20.7202 26.152 20.6082 26.152 20.4962C26.152 20.1042 26.264 19.9362 26.656 19.9362C26.768 19.9362 26.88 19.9362 26.992 19.9362C27.104 19.9362 27.216 19.9922 27.328 19.8802C27.328 19.8242 27.44 19.8242 27.44 19.8242C27.776 19.8802 28.112 19.9362 28.448 20.1042C28.728 20.2722 28.784 20.6082 28.84 20.8882C28.896 21.2802 28.84 21.7282 28.896 22.1202C28.952 22.5122 29.008 22.9042 29.176 23.2962C29.232 23.4642 29.344 23.5202 29.512 23.5202C30.016 23.4642 30.464 23.3522 30.856 23.0722C31.248 22.8482 31.696 22.6242 32.2 22.5682C32.816 22.5122 33.208 22.7922 33.32 23.4082C33.376 23.8002 33.376 24.1362 33.376 24.5282C33.432 26.3202 33.544 28.0562 33.6 29.8482C33.656 31.0242 33.712 32.2562 33.768 33.4322C33.768 33.4882 33.768 33.5442 33.768 33.6002C33.768 33.6562 33.712 33.7122 33.656 33.6562C33.6 33.6002 33.544 33.6002 33.544 33.5442C32.648 32.7042 31.696 31.8642 30.8 31.0242C30.968 30.9682 30.912 30.9122 30.856 30.9682Z" fill="#BE932D"/>
<path d="M22.512 23.6883C22.512 23.0163 22.96 22.6243 23.576 22.7363C23.968 22.7923 24.36 22.9603 24.696 23.1843C25.144 23.4643 25.648 23.6323 26.152 23.6883C26.208 23.6883 26.264 23.6883 26.264 23.7443C26.208 23.8003 26.152 23.8563 26.152 23.9683C26.432 24.0243 26.712 23.8563 26.936 23.7443C26.88 23.9123 26.88 24.0243 26.824 24.1923C27.048 24.1363 27.216 24.0243 27.384 23.8563C27.496 23.7443 27.608 23.7443 27.664 23.9123C27.664 23.9123 27.664 23.9123 27.664 23.9683C27.776 24.1363 27.888 24.1363 28 23.9683C28.112 23.8563 28.168 23.7443 28.336 23.9123C28.448 24.0243 28.616 24.0243 28.728 24.0803C28.896 24.1363 29.008 24.1363 28.896 23.9123C29.064 23.9683 29.176 23.9683 29.344 23.9683C29.4 23.9683 29.456 24.0243 29.512 23.9683C29.568 23.9123 29.456 23.8563 29.456 23.8003C29.624 23.8003 29.736 23.8003 29.904 23.7443C30.296 23.6883 30.688 23.5203 31.024 23.2963C31.36 23.0723 31.752 22.9043 32.2 22.8483C32.872 22.7363 33.264 23.0723 33.32 23.8003C33.152 23.7443 33.04 23.6323 32.872 23.5763C32.76 23.5203 32.704 23.5203 32.704 23.6883C32.76 24.5283 32.76 25.3683 32.816 26.2083C32.872 27.3283 32.928 28.3923 32.984 29.5123C33.04 30.6323 33.096 31.7523 33.096 32.8723C33.096 32.9283 33.096 32.9283 33.096 32.9843C32.928 32.9283 32.928 32.8163 32.872 32.6483C32.816 31.9763 32.816 31.3043 32.76 30.5763C32.648 28.3363 32.536 26.0963 32.48 23.8563C32.48 23.8003 32.48 23.7443 32.48 23.6323C32.256 23.8003 32.088 23.9683 31.92 24.1363C31.864 24.1923 31.92 24.2483 31.92 24.3043C31.976 25.9843 32.088 27.6643 32.144 29.3443C32.2 30.2963 32.2 31.1923 32.256 32.2003C32.088 32.0883 31.976 31.9763 31.976 31.8083C31.92 30.7443 31.864 29.6803 31.808 28.6163C31.752 27.3283 31.696 25.9843 31.64 24.6963C31.64 24.6403 31.64 24.5843 31.64 24.4723C31.472 24.5843 31.36 24.6963 31.248 24.8083C31.192 24.8643 31.192 24.9203 31.192 25.0323C31.304 27.1603 31.36 29.2323 31.472 31.3603C31.472 31.4163 31.472 31.4163 31.472 31.4723C31.304 31.3603 31.192 31.2483 31.192 31.0803C31.136 29.0643 31.024 27.1043 30.968 25.0883V25.0323C30.016 25.2563 29.176 24.9763 28.336 24.5843C28.224 24.5283 28.112 24.3603 28 24.3603C27.888 24.3603 27.776 24.5283 27.664 24.5843C26.992 24.9203 26.264 25.1443 25.48 25.0883C25.368 25.0883 25.256 25.0883 25.144 25.0323C25.032 24.9763 24.976 24.9763 24.976 25.1443C24.976 25.7043 24.92 26.3203 24.92 26.8803C24.864 28.2803 24.808 29.6803 24.752 31.1363C24.752 31.3603 24.64 31.4163 24.528 31.4723C24.528 30.9683 24.528 30.5203 24.528 30.0163C24.584 28.8403 24.64 27.6643 24.696 26.4883C24.696 26.0403 24.696 25.5363 24.752 25.0883C24.752 24.9203 24.752 24.8083 24.584 24.7523C24.472 24.6963 24.416 24.5843 24.248 24.5283C24.248 24.6403 24.248 24.7523 24.248 24.8643C24.136 27.1043 24.024 29.4003 23.968 31.6403C23.968 31.7523 23.968 31.8083 23.968 31.9203C23.968 32.1443 23.856 32.2563 23.688 32.3683C23.688 31.6963 23.744 31.0803 23.744 30.4643C23.8 29.3443 23.856 28.2803 23.912 27.1603C23.968 26.2643 23.968 25.3683 24.024 24.5283C24.024 24.3603 24.024 24.3043 23.912 24.1923C23.744 24.0803 23.632 23.9683 23.464 23.8003C23.408 23.8563 23.408 23.9683 23.408 24.0243C23.296 26.2643 23.184 28.5603 23.128 30.8003C23.072 31.4723 23.072 32.1443 23.016 32.8163C23.016 32.9843 22.96 33.0403 22.792 33.0963C22.848 32.1443 22.848 31.1923 22.904 30.2403C22.96 29.1203 23.016 28.0563 23.072 26.9363C23.128 25.8723 23.128 24.8083 23.184 23.7443C23.184 23.5763 23.128 23.5203 23.016 23.6323C22.792 23.5203 22.68 23.6323 22.512 23.6883Z" fill="white"/>
<path d="M28 35.9524C26.712 35.9524 25.424 35.8964 24.136 35.6164C23.968 35.5604 23.8 35.5044 23.632 35.5044C23.464 35.4484 23.352 35.3364 23.352 35.1684C23.352 35.0564 23.352 35.0004 23.24 34.9444C23.072 34.8324 23.016 34.6644 23.072 34.4964C23.128 34.3284 23.24 34.1604 23.408 34.1044C23.52 34.1044 23.576 34.0484 23.576 33.9364C23.632 33.7124 23.8 33.6004 24.024 33.6564C24.416 33.7124 24.864 33.8244 25.256 33.9364C25.424 33.9924 25.48 34.1604 25.536 34.3284C25.536 34.3844 25.536 34.4404 25.592 34.4404C25.648 34.4404 25.648 34.3844 25.648 34.3284C25.76 34.1044 25.872 34.0484 26.096 34.0484C26.488 34.0484 26.824 34.1044 27.216 34.0484C27.44 34.0484 27.552 34.2164 27.664 34.3284C27.776 34.4404 27.776 34.3844 27.832 34.3284C27.888 34.2724 27.888 34.1604 27.944 34.1044C27.944 34.0484 28 34.0484 28.056 34.0484C28.112 34.0484 28.112 34.1044 28.168 34.1604C28.168 34.2164 28.168 34.2164 28.224 34.2724C28.28 34.3284 28.28 34.4404 28.336 34.4964C28.448 34.5524 28.392 34.3844 28.504 34.3284C28.672 34.2164 28.84 34.0484 29.064 34.1044C29.344 34.1604 29.68 34.1044 29.96 34.1044C30.184 34.0484 30.296 34.1604 30.408 34.3844C30.408 34.4404 30.408 34.4964 30.464 34.4964C30.52 34.4964 30.52 34.4404 30.52 34.3844C30.632 34.1604 30.744 33.9364 31.024 33.9364C31.36 33.8804 31.64 33.8244 31.976 33.7124C32.256 33.6564 32.368 33.7684 32.48 33.9924C32.48 34.0484 32.48 34.1044 32.592 34.1044C32.816 34.1044 32.872 34.3284 33.04 34.4404C33.096 34.4964 32.984 34.8324 32.872 34.8884C32.76 34.9444 32.704 35.0004 32.704 35.1124C32.704 35.2804 32.592 35.3924 32.424 35.4484C31.696 35.6724 30.912 35.7284 30.184 35.7844C29.4 35.9524 28.672 35.9524 28 35.9524Z" fill="white"/>
<path d="M29.512 23.744C29.12 23.744 29.008 23.688 28.896 23.352C28.728 22.904 28.672 22.512 28.672 22.064C28.672 22.008 28.728 21.896 28.616 21.896C28.504 21.896 28.56 22.008 28.56 22.064C28.616 22.624 28.672 23.24 29.008 23.744C29.008 23.8 29.064 23.8 29.064 23.856C28.672 23.856 28.448 23.632 28.448 23.296C28.392 22.848 28.392 22.4 28.392 21.952C28.392 21.896 28.448 21.784 28.336 21.784C28.224 21.784 28.28 21.896 28.28 21.952C28.28 22.456 28.28 22.96 28.336 23.52C28.336 23.632 28.168 23.856 28.112 23.912C28.056 23.912 27.832 23.632 27.888 23.576C28.056 23.016 28.112 22.512 28.168 21.952C28.168 21.896 28.224 21.84 28.112 21.84C28 21.84 28.056 21.952 28.056 21.952C28 22.4 27.944 22.848 27.888 23.24C27.832 23.632 27.552 23.8 27.272 23.968C27.272 23.856 27.328 23.688 27.384 23.632C27.72 23.128 27.776 22.512 27.888 21.952C27.888 21.896 27.888 21.84 27.832 21.84C27.72 21.84 27.776 21.896 27.776 21.952C27.72 22.4 27.608 22.792 27.44 23.24C27.328 23.632 26.992 23.744 26.6 23.912C26.768 23.632 26.992 23.352 27.104 23.072C27.44 22.456 27.608 21.84 27.552 21.112C27.552 21 27.552 20.944 27.664 20.944C27.72 20.944 27.776 20.944 27.888 20.944C27.776 20.72 27.608 20.496 27.384 20.384C27.048 20.16 26.936 20.216 26.712 20.496C26.656 20.216 26.712 20.16 26.992 20.104C27.16 20.104 27.328 20.104 27.44 20.216C27.608 20.384 27.888 20.44 28.056 20.608C28.112 20.664 28.168 20.608 28.224 20.552C28.448 20.328 28.672 20.384 28.952 20.384C29.064 20.384 29.064 20.496 29.12 20.608C29.232 20.944 29.232 21.28 29.232 21.616C29.232 22.12 29.288 22.68 29.456 23.184C29.288 23.352 29.4 23.576 29.512 23.744Z" fill="white"/>
<path d="M25.48 25.48C25.48 25.368 25.424 25.2 25.48 25.144C25.536 25.032 25.704 25.144 25.816 25.088C26.544 24.976 27.272 24.808 27.944 24.416C28 24.36 28.056 24.416 28.056 24.416C28.616 24.808 29.232 24.92 29.904 25.032C30.016 25.032 30.128 25.088 30.24 25.088C30.52 25.088 30.52 25.088 30.52 25.368C30.408 27.272 29.68 28.84 28.224 30.072C28.056 30.184 28 30.24 27.832 30.072C26.376 28.896 25.648 27.328 25.48 25.48Z" fill="white"/>
<path d="M29.96 31.3044C29.848 31.1364 29.68 30.9684 29.568 30.8004C29.512 30.7444 29.512 30.6884 29.456 30.6884C29.4 30.6884 29.4 30.7444 29.4 30.8004C29.344 31.0804 29.288 31.3604 29.232 31.6964C29.064 31.4164 28.896 31.2484 28.784 31.0244V30.9684C28.84 30.6884 28.952 30.4084 29.064 30.0724C29.176 30.2404 29.232 30.3524 29.344 30.4644C29.4 30.5204 29.4 30.5764 29.456 30.5204C29.512 30.5204 29.512 30.4644 29.512 30.4084C29.568 30.1284 29.568 29.9044 29.624 29.5684C29.792 29.7364 29.96 29.8484 30.072 30.0164C30.184 30.1844 30.296 30.1284 30.296 29.9604C30.296 29.9044 30.352 29.8484 30.408 29.7364C30.52 30.1844 30.688 30.6324 30.8 31.1364C30.632 30.9684 30.52 30.8564 30.352 30.7444C30.296 30.6884 30.24 30.5764 30.184 30.6324C30.128 30.6324 30.128 30.7444 30.072 30.8004C30.072 30.9684 30.016 31.1364 29.96 31.3044Z" fill="white"/>
<path d="M25.592 29.792C25.592 29.848 25.648 29.848 25.648 29.848C25.816 30.184 25.816 30.184 26.04 29.904C26.152 29.792 26.264 29.736 26.32 29.624C26.32 29.624 26.32 29.624 26.376 29.624C26.432 29.904 26.432 30.184 26.488 30.464C26.488 30.52 26.488 30.576 26.544 30.576C26.6 30.576 26.6 30.576 26.656 30.52C26.768 30.408 26.824 30.296 26.936 30.128C27.048 30.464 27.104 30.744 27.216 31.024C27.216 31.08 27.216 31.08 27.216 31.136C27.104 31.36 26.936 31.584 26.768 31.808C26.712 31.472 26.656 31.136 26.6 30.856C26.6 30.8 26.6 30.744 26.544 30.744C26.488 30.744 26.488 30.8 26.432 30.8C26.32 30.968 26.208 31.136 26.04 31.304C25.984 31.08 25.928 30.912 25.872 30.744C25.816 30.632 25.816 30.576 25.704 30.688C25.536 30.856 25.368 30.968 25.2 31.192C25.368 30.688 25.48 30.24 25.592 29.792Z" fill="white"/>
<path d="M29.512 30.9121C29.624 31.0801 29.736 31.2481 29.848 31.3601C29.904 31.4161 29.904 31.5281 29.96 31.4721C30.016 31.4721 30.016 31.3601 30.016 31.3041C30.072 31.1361 30.128 30.9681 30.184 30.7441C30.352 30.9121 30.576 31.0801 30.744 31.3041C30.8 31.3601 30.8 31.4161 30.8 31.5281C30.688 31.8641 30.632 32.2001 30.52 32.5921C30.408 32.3681 30.24 32.2001 30.128 31.9761C30.128 31.9201 30.072 31.8641 30.016 31.8641C29.96 31.8641 29.96 31.9201 29.96 31.9761C29.904 32.1441 29.848 32.3681 29.736 32.5921C29.568 32.3681 29.456 32.1441 29.344 31.9761C29.288 31.9201 29.344 31.8641 29.344 31.8641C29.4 31.5281 29.456 31.2481 29.512 30.9121Z" fill="white"/>
<path d="M25.48 32.5361C25.368 32.1441 25.312 31.8081 25.2 31.4721C25.2 31.4161 25.2 31.3041 25.256 31.2481C25.424 31.0801 25.592 30.9121 25.816 30.7441C25.872 30.9121 25.928 31.1361 25.984 31.3041C25.984 31.3601 25.984 31.4161 26.04 31.4161C26.096 31.4161 26.152 31.3601 26.152 31.3041C26.264 31.1361 26.376 31.0241 26.488 30.8001C26.544 31.1361 26.6 31.4721 26.656 31.7521C26.656 31.8081 26.6 31.8641 26.6 31.9201C26.488 32.0881 26.376 32.2561 26.264 32.4801C26.208 32.2561 26.096 32.0321 26.04 31.8641C26.04 31.8081 26.04 31.7521 25.984 31.7521C25.928 31.7521 25.928 31.8081 25.872 31.8641C25.76 32.1441 25.648 32.3121 25.48 32.5361Z" fill="white"/>
<path d="M29.344 32.0881C29.456 32.2561 29.568 32.4801 29.736 32.6481C29.736 32.7041 29.792 32.7601 29.848 32.7041C29.904 32.7041 29.904 32.6481 29.904 32.5921C29.96 32.3681 30.016 32.2001 30.128 31.9761C30.24 32.2001 30.408 32.4241 30.52 32.5921C30.576 32.6481 30.576 32.7041 30.52 32.7601C30.464 32.9281 30.464 33.0401 30.408 33.2081C30.408 33.2641 30.408 33.3761 30.296 33.3761C30.184 33.3761 30.184 33.3201 30.184 33.2641C30.128 33.1521 30.072 33.0401 30.016 32.9841C29.96 32.9281 29.904 32.9281 29.904 32.9841C29.848 33.0961 29.848 33.2081 29.792 33.3201C29.792 33.4321 29.68 33.4881 29.568 33.4881C29.344 33.5441 29.288 33.4321 29.232 33.2641C29.064 32.8721 29.232 32.4801 29.344 32.0881Z" fill="white"/>
<path d="M26.712 32.0323C26.768 32.4803 26.992 32.9283 26.824 33.3203C26.824 33.3763 26.824 33.4883 26.712 33.4323C26.6 33.3763 26.432 33.4883 26.376 33.3203C26.376 33.2643 26.32 33.1523 26.32 33.0963C26.264 33.0403 26.32 32.8723 26.208 32.8723C26.152 32.8723 26.096 32.9843 26.04 33.0403C25.984 33.0963 25.928 33.2083 25.928 33.2643C25.928 33.3203 25.872 33.3763 25.816 33.3203C25.76 33.3203 25.76 33.2643 25.76 33.2083C25.704 33.0403 25.648 32.8723 25.592 32.6483C25.592 32.5923 25.592 32.5363 25.648 32.4803C25.76 32.3123 25.872 32.0883 26.04 31.8643C26.096 32.0883 26.152 32.2563 26.264 32.4803C26.264 32.5363 26.264 32.5923 26.32 32.5923C26.376 32.5923 26.432 32.5363 26.432 32.4803C26.432 32.4803 26.544 32.2563 26.712 32.0323Z" fill="white"/>
<path d="M27.776 31.5841C27.776 32.0321 27.776 32.4801 27.72 32.8721C27.664 33.1521 27.888 33.2641 28 33.4881C28 33.5441 28.056 33.5441 28.056 33.4881C28.168 33.3201 28.392 33.1521 28.336 32.8721C28.28 32.4801 28.28 32.0321 28.28 31.5841C28.28 31.5281 28.224 31.4721 28.336 31.5281C28.392 32.0321 28.504 32.5361 28.56 33.0401C28.56 33.2081 28.728 33.2081 28.784 33.3201C28.84 33.3761 28.896 33.3761 29.12 33.2081C29.12 33.2641 29.12 33.3201 29.176 33.3201C29.232 33.4321 29.176 33.4881 29.008 33.4881C28.672 33.4321 28.392 33.5441 28.168 33.8241C28.112 33.9361 28.056 33.8801 27.944 33.7681C27.776 33.5441 27.552 33.3761 27.216 33.4321C26.936 33.4881 26.936 33.4321 27.048 33.1521C27.16 33.2081 27.216 33.4321 27.384 33.2641C27.496 33.1521 27.608 33.0961 27.608 32.9281C27.552 32.4801 27.664 32.0321 27.776 31.5841C27.776 31.5281 27.776 31.5281 27.776 31.5841Z" fill="white"/>
<path d="M30.184 30.0163C30.016 29.8483 29.848 29.6803 29.68 29.5123C29.624 29.5123 29.624 29.4563 29.624 29.4003C29.68 28.9523 29.624 28.5043 29.96 28.1123C30.072 28.6163 30.24 29.0643 30.352 29.5683C30.352 29.6803 30.24 29.8483 30.184 30.0163Z" fill="white"/>
<path d="M26.096 28.1123C26.432 28.5043 26.376 28.9523 26.432 29.4003C26.432 29.4563 26.376 29.5123 26.376 29.5123C26.264 29.6243 26.096 29.7363 25.984 29.9043C25.928 30.0163 25.872 29.9603 25.816 29.8483C25.704 29.6803 25.704 29.4563 25.76 29.2883C25.872 28.8963 25.984 28.5043 26.096 28.1123Z" fill="white"/>
<path d="M30.52 26.4884C30.576 27.7764 30.632 29.0644 30.688 30.4084C30.576 30.0724 30.408 29.7364 30.408 29.4004C30.352 28.7844 30.352 28.1684 30.352 27.5524C30.352 27.2164 30.408 26.9364 30.464 26.6004C30.464 26.5444 30.464 26.4324 30.52 26.4884Z" fill="white"/>
<path d="M25.536 26.5444C25.648 26.9364 25.704 27.2724 25.648 27.6644C25.592 28.0564 25.592 28.3924 25.592 28.7844C25.592 29.3444 25.48 29.8484 25.312 30.3524C25.2 30.2964 25.256 30.2404 25.256 30.1844C25.312 28.9524 25.368 27.7204 25.424 26.5444C25.48 26.4884 25.536 26.5444 25.536 26.5444Z" fill="white"/>
<path d="M25.144 31.6401C25.256 31.9761 25.312 32.2561 25.424 32.5921C25.424 32.6481 25.424 32.7041 25.368 32.7601C25.256 32.8721 25.2 32.9841 25.088 33.1521C25.032 33.2641 24.92 33.3201 24.808 33.2641C24.696 33.2081 24.696 33.2081 24.696 33.0961C24.808 32.5921 24.92 32.1441 25.144 31.6401C25.088 31.6401 25.088 31.6401 25.144 31.6401Z" fill="white"/>
<path d="M30.912 31.6401C31.024 32.1441 31.192 32.5921 31.304 33.0961C31.304 33.1521 31.304 33.2081 31.248 33.2081C31.136 33.2081 31.08 33.3201 30.968 33.2081C30.856 33.0401 30.744 32.8721 30.632 32.7041C30.632 32.6481 30.576 32.6481 30.632 32.5921C30.688 32.2561 30.8 31.9761 30.912 31.6401Z" fill="white"/>
<path d="M30.24 33.5444C30.184 33.6004 30.128 33.6564 30.128 33.7684C30.128 34.0484 29.96 34.0484 29.792 34.0484C29.512 34.0484 29.176 34.0484 28.896 34.0484C28.784 34.0484 28.672 33.9924 28.616 33.8804C28.56 33.8244 28.504 33.8244 28.56 33.7124C28.56 33.6004 28.616 33.6004 28.728 33.6004C28.896 33.6004 29.12 33.6004 29.288 33.6004C29.568 33.6004 29.848 33.5444 30.072 33.5444C30.128 33.5444 30.184 33.5444 30.24 33.5444Z" fill="#FFFFFD"/>
<path d="M25.928 33.5444C26.32 33.6004 26.768 33.6004 27.216 33.6004C27.328 33.6004 27.496 33.6004 27.552 33.7124C27.552 33.7684 27.384 33.9924 27.272 33.9924C26.936 34.0484 26.6 33.9924 26.264 33.9924C26.208 33.9924 26.152 33.9924 26.152 33.9924C26.04 33.9924 25.984 33.9924 25.984 33.8804C25.984 33.7684 25.928 33.6564 25.816 33.5444C25.816 33.5444 25.872 33.5444 25.928 33.5444Z" fill="#FFFFFD"/>
<path d="M25.592 33.5441C25.536 33.6001 25.424 33.6001 25.424 33.7121C25.368 33.8801 25.256 33.8801 25.144 33.8241C24.808 33.7681 24.472 33.6561 24.192 33.6001C23.968 33.5441 24.024 33.3761 24.024 33.2641C24.024 33.0961 24.136 33.0961 24.248 33.1521C24.696 33.3201 25.144 33.4321 25.592 33.5441Z" fill="#FFFFFD"/>
<path d="M30.408 33.4883C30.856 33.3763 31.36 33.3203 31.808 33.1523C31.92 33.0963 31.976 33.1523 31.976 33.2643C31.976 33.3763 32.088 33.5443 31.92 33.6003C31.528 33.7123 31.136 33.7683 30.744 33.8803C30.688 33.8803 30.632 33.8803 30.632 33.7683C30.632 33.6563 30.52 33.6003 30.408 33.4883C30.408 33.5443 30.408 33.5443 30.408 33.4883Z" fill="#FFFFFD"/>
<path d="M29.4 30.3525C29.232 30.1285 29.064 29.9045 28.896 29.6805C28.84 29.6245 28.84 29.6245 28.896 29.5685C28.952 29.5125 29.008 29.4565 29.008 29.4005C29.064 29.3445 29.12 29.1765 29.232 29.2325C29.344 29.2885 29.512 29.4005 29.456 29.6245C29.4 29.8485 29.4 30.0725 29.4 30.3525Z" fill="#FFFFFD"/>
<path d="M26.6 30.3524C26.544 30.0724 26.544 29.8484 26.544 29.5684C26.544 29.4564 26.712 29.2324 26.824 29.2324C26.88 29.2324 26.88 29.2884 26.936 29.2884C27.216 29.6244 27.216 29.6244 26.992 29.9604C26.824 30.0724 26.712 30.2404 26.6 30.3524Z" fill="#FFFFFD"/>
<path d="M27.328 30.9121C27.272 30.6321 27.16 30.3521 27.104 30.0721C27.048 29.9601 27.16 29.8481 27.272 29.7921C27.328 29.7361 27.384 29.8481 27.44 29.9041C27.608 30.0161 27.608 30.1281 27.552 30.2961C27.44 30.4641 27.384 30.6881 27.328 30.9121Z" fill="#FDFEFC"/>
<path d="M28.672 30.9125C28.616 30.6325 28.56 30.4085 28.504 30.1285C28.504 30.0725 28.728 29.7925 28.784 29.7925C28.84 29.7925 29.008 30.0165 29.008 30.0725C28.84 30.3525 28.784 30.6325 28.672 30.9125Z" fill="#FDFEFC"/>
<path d="M28.784 31.3603C28.84 31.4163 28.896 31.5283 28.952 31.5843C29.288 31.9203 29.12 32.2563 29.008 32.5923C28.952 32.2003 28.84 31.8083 28.784 31.3603C28.728 31.3603 28.784 31.3043 28.784 31.3603Z" fill="#FDFCFA"/>
<path d="M27.216 31.3603C27.104 31.7523 27.048 32.1443 26.936 32.5923C26.768 32.3123 26.768 31.9203 26.936 31.6963C27.048 31.5843 27.104 31.4723 27.216 31.3603C27.216 31.3043 27.272 31.3603 27.216 31.3603Z" fill="#FDFDFB"/>
<path d="M25.48 33.8803C25.48 33.7683 25.536 33.6562 25.704 33.6562C25.872 33.6562 25.872 33.8243 25.872 33.9363C25.872 34.1043 25.76 34.2163 25.648 34.2163C25.536 34.2163 25.424 34.0483 25.48 33.8803Z" fill="#FDFCFA"/>
<path d="M30.184 33.9363C30.184 33.8243 30.184 33.6562 30.352 33.6562C30.464 33.6562 30.576 33.7683 30.576 33.8803C30.576 33.9923 30.52 34.1603 30.408 34.1603C30.296 34.2163 30.184 34.0483 30.184 33.9363Z" fill="#FDFCFA"/>
<path d="M30.576 32.8159C30.688 32.9839 30.8 33.1519 30.912 33.2639V33.3199C30.744 33.3759 30.52 33.4319 30.464 33.3759C30.408 33.2079 30.52 33.0399 30.576 32.8159Z" fill="#FDFCF9"/>
<path d="M25.424 32.8159C25.48 33.0399 25.536 33.2079 25.592 33.3759C25.424 33.3199 25.256 33.3199 25.088 33.2639C25.2 33.1519 25.312 32.9839 25.424 32.8159Z" fill="#FCFCF7"/>
<path d="M28.168 34.0481C28.168 33.9361 28.168 33.7681 28.28 33.7681C28.392 33.7681 28.448 33.9361 28.504 34.0481C28.504 34.0481 28.224 34.3281 28.224 34.2721C28.168 34.2161 28.224 34.1041 28.168 34.0481Z" fill="#FDFCFA"/>
<path d="M27.72 34.3283C27.664 34.2723 27.664 34.2723 27.608 34.2723C27.384 34.1043 27.328 33.9923 27.608 33.7683C27.664 33.7123 27.72 33.7683 27.72 33.8243C27.832 33.9923 27.832 34.1603 27.72 34.3283Z" fill="#FDFCF9"/>
<path d="M32.144 33.2642C32.368 33.3202 32.48 33.4322 32.48 33.7122C32.144 33.6562 32.144 33.6002 32.144 33.2642Z" fill="#FCFCF7"/>
<path d="M23.52 33.7683C23.52 33.5443 23.576 33.3763 23.744 33.2643C23.8 33.2083 23.856 33.2083 23.856 33.3203C23.856 33.4883 23.856 33.6563 23.632 33.6563C23.576 33.7123 23.576 33.7123 23.52 33.7683Z" fill="#FCFCF7"/>
<path d="M29.512 29.344C29.288 29.176 29.288 29.176 29.4 28.952C29.456 28.896 29.512 28.84 29.568 28.728C29.512 28.952 29.568 29.12 29.512 29.344Z" fill="#FAF7EF"/>
<path d="M26.488 28.7842C26.544 28.8402 26.6 28.8962 26.6 28.9522C26.768 29.1762 26.768 29.1762 26.544 29.3442C26.488 29.2322 26.488 29.0642 26.488 28.9522C26.432 28.8962 26.432 28.8402 26.488 28.7842Z" fill="#FCF9F2"/>
<path d="M29.848 33.0962C29.904 33.2082 29.96 33.3202 30.016 33.4322C29.904 33.4322 29.792 33.5442 29.736 33.4882C29.736 33.3762 29.848 33.2642 29.848 33.0962Z" fill="#F8F3E6"/>
<path d="M26.152 33.0962C26.208 33.2082 26.264 33.3202 26.208 33.4322C26.152 33.4882 26.04 33.4322 25.928 33.4322C25.984 33.3202 26.04 33.2082 26.152 33.0962Z" fill="#F9F6EA"/>
<path d="M27.888 20.2163C27.944 20.2163 28 20.2723 28 20.3283C28 20.3843 27.944 20.4403 27.888 20.4403C27.832 20.4403 27.776 20.3843 27.776 20.3283C27.776 20.2723 27.832 20.2163 27.888 20.2163Z" fill="#F8F5E8"/>
<path d="M28.28 31.5281C28.28 31.5281 28.28 31.5841 28.224 31.5841C28.168 31.4161 28.168 31.2481 28.168 31.0801C28.168 31.0801 28.168 31.0801 28.224 31.0801C28.224 31.3041 28.28 31.4161 28.28 31.5281Z" fill="#E8D6A1"/>
<path d="M27.776 31.5842C27.776 31.5842 27.72 31.5842 27.776 31.5842C27.72 31.4162 27.776 31.2482 27.776 31.1362C27.776 31.1362 27.776 31.1362 27.832 31.1362C27.776 31.3042 27.832 31.4162 27.776 31.5842Z" fill="#E9D8A4"/>
<path d="M25.312 30.1841C25.368 30.2401 25.312 30.2961 25.368 30.3521C25.368 30.4081 25.312 30.4641 25.312 30.5201C25.256 30.4081 25.256 30.2961 25.312 30.1841Z" fill="#DAC16E"/>
<path d="M25.592 33.5444C25.704 33.4884 25.816 33.4884 25.928 33.5444C25.872 33.5444 25.816 33.5444 25.76 33.5444C25.704 33.5444 25.648 33.5444 25.592 33.5444Z" fill="#EBDEB2"/>
<path d="M30.52 26.4882L30.464 26.5442C30.464 26.4882 30.52 26.3762 30.52 26.2642C30.52 26.3762 30.52 26.4322 30.52 26.4882Z" fill="#EDE1BB"/>
<path d="M30.408 33.4883C30.408 33.5443 30.408 33.5443 30.408 33.4883C30.352 33.5443 30.296 33.5443 30.24 33.5443C30.184 33.5443 30.128 33.5443 30.128 33.5443C30.184 33.4883 30.296 33.5443 30.408 33.4883Z" fill="#EDE0B8"/>
<path d="M25.536 26.5443C25.536 26.5443 25.48 26.5443 25.48 26.4883C25.48 26.4323 25.48 26.3763 25.48 26.3203C25.536 26.4323 25.536 26.4883 25.536 26.5443Z" fill="#F2EAD0"/>
<path d="M28.224 31.1363C28.168 31.0803 28.112 31.0243 28.168 30.9683C28.224 31.0243 28.224 31.0803 28.224 31.1363Z" fill="#CBA62C"/>
<path d="M27.776 31.1363C27.72 31.0803 27.776 31.0243 27.776 30.9683C27.832 31.0243 27.776 31.0803 27.776 31.1363Z" fill="#CBA62D"/>
<path d="M26.488 28.7842C26.488 28.8402 26.488 28.8962 26.488 28.8962C26.432 28.8962 26.432 28.8402 26.488 28.7842C26.432 28.7282 26.488 28.7842 26.488 28.7842Z" fill="#E8D8A6"/>
<path d="M27.216 31.3601C27.16 31.248 27.216 31.248 27.216 31.248C27.272 31.304 27.272 31.3601 27.216 31.3601Z" fill="#ECDFB5"/>
<path d="M28.784 31.3601C28.728 31.3601 28.672 31.304 28.728 31.248C28.784 31.248 28.784 31.304 28.784 31.3601Z" fill="#ECDFB5"/>
<path d="M30.072 35.5042C30.072 35.4482 30.128 35.4482 30.184 35.4482C30.24 35.4482 30.296 35.3922 30.296 35.3362C30.296 35.2802 30.24 35.2802 30.184 35.2802C30.072 35.2802 30.072 35.2242 30.072 35.1682C30.072 35.0002 30.184 34.9442 30.296 34.8882C30.408 34.8322 30.352 34.9442 30.408 35.0002C30.408 35.0562 30.464 35.0562 30.464 35.0562C30.52 35.0562 30.52 35.0002 30.52 34.9442C30.52 34.8882 30.576 34.7762 30.632 34.7762C30.688 34.7202 30.744 34.6642 30.688 34.6082C30.632 34.5522 30.688 34.4962 30.744 34.4402C30.8 34.3842 30.8 34.4962 30.856 34.5522C30.856 34.6642 30.912 34.7202 31.024 34.7202C31.08 34.7202 31.136 34.7762 31.136 34.8322C31.192 34.9442 31.248 34.9442 31.36 34.8322C31.416 34.7202 31.528 34.6642 31.64 34.7762C31.696 34.8322 31.696 34.8322 31.752 34.7762C31.808 34.7202 31.752 34.7202 31.752 34.6642C31.752 34.5522 31.696 34.4962 31.696 34.3842C31.64 34.2722 31.64 34.0482 31.416 34.1602C31.36 34.2162 31.304 34.1602 31.304 34.1042C31.304 34.0482 31.36 34.0482 31.36 33.9922C31.584 33.9362 31.752 33.9922 31.808 34.2722C31.808 34.3842 31.808 34.4402 31.864 34.5522C31.92 34.6642 31.976 34.7762 32.088 34.6642C32.144 34.6082 32.256 34.6642 32.256 34.7202C32.312 34.8322 32.2 34.8322 32.144 34.8322C31.92 34.8882 31.752 34.9442 31.584 35.0562C31.472 35.1682 31.36 35.0002 31.248 35.0562C31.136 35.1122 31.192 35.2802 31.08 35.3362C31.024 35.3922 30.912 35.3362 30.856 35.2802C30.688 35.1122 30.52 35.1682 30.352 35.3362C30.296 35.5042 30.24 35.5042 30.072 35.5042Z" fill="#BE942D"/>
<path d="M26.544 35.5604C26.88 35.5044 26.88 35.4484 26.768 35.1124C26.768 35.0564 26.768 35.0004 26.824 34.9444C26.88 34.8884 26.88 35.0004 26.936 35.0004C26.936 35.0564 26.936 35.0564 26.992 35.1124C26.992 35.1684 27.048 35.2244 27.104 35.1684C27.16 35.1684 27.16 35.1124 27.16 35.0564C27.16 35.0004 27.16 34.9444 27.16 34.8884C27.16 34.8324 27.16 34.7764 27.216 34.7764C27.272 34.7764 27.328 34.7764 27.328 34.7764C27.384 34.9444 27.496 34.8884 27.608 34.9444C27.664 34.9444 27.664 34.9444 27.72 34.9444C27.888 34.9444 28.112 34.8884 28.112 35.2804C28.224 35.0564 28.28 35.0004 28.448 34.9444C28.504 34.9444 28.56 34.9444 28.56 35.0004C28.672 35.2804 28.616 35.3924 28.336 35.3924C28.224 35.3924 28.112 35.3924 28.056 35.5044C28 35.6164 27.832 35.6164 27.776 35.5044C27.608 35.3364 27.16 35.2804 26.992 35.4484C26.824 35.6724 26.712 35.6724 26.544 35.5604Z" fill="#BE942D"/>
<path d="M24.864 35.2799C25.088 35.2239 25.2 35.1119 25.088 34.8879C25.088 34.8319 25.088 34.7199 25.144 34.7199C25.2 34.7199 25.2 34.7759 25.2 34.8319C25.2 34.9439 25.256 35.0559 25.424 35.0559C25.48 35.0559 25.48 35.0559 25.536 34.9999C25.536 34.9439 25.536 34.9439 25.48 34.9439C25.312 34.8879 25.368 34.8319 25.48 34.7759H25.536C25.648 34.7759 25.648 34.5519 25.816 34.6079C25.928 34.6639 25.928 34.8319 25.984 34.8879C26.04 34.9439 25.984 34.9999 25.928 34.9999C25.872 34.9999 25.872 34.9999 25.872 35.0559C25.872 35.1119 25.872 35.1119 25.928 35.1119C25.984 35.1119 26.04 35.1119 26.04 35.2239C26.04 35.2799 26.04 35.3359 26.096 35.3359C26.152 35.3359 26.152 35.2799 26.152 35.2239C26.152 34.9999 26.264 34.7759 26.208 34.5519C26.208 34.4399 26.32 34.4959 26.376 34.4399C26.32 34.7759 26.32 35.1119 26.208 35.4479C26.208 35.5599 26.096 35.5599 26.04 35.5599C25.928 35.5599 25.928 35.5039 25.872 35.3919C25.816 35.2799 25.76 35.1119 25.536 35.2239C25.48 35.2239 25.424 35.2239 25.368 35.2239C25.256 35.2239 25.2 35.2239 25.144 35.2799C25.088 35.3359 24.976 35.3359 24.864 35.2799Z" fill="#BE952D"/>
<path d="M24.584 34.4402C24.64 34.5522 24.528 34.6082 24.528 34.6642C24.528 34.7202 24.472 34.7762 24.528 34.8322C24.584 34.8882 24.64 34.8882 24.752 34.8882C24.808 34.8322 24.808 34.7762 24.808 34.7202C24.752 34.5522 24.92 34.6082 24.976 34.4962C24.976 34.7202 24.92 34.8322 24.92 35.0002C24.92 35.0562 24.864 35.0562 24.808 35.0562C24.528 35.0002 24.192 34.8882 23.912 34.8322C23.856 34.8322 23.8 34.7762 23.856 34.7202C23.856 34.6082 23.912 34.5522 24.024 34.4962C24.192 34.4962 24.248 34.3282 24.248 34.2162C24.248 34.1042 24.248 34.1042 24.136 34.1042C24.08 34.1042 24.024 34.1602 23.968 34.1042C23.968 33.9922 24.024 34.0482 24.08 34.0482C24.192 34.1042 24.304 33.9362 24.36 34.0482C24.416 34.1042 24.304 34.2162 24.304 34.3282C24.304 34.4402 24.248 34.4962 24.248 34.6082C24.248 34.6642 24.192 34.7762 24.304 34.7762C24.416 34.7762 24.472 34.7202 24.416 34.6642C24.416 34.4962 24.472 34.4962 24.584 34.4402Z" fill="#BE952D"/>
<path d="M28.784 35.3361C28.784 35.2241 28.784 35.1681 28.84 35.1121C29.064 35.0001 28.952 34.8321 28.952 34.6641C28.952 34.6081 28.896 34.5521 28.952 34.5521C28.952 34.5521 29.008 34.4961 29.064 34.4961C29.12 34.4961 29.12 34.5521 29.12 34.6081C29.12 34.7761 29.176 34.9441 29.176 35.1121C29.176 35.1681 29.176 35.2241 29.232 35.2241C29.288 35.2241 29.344 35.2241 29.344 35.1681C29.4 35.1121 29.344 35.0561 29.344 35.0001C29.344 34.9441 29.232 34.9441 29.344 34.8881C29.4 34.8881 29.4 34.8321 29.456 34.8321C29.512 34.8321 29.512 34.8881 29.512 34.9441C29.568 35.2801 29.568 35.2801 29.176 35.3361C29.064 35.3361 29.008 35.3361 28.896 35.3921C28.784 35.4481 28.728 35.4481 28.784 35.3361Z" fill="#C0962D"/>
<path d="M29.512 35.5602C29.736 35.3922 29.736 35.3922 29.624 35.1122C29.568 35.0002 29.68 34.9442 29.68 34.8882C29.848 35.0002 29.96 35.2802 29.848 35.3922C29.848 35.5042 29.736 35.5602 29.512 35.5602Z" fill="#C2992D"/>
<path d="M26.544 34.4399C26.656 34.4959 26.712 34.5519 26.656 34.7199C26.6 34.8879 26.6 35.0559 26.6 35.2239C26.6 35.2799 26.6 35.3359 26.544 35.3359C26.432 35.3359 26.488 35.2799 26.488 35.2239C26.488 34.9439 26.544 34.7199 26.544 34.4399Z" fill="#C0962D"/>
<path d="M29.064 35.5043C29.12 35.5603 29.288 35.3923 29.288 35.5603C29.288 35.7283 29.12 35.5603 29.064 35.6163C29.008 35.6723 29.008 35.6723 28.952 35.6163C28.952 35.5603 28.952 35.5603 28.952 35.5043C28.952 35.5043 29.008 35.5043 29.064 35.5043Z" fill="#C49C2D"/>
<path d="M31.92 35.168C31.864 35.168 31.864 35.168 31.864 35.112C31.864 35.056 31.92 35 31.976 35C32.032 35 32.032 35.056 32.032 35.056C32.032 35.168 31.976 35.168 31.92 35.168Z" fill="#C59E2D"/>
<path d="M24.024 34.2725C24.08 34.2725 24.08 34.3285 24.08 34.3285C24.08 34.3845 24.024 34.3845 23.968 34.3845C23.912 34.3845 23.912 34.3285 23.912 34.3285C23.968 34.2725 23.968 34.2725 24.024 34.2725Z" fill="#C59D2D"/>
<path d="M28.84 34.6644C28.84 34.7204 28.784 34.7204 28.728 34.7204C28.672 34.7204 28.672 34.6644 28.672 34.6644C28.672 34.6084 28.728 34.6084 28.728 34.6084C28.784 34.6084 28.84 34.6084 28.84 34.6644Z" fill="#C59E2D"/>
<path d="M28.84 34.8885C28.84 34.9445 28.784 34.9445 28.728 34.9445C28.672 34.9445 28.672 34.8885 28.672 34.8885C28.672 34.8325 28.728 34.8325 28.728 34.8325C28.84 34.8325 28.84 34.8325 28.84 34.8885Z" fill="#C39C2D"/>
<path d="M24.248 35.1682C24.192 35.1682 24.136 35.1682 24.136 35.1122C24.136 35.0562 24.136 35.0562 24.192 35.0562C24.248 35.0562 24.248 35.0562 24.248 35.1122C24.36 35.1122 24.304 35.1122 24.248 35.1682Z" fill="#D0AF41"/>
<path d="M24.696 35.2243C24.696 35.2803 24.64 35.2803 24.584 35.2803C24.528 35.2803 24.528 35.2243 24.528 35.1683C24.528 35.1123 24.584 35.1123 24.64 35.1123C24.696 35.1683 24.696 35.1683 24.696 35.2243Z" fill="#C39C2D"/>
<path d="M24.08 35.1125C24.024 35.1125 23.968 35.1125 23.968 35.0565C23.968 35.0005 23.968 35.0005 24.024 35.0005C24.08 34.9445 24.08 35.0005 24.08 35.1125C24.08 35.0565 24.08 35.1125 24.08 35.1125Z" fill="#C39C2D"/>
<path d="M27.16 29.2881C26.432 28.4481 25.984 27.4961 25.76 26.4321C25.704 26.0961 25.648 25.7041 25.648 25.3681C25.648 25.3121 25.592 25.2561 25.704 25.2561C26.208 25.2561 26.712 25.0881 27.216 24.9761C27.272 24.9761 27.272 24.9761 27.272 25.0321C27.272 26.3761 27.272 27.7201 27.272 29.0641C27.272 29.1201 27.272 29.1761 27.272 29.2321C27.216 29.2321 27.216 29.2881 27.16 29.2881Z" fill="#BE932D"/>
<path d="M28.784 24.9204C29.288 25.0324 29.736 25.2004 30.24 25.2004C30.408 25.2004 30.352 25.3124 30.352 25.3684C30.352 26.2084 30.128 27.0484 29.792 27.8324C29.568 28.3364 29.232 28.8404 28.84 29.2884C28.728 29.2324 28.728 29.1204 28.728 29.0644C28.728 28.4484 28.728 27.8324 28.728 27.2164C28.728 26.4884 28.728 25.7604 28.728 25.0324C28.728 24.9764 28.728 24.9204 28.784 24.9204Z" fill="#BD942E"/>
<path d="M28.784 24.9761C28.84 25.0321 28.784 25.1441 28.784 25.2001C28.784 26.4881 28.784 27.7761 28.784 29.0641C28.784 29.1201 28.728 29.2321 28.84 29.2881C28.672 29.5121 28.448 29.7361 28.224 29.9041C28.168 29.9041 28.168 29.8481 28.168 29.7921C28.224 29.6801 28.336 29.5681 28.448 29.5121C28.616 29.3441 28.672 29.1761 28.672 28.9521C28.672 27.7201 28.672 26.5441 28.672 25.3121C28.728 25.2561 28.672 25.1441 28.784 24.9761C28.728 24.9761 28.784 24.9761 28.784 24.9761Z" fill="#C69F2D"/>
<path d="M27.216 24.976C27.216 24.976 27.216 24.92 27.216 24.976C27.44 24.808 27.72 24.752 27.944 24.584C28 24.528 28.056 24.584 28.112 24.584C28.168 24.64 28.28 24.696 28.336 24.752C28.336 24.808 28.28 24.808 28.28 24.808C28.112 24.696 27.888 24.752 27.72 24.864C27.552 24.92 27.44 25.032 27.216 24.976Z" fill="#CAA52D"/>
<path d="M27.16 29.2881C27.16 29.2881 27.16 29.2321 27.16 29.2881C27.44 29.4001 27.664 29.6241 27.832 29.8481C27.832 29.9041 27.832 29.9041 27.776 29.9041C27.552 29.7361 27.328 29.5121 27.16 29.2881Z" fill="#C59E2D"/>
<path d="M27.776 29.9041C27.776 29.9041 27.776 29.8481 27.776 29.9041L28.224 29.8481C28.224 29.8481 28.224 29.8481 28.28 29.9041C27.944 30.1281 28.056 30.1281 27.776 29.9041Z" fill="#C59E2D"/>
<path d="M28.784 24.9204C28.784 24.9764 28.784 24.9764 28.784 24.9204C28.784 24.9764 28.784 24.9764 28.784 24.9204C28.616 24.9764 28.448 24.9204 28.392 24.8084C28.392 24.7524 28.392 24.7524 28.448 24.7524C28.56 24.8644 28.672 24.8644 28.784 24.9204Z" fill="#CEAB37"/>
<path d="M28.448 24.8084C28.448 24.8084 28.392 24.8084 28.448 24.8084C28.336 24.8644 28.28 24.8644 28.28 24.8084C28.28 24.8084 28.336 24.8084 28.336 24.7524C28.392 24.7524 28.392 24.7524 28.448 24.8084Z" fill="#C8A22D"/>
<path d="M30.016 33.8242C29.792 33.8242 29.624 33.8242 29.456 33.8242C29.624 33.6562 29.848 33.6562 30.016 33.8242Z" fill="#C0962D"/>
<path d="M29.232 33.8802C29.064 33.9362 28.896 33.8802 28.728 33.8242C28.896 33.7122 29.064 33.7682 29.232 33.8802Z" fill="#C59D2D"/>
<path d="M25.984 33.8242C26.152 33.6562 26.376 33.6562 26.544 33.8242C26.32 33.8242 26.152 33.8242 25.984 33.8242Z" fill="#C0962D"/>
<path d="M27.328 33.7683C27.16 33.8803 26.992 33.8243 26.824 33.8803C26.768 33.8803 26.768 33.8803 26.768 33.8803C26.768 33.8243 26.768 33.8243 26.824 33.8243C26.936 33.7683 27.104 33.7123 27.328 33.7683Z" fill="#C8A22D"/>
<path d="M25.312 33.6563C25.144 33.6563 24.92 33.6003 24.752 33.4883C24.976 33.4883 25.144 33.5443 25.312 33.6563Z" fill="#C8A12D"/>
<path d="M24.528 33.4323C24.36 33.4323 24.248 33.3763 24.08 33.3203C24.248 33.2643 24.416 33.3203 24.528 33.4323Z" fill="#C59F2D"/>
<path d="M31.248 33.5444C31.08 33.6564 30.856 33.6564 30.688 33.7124C30.8 33.5444 31.024 33.4884 31.248 33.5444Z" fill="#C8A22D"/>
<path d="M31.472 33.4883C31.584 33.3203 31.752 33.3203 31.92 33.3203C31.808 33.4323 31.64 33.4323 31.472 33.4883Z" fill="#C69F2D"/>
<path d="M30.744 35.0563C30.688 35.0563 30.632 35.0563 30.632 35.0003C30.632 34.9443 30.632 34.9443 30.688 34.9443C30.744 34.9443 30.744 35.0003 30.744 35.0563Z" fill="#F0E6C6"/>
<path d="M30.968 35.0002C30.968 35.0002 30.968 35.0562 30.968 35.0002C30.856 35.0562 30.856 35.0002 30.856 34.9442C30.856 34.8882 30.856 34.8882 30.912 34.8882C30.968 34.9442 30.968 34.9442 30.968 35.0002Z" fill="#F9F5EA"/>
<path d="M31.472 34.9443C31.528 34.9443 31.528 34.9443 31.528 35.0003L31.472 35.0563C31.416 35.0563 31.416 35.0563 31.416 35.0003C31.36 34.9443 31.416 34.9443 31.472 34.9443Z" fill="#F0E6C7"/>
<path d="M31.08 35.1685C31.08 35.2245 31.024 35.2245 31.024 35.2245C30.968 35.2245 30.968 35.2245 30.968 35.1685C30.968 35.1685 30.968 35.1685 31.08 35.1685C31.024 35.1685 31.08 35.1685 31.08 35.1685Z" fill="#E8D8A6"/>
<path d="M30.184 35.1682C30.184 35.1682 30.128 35.1682 30.184 35.1682C30.128 35.1122 30.184 35.1122 30.184 35.0562C30.24 35.0562 30.24 35.0562 30.184 35.1682C30.24 35.1682 30.24 35.1682 30.184 35.1682Z" fill="#EEE4C2"/>
<path d="M27.888 35.5045C27.832 35.2245 27.608 35.2805 27.44 35.2805C27.384 35.2805 27.272 35.2805 27.272 35.2245C27.272 35.1685 27.384 35.1685 27.44 35.1685C27.496 35.1685 27.608 35.1685 27.664 35.1685C27.944 35.1685 27.944 35.2805 27.888 35.5045Z" fill="#F9F6EB"/>
<path d="M25.872 34.8324C25.872 34.8884 25.872 34.8884 25.816 34.8884C25.76 34.8884 25.704 34.8884 25.76 34.8324L25.816 34.7764C25.872 34.7764 25.816 34.8324 25.872 34.8324Z" fill="#FCF9F1"/>
<path d="M28.952 35.2241C28.952 35.2241 29.008 35.2241 28.952 35.2241C29.008 35.2801 29.008 35.2801 28.952 35.2801C28.952 35.2801 28.896 35.2801 28.952 35.2241C28.896 35.2241 28.952 35.2241 28.952 35.2241Z" fill="#F3EAD0"/>
<path d="M28.28 24.7525C28.336 24.7525 28.336 24.8085 28.392 24.8085C28.504 24.8645 28.616 24.9205 28.784 24.9765C28.784 25.0325 28.784 25.1445 28.784 25.2005C28.784 26.4885 28.784 27.7205 28.784 29.0085C28.784 29.1765 28.728 29.3445 28.616 29.4565C28.504 29.5685 28.336 29.6805 28.224 29.8485C28.112 30.0165 27.944 30.0165 27.832 29.8485C27.608 29.6245 27.384 29.4565 27.216 29.2325C27.216 27.8885 27.216 26.5445 27.216 25.2005C27.216 25.1445 27.216 25.0325 27.272 24.9765C27.44 24.9205 27.608 24.8645 27.776 24.7525C27.944 24.6405 28.112 24.6405 28.28 24.7525Z" fill="white"/>
</g>
</svg>