<svg width="56" height="56" viewBox="0 0 56 56" fill="none" xmlns="http://www.w3.org/2000/svg">
<mask id="mask0" mask-type="alpha" maskUnits="userSpaceOnUse" x="0" y="0" width="56" height="56">
<path d="M55.5 28C55.5 43.1878 43.1878 55.5 28 55.5C12.8122 55.5 0.5 43.1878 0.5 28C0.5 12.8122 12.8122 0.5 28 0.5C43.1878 0.5 55.5 12.8122 55.5 28Z" fill="white" stroke="black"/>
</mask>
<g mask="url(#mask0)">
<path d="M77.336 52.416H-21.56V56.84H77.336V52.416Z" fill="#CB2027"/>
<path d="M77.336 47.9917H-21.56V52.4157H77.336V47.9917Z" fill="white"/>
<path d="M77.336 43.5679H-21.56V47.9919H77.336V43.5679Z" fill="#CB2027"/>
<path d="M77.336 39.144H-21.56V43.568H77.336V39.144Z" fill="white"/>
<path d="M77.336 34.6641H-21.56V39.0881H77.336V34.6641Z" fill="#CB2027"/>
<path d="M77.336 30.2397H-21.56V34.6637H77.336V30.2397Z" fill="white"/>
<path d="M77.336 25.8159H-21.56V30.2399H77.336V25.8159Z" fill="#CB2027"/>
<path d="M77.336 21.3916H-21.56V25.8156H77.336V21.3916Z" fill="white"/>
<path d="M77.336 16.9678H-21.56V21.3918H77.336V16.9678Z" fill="#CB2027"/>
<path d="M77.336 12.4878H-21.56V16.9118H77.336V12.4878Z" fill="white"/>
<path d="M77.336 8.06396H-21.56V12.488H77.336V8.06396Z" fill="#CB2027"/>
<path d="M77.336 3.63965H-21.56V8.06365H77.336V3.63965Z" fill="white"/>
<path d="M77.336 -0.78418H-21.56V3.63982H77.336V-0.78418Z" fill="#CB2027"/>
<path d="M23.576 -0.78418H-21.56V30.2958H23.576V-0.78418Z" fill="#2B3660"/>
<path d="M0.672035 5.31982L1.06403 6.49582H2.29603L1.28803 7.22382L1.68003 8.39982L0.672035 7.67182L-0.335965 8.39982L0.0560346 7.22382L-0.951965 6.49582H0.280035L0.672035 5.31982Z" fill="white"/>
<path d="M0.672035 10.5278L1.06403 11.7038H2.29603L1.28803 12.4318L1.68003 13.6078L0.672035 12.8798L-0.335965 13.6078L0.0560346 12.4318L-0.951965 11.7038H0.280035L0.672035 10.5278Z" fill="white"/>
<path d="M0.672035 15.7358L1.06403 16.9118H2.29603L1.28803 17.6398L1.68003 18.7598L0.672035 18.0878L-0.335965 18.7598L0.0560346 17.6398L-0.951965 16.9118H0.280035L0.672035 15.7358Z" fill="white"/>
<path d="M0.672035 20.8877L1.06403 22.0637H2.29603L1.28803 22.7917L1.68003 23.9677L0.672035 23.2397L-0.335965 23.9677L0.0560346 22.7917L-0.951965 22.0637H0.280035L0.672035 20.8877Z" fill="white"/>
<path d="M4.31202 2.63184L4.70402 3.80784H5.93602L4.92802 4.53584L5.32002 5.71184L4.31202 4.98384L3.36002 5.71184L3.69602 4.53584L2.74402 3.80784H3.97602L4.31202 2.63184Z" fill="white"/>
<path d="M4.31202 7.78369L4.70402 8.95969H5.93602L4.92802 9.68769L5.32002 10.8637L4.31202 10.1357L3.36002 10.8637L3.69602 9.68769L2.74402 8.95969H3.97602L4.31202 7.78369Z" fill="white"/>
<path d="M4.31202 12.9917L4.70402 14.1677H5.93602L4.92802 14.8957L5.32002 16.0717L4.31202 15.3437L3.36002 16.0717L3.69602 14.8957L2.74402 14.1677H3.97602L4.31202 12.9917Z" fill="white"/>
<path d="M4.31202 18.144L4.70402 19.32H5.93602L4.92802 20.048L5.32002 21.224L4.31202 20.496L3.36002 21.224L3.69602 20.048L2.74402 19.32H3.97602L4.31202 18.144Z" fill="white"/>
<path d="M4.31202 23.3516L4.70402 24.5276H5.93602L4.92802 25.2556L5.32002 26.4316L4.31202 25.7036L3.36002 26.4316L3.69602 25.2556L2.74402 24.5276H3.97602L4.31202 23.3516Z" fill="white"/>
<path d="M7.952 5.31982L8.344 6.49582H9.576L8.568 7.22382L8.96 8.39982L7.952 7.67182L6.944 8.39982L7.336 7.22382L6.328 6.49582H7.56L7.952 5.31982Z" fill="white"/>
<path d="M7.952 10.5278L8.344 11.7038H9.576L8.568 12.4318L8.96 13.6078L7.952 12.8798L6.944 13.6078L7.336 12.4318L6.328 11.7038H7.56L7.952 10.5278Z" fill="white"/>
<path d="M7.952 15.7358L8.344 16.9118H9.576L8.568 17.6398L8.96 18.7598L7.952 18.0878L6.944 18.7598L7.336 17.6398L6.328 16.9118H7.56L7.952 15.7358Z" fill="white"/>
<path d="M7.952 20.8877L8.344 22.0637H9.576L8.568 22.7917L8.96 23.9677L7.952 23.2397L6.944 23.9677L7.336 22.7917L6.328 22.0637H7.56L7.952 20.8877Z" fill="white"/>
<path d="M11.592 2.63184L11.984 3.80784H13.216L12.208 4.53584L12.6 5.71184L11.592 4.98384L10.64 5.71184L10.976 4.53584L9.96802 3.80784H11.2L11.592 2.63184Z" fill="white"/>
<path d="M11.592 7.78369L11.984 8.95969H13.216L12.208 9.68769L12.6 10.8637L11.592 10.1357L10.64 10.8637L10.976 9.68769L9.96802 8.95969H11.2L11.592 7.78369Z" fill="white"/>
<path d="M11.592 12.9917L11.984 14.1677H13.216L12.208 14.8957L12.6 16.0717L11.592 15.3437L10.64 16.0717L10.976 14.8957L9.96802 14.1677H11.2L11.592 12.9917Z" fill="white"/>
<path d="M11.592 18.144L11.984 19.32H13.216L12.208 20.048L12.6 21.224L11.592 20.496L10.64 21.224L10.976 20.048L9.96802 19.32H11.2L11.592 18.144Z" fill="white"/>
<path d="M11.592 23.3516L11.984 24.5276H13.216L12.208 25.2556L12.6 26.4316L11.592 25.7036L10.64 26.4316L10.976 25.2556L9.96802 24.5276H11.2L11.592 23.3516Z" fill="white"/>
<path d="M15.232 5.31982L15.568 6.49582H16.8L15.848 7.22382L16.184 8.39982L15.232 7.67182L14.224 8.39982L14.616 7.22382L13.608 6.49582H14.84L15.232 5.31982Z" fill="white"/>
<path d="M15.232 10.5278L15.568 11.7038H16.8L15.848 12.4318L16.184 13.6078L15.232 12.8798L14.224 13.6078L14.616 12.4318L13.608 11.7038H14.84L15.232 10.5278Z" fill="white"/>
<path d="M15.232 15.7358L15.568 16.9118H16.8L15.848 17.6398L16.184 18.7598L15.232 18.0878L14.224 18.7598L14.616 17.6398L13.608 16.9118H14.84L15.232 15.7358Z" fill="white"/>
<path d="M15.232 20.8877L15.568 22.0637H16.8L15.848 22.7917L16.184 23.9677L15.232 23.2397L14.224 23.9677L14.616 22.7917L13.608 22.0637H14.84L15.232 20.8877Z" fill="white"/>
<path d="M18.872 2.63184L19.264 3.80784H20.496L19.488 4.53584L19.88 5.71184L18.872 4.98384L17.864 5.71184L18.256 4.53584L17.248 3.80784H18.48L18.872 2.63184Z" fill="white"/>
<path d="M18.872 7.78369L19.264 8.95969H20.496L19.488 9.68769L19.88 10.8637L18.872 10.1357L17.864 10.8637L18.256 9.68769L17.248 8.95969H18.48L18.872 7.78369Z" fill="white"/>
<path d="M18.872 12.9917L19.264 14.1677H20.496L19.488 14.8957L19.88 16.0717L18.872 15.3437L17.864 16.0717L18.256 14.8957L17.248 14.1677H18.48L18.872 12.9917Z" fill="white"/>
<path d="M18.872 18.144L19.264 19.32H20.496L19.488 20.048L19.88 21.224L18.872 20.496L17.864 21.224L18.256 20.048L17.248 19.32H18.48L18.872 18.144Z" fill="white"/>
<path d="M18.872 23.3516L19.264 24.5276H20.496L19.488 25.2556L19.88 26.4316L18.872 25.7036L17.864 26.4316L18.256 25.2556L17.248 24.5276H18.48L18.872 23.3516Z" fill="white"/>
</g>
</svg>
