<svg fill="none" height="24" viewBox="0 0 24 24" width="24" xmlns="http://www.w3.org/2000/svg">
    <path d="M21.3651 17.2545V13.707C21.3651 13.2525 21.1851 12.8167 20.8645 12.4954C20.544 12.1741 20.1092 11.9936 19.6559 11.9936H12.8191V8.56684H14.5283C14.9815 8.56639 15.4159 8.38573 15.7364 8.06451C16.0568 7.74329 16.2371 7.30775 16.2375 6.85348V1.71337C16.2371 1.25909 16.0568 0.823556 15.7364 0.502335C15.4159 0.181114 14.9815 0.000453594 14.5283 0H9.40066C8.94749 0.000453594 8.51301 0.181114 8.19257 0.502335C7.87213 0.823556 7.69191 1.25909 7.69145 1.71337V6.85348C7.69191 7.30775 7.87213 7.74329 8.19257 8.06451C8.51301 8.38573 8.94749 8.56639 9.40066 8.56684H11.1099V11.9936H4.27303C3.81972 11.9936 3.38498 12.1741 3.06444 12.4954C2.7439 12.8167 2.56382 13.2525 2.56382 13.707V17.2553C1.75822 17.4638 1.05614 17.9597 0.589171 18.65C0.122205 19.3403 -0.077584 20.1776 0.0272542 21.005C0.132092 21.8324 0.53436 22.5931 1.15865 23.1445C1.78295 23.6958 2.58641 24 3.41843 24C4.25045 24 5.05391 23.6958 5.6782 23.1445C6.3025 22.5931 6.70476 21.8324 6.8096 21.005C6.91444 20.1776 6.71465 19.3403 6.24769 18.65C5.78072 17.9597 5.07863 17.4638 4.27303 17.2553V13.707H11.1099V17.2553C10.3043 17.4638 9.60219 17.9597 9.13522 18.65C8.66825 19.3403 8.46847 20.1776 8.57331 21.005C8.67814 21.8324 9.08041 22.5931 9.7047 23.1445C10.329 23.6958 11.1325 24 11.9645 24C12.7965 24 13.6 23.6958 14.2243 23.1445C14.8485 22.5931 15.2508 21.8324 15.3557 21.005C15.4605 20.1776 15.2607 19.3403 14.7937 18.65C14.3268 17.9597 13.6247 17.4638 12.8191 17.2553V13.707H19.6559V17.2545C18.8503 17.463 18.1482 17.9589 17.6813 18.6492C17.2143 19.3395 17.0145 20.1768 17.1194 21.0042C17.2242 21.8316 17.6265 22.5923 18.2508 23.1436C18.875 23.695 19.6785 23.9991 20.5105 23.9991C21.3426 23.9991 22.146 23.695 22.7703 23.1436C23.3946 22.5923 23.7969 21.8316 23.9017 21.0042C24.0065 20.1768 23.8068 19.3395 23.3398 18.6492C22.8728 17.9589 22.1707 17.463 21.3651 17.2545ZM9.40066 1.71337H14.5283L14.5291 6.85348H9.40066V1.71337ZM5.12764 20.5604C5.12764 20.8993 5.0274 21.2306 4.83958 21.5123C4.65177 21.7941 4.38483 22.0137 4.07252 22.1434C3.7602 22.2731 3.41653 22.307 3.08498 22.2409C2.75342 22.1748 2.44887 22.0116 2.20983 21.772C1.9708 21.5323 1.80801 21.227 1.74206 20.8947C1.67611 20.5623 1.70996 20.2178 1.83932 19.9047C1.96869 19.5917 2.18776 19.3241 2.46884 19.1358C2.74992 18.9475 3.08038 18.8471 3.41843 18.8471C3.8716 18.8475 4.30608 19.0282 4.62652 19.3494C4.94696 19.6706 5.12719 20.1062 5.12764 20.5604ZM13.6737 20.5604C13.6737 20.8993 13.5734 21.2306 13.3856 21.5123C13.1978 21.7941 12.9309 22.0137 12.6186 22.1434C12.3062 22.2731 11.9626 22.307 11.631 22.2409C11.2995 22.1748 10.9949 22.0116 10.7559 21.772C10.5168 21.5323 10.3541 21.227 10.2881 20.8947C10.2222 20.5623 10.256 20.2178 10.3854 19.9047C10.5147 19.5917 10.7338 19.3241 11.0149 19.1358C11.296 18.9475 11.6264 18.8471 11.9645 18.8471C12.4176 18.8477 12.8519 19.0285 13.1723 19.3496C13.4927 19.6708 13.673 20.1062 13.6737 20.5604ZM20.5105 22.2738C20.1725 22.2738 19.842 22.1733 19.5609 21.985C19.2799 21.7968 19.0608 21.5292 18.9314 21.2161C18.8021 20.903 18.7682 20.5585 18.8342 20.2262C18.9001 19.8938 19.0629 19.5885 19.3019 19.3489C19.541 19.1093 19.8455 18.9461 20.1771 18.88C20.5086 18.8139 20.8523 18.8478 21.1646 18.9775C21.4769 19.1072 21.7439 19.3268 21.9317 19.6085C22.1195 19.8903 22.2197 20.2216 22.2197 20.5604C22.2193 21.0147 22.0391 21.4502 21.7186 21.7715C21.3982 22.0927 20.9637 22.2733 20.5105 22.2738Z"
          fill="#B22519"/>
</svg>
