ic_logo<svg width="89" height="69" viewBox="0 0 89 69" fill="none" xmlns="http://www.w3.org/2000/svg">
    <path
        d="M87.4063 14.3C86.8063 13.4 85.7063 12.9 84.6063 12.9H19.4063C19.3063 12.9 19.3063 12.9 19.2063 12.9L16.0063 3.9C15.3063 1.6 13.1063 0 10.7063 0H2.50632C1.20632 0 0.106324 0.9 0.00632429 2.1C-0.0936757 3.5 1.00632 4.7 2.30632 4.7H10.7063C11.1063 4.7 11.4063 4.9 11.5063 5.3L28.1063 53.2C28.4063 54.1 28.9063 54.9 29.6063 55.6C28.5063 57 27.9063 58.7 27.9063 60.6C27.9063 65.1 31.6063 68.8 36.1063 68.8C40.6063 68.8 44.3063 65.1 44.3063 60.6C44.3063 59.3 44.0063 58.2 43.5063 57.1H62.6063C62.1063 58.2 61.8063 59.3 61.8063 60.6C61.8063 65.1 65.5063 68.8 70.0063 68.8C74.5063 68.8 78.2063 65.1 78.2063 60.6C78.2063 56.1 74.6063 52.5 70.2063 52.4H33.4063C33.0063 52.4 32.7063 52.2 32.6063 51.8L30.0063 43.2V43.1H76.4063C77.9063 43.1 79.2063 42.2 79.6063 40.8L87.8063 17C88.2063 16.2 88.1063 15.1 87.4063 14.3ZM23.4063 24.7L20.8063 17.5C20.7063 17.3 20.9063 17.1 21.1063 17.1H35.4063C36.3063 17.1 37.1063 17.7 37.3063 18.6L38.9063 25.7C38.9063 25.9 38.8063 26.1 38.6063 26.1H25.1063C24.4063 26.1 23.7063 25.5 23.4063 24.7ZM36.0063 63.8C34.2063 63.8 32.8063 62.4 32.8063 60.6C32.8063 58.8 34.2063 57.4 36.0063 57.4C37.8063 57.4 39.2063 58.8 39.2063 60.6C39.2063 62.4 37.8063 63.8 36.0063 63.8ZM70.0063 63.8C68.2063 63.8 66.8063 62.4 66.8063 60.6C66.8063 58.8 68.2063 57.4 70.0063 57.4C71.8063 57.4 73.2063 58.8 73.2063 60.6C73.2063 62.4 71.7063 63.8 70.0063 63.8ZM29.9063 39C29.1063 39 28.3063 38.5 28.0063 37.7L25.4063 30.5C25.3063 30.3 25.5063 30.1 25.7063 30.1H38.4063C39.3063 30.1 40.1063 30.7 40.3063 31.6L42.0063 39H29.9063ZM59.3063 37.1C59.1063 38.1 58.3063 38.8 57.3063 38.8H47.7063C46.8063 38.8 46.0063 38.2 45.8063 37.3L44.2063 30.5C44.2063 30.3 44.3063 30.1 44.5063 30.1H60.1063C60.3063 30.1 60.4063 30.3 60.4063 30.4L59.3063 37.1ZM61.4063 24.4C61.2063 25.4 60.4063 26.1 59.4063 26.1H44.8063C43.9063 26.1 43.1063 25.5 42.9063 24.6L41.3063 17.7C41.3063 17.5 41.4063 17.3 41.6063 17.3H62.2063C62.4063 17.3 62.5063 17.5 62.5063 17.6L61.4063 24.4ZM78.8063 30.6L76.3063 37.7C76.0063 38.5 75.3063 39 74.4063 39H63.1063L64.2063 31.8C64.4063 30.8 65.2063 30.1 66.2063 30.1H78.6063C78.8063 30.2 78.9063 30.4 78.8063 30.6ZM83.4063 17.5L80.9063 24.9C80.6063 25.7 79.9063 26.2 79.0063 26.2H65.5063C65.3063 26.2 65.2063 26 65.2063 25.9L66.3063 18.9C66.5063 17.9 67.3063 17.2 68.3063 17.2H83.1063C83.3063 17.1 83.4063 17.3 83.4063 17.5Z"
        fill="black" />
</svg>