<svg fill="none" height="25" viewBox="0 0 24 25" width="24" xmlns="http://www.w3.org/2000/svg">
    <path d="M18 0.583313H6C4.68 0.583313 3.6 1.66331 3.6 2.98331V5.38331C3.6 6.70331 4.68 7.78331 6 7.78331H18C19.32 7.78331 20.4 6.70331 20.4 5.38331V2.98331C20.4 1.66331 19.32 0.583313 18 0.583313ZM17.4 5.38331H6.6C6.264 5.38331 6 5.11931 6 4.78331V3.58331C6 3.24731 6.264 2.98331 6.6 2.98331H17.4C17.736 2.98331 18 3.24731 18 3.58331V4.78331C18 5.11931 17.736 5.38331 17.4 5.38331ZM21.6 24.5833H2.4C1.08 24.5833 0 23.5033 0 22.1833V20.9833H24V22.1833C24 23.5033 22.92 24.5833 21.6 24.5833ZM19.836 10.4113C19.6467 9.98686 19.3386 9.62621 18.949 9.37285C18.5594 9.11948 18.1048 8.9842 17.64 8.98331H6.36C5.412 8.98331 4.548 9.54731 4.164 10.4113L0 19.7833H24L19.836 10.4113ZM9 17.3833H7.8C7.464 17.3833 7.2 17.1193 7.2 16.7833C7.2 16.4473 7.464 16.1833 7.8 16.1833H9C9.336 16.1833 9.6 16.4473 9.6 16.7833C9.6 17.1193 9.336 17.3833 9 17.3833ZM9 14.9833H7.8C7.464 14.9833 7.2 14.7193 7.2 14.3833C7.2 14.0473 7.464 13.7833 7.8 13.7833H9C9.336 13.7833 9.6 14.0473 9.6 14.3833C9.6 14.7193 9.336 14.9833 9 14.9833ZM9 12.5833H7.8C7.464 12.5833 7.2 12.3193 7.2 11.9833C7.2 11.6473 7.464 11.3833 7.8 11.3833H9C9.336 11.3833 9.6 11.6473 9.6 11.9833C9.6 12.3193 9.336 12.5833 9 12.5833ZM12.6 17.3833H11.4C11.064 17.3833 10.8 17.1193 10.8 16.7833C10.8 16.4473 11.064 16.1833 11.4 16.1833H12.6C12.936 16.1833 13.2 16.4473 13.2 16.7833C13.2 17.1193 12.936 17.3833 12.6 17.3833ZM12.6 14.9833H11.4C11.064 14.9833 10.8 14.7193 10.8 14.3833C10.8 14.0473 11.064 13.7833 11.4 13.7833H12.6C12.936 13.7833 13.2 14.0473 13.2 14.3833C13.2 14.7193 12.936 14.9833 12.6 14.9833ZM12.6 12.5833H11.4C11.064 12.5833 10.8 12.3193 10.8 11.9833C10.8 11.6473 11.064 11.3833 11.4 11.3833H12.6C12.936 11.3833 13.2 11.6473 13.2 11.9833C13.2 12.3193 12.936 12.5833 12.6 12.5833ZM16.2 17.3833H15C14.664 17.3833 14.4 17.1193 14.4 16.7833C14.4 16.4473 14.664 16.1833 15 16.1833H16.2C16.536 16.1833 16.8 16.4473 16.8 16.7833C16.8 17.1193 16.536 17.3833 16.2 17.3833ZM16.2 14.9833H15C14.664 14.9833 14.4 14.7193 14.4 14.3833C14.4 14.0473 14.664 13.7833 15 13.7833H16.2C16.536 13.7833 16.8 14.0473 16.8 14.3833C16.8 14.7193 16.536 14.9833 16.2 14.9833ZM16.2 12.5833H15C14.664 12.5833 14.4 12.3193 14.4 11.9833C14.4 11.6473 14.664 11.3833 15 11.3833H16.2C16.536 11.3833 16.8 11.6473 16.8 11.9833C16.8 12.3193 16.536 12.5833 16.2 12.5833Z"
          fill="#B22519"/>
</svg>
