<svg fill="none" height="24" viewBox="0 0 22 24" width="22" xmlns="http://www.w3.org/2000/svg">
    <path d="M19.9515 9.33334H21.2815V24H0V9.33334H1.3301V6.66667C1.3301 2.98667 4.30951 6.06045e-06 7.98058 6.06045e-06C8.92495 6.06045e-06 9.82941 0.200006 10.6408 0.560006C11.4789 0.189508 12.385 -0.00123946 13.301 6.06045e-06C16.972 6.06045e-06 19.9515 2.98667 19.9515 6.66667V9.33334ZM3.99029 6.66667V9.33334H6.65048V6.66667C6.65048 5.16001 7.16922 3.78667 8.00718 2.66667H7.98058C5.78592 2.66667 3.99029 4.46667 3.99029 6.66667ZM17.2913 9.33334V6.66667C17.2913 4.46667 15.4956 2.66667 13.301 2.66667H13.2744C14.149 3.81638 14.6253 5.22083 14.6311 6.66667V9.33334H17.2913ZM10.6408 3.70667C9.82941 4.44 9.31068 5.49334 9.31068 6.66667V9.33334H11.9709V6.66667C11.9709 5.49334 11.4521 4.44 10.6408 3.70667Z"
          fill="#B22519"/>
</svg>
