<svg width="31" height="24" viewBox="0 0 31 24" fill="none" xmlns="http://www.w3.org/2000/svg">
    <path fill-rule="evenodd" clip-rule="evenodd"
        d="M13.528 20.0865C13.8626 20.0865 14.1339 19.8161 14.1339 19.4825V18.2695C14.1339 17.9359 13.8626 17.6655 13.528 17.6655C13.1935 17.6655 12.9222 17.9359 12.9222 18.2695V19.4825C12.9222 19.8161 13.1935 20.0865 13.528 20.0865ZM29.6877 8.01472C29.6877 8.89959 29.1957 9.67175 28.4701 10.0743C28.4347 10.094 28.3989 10.1128 28.3625 10.1306C28.3586 10.1325 28.3548 10.1346 28.3509 10.1365C28.3086 10.1569 28.2656 10.1758 28.2223 10.1935C28.2142 10.1968 28.2059 10.1999 28.1977 10.2032C28.1602 10.2181 28.1222 10.2321 28.084 10.2451C28.0768 10.2475 28.0697 10.2499 28.0625 10.2523C27.97 10.2826 27.8757 10.3075 27.78 10.3262C27.7779 10.3266 27.7757 10.327 27.7735 10.3274C27.7301 10.3357 27.6864 10.3427 27.6426 10.3486C27.6324 10.35 27.6224 10.3512 27.6122 10.3525C27.5749 10.357 27.5374 10.3605 27.4999 10.3634C27.4887 10.3642 27.4776 10.3653 27.4664 10.3659C27.4194 10.3688 27.3721 10.3705 27.3248 10.3705C27.3227 10.3705 27.3204 10.3703 27.3182 10.3703C27.2839 10.3703 27.2499 10.3693 27.2159 10.3677C27.2002 10.367 27.1846 10.3659 27.1689 10.3648C27.1494 10.3636 27.1301 10.3621 27.1107 10.3604C27.0904 10.3585 27.07 10.3564 27.0498 10.354C27.0376 10.3526 27.0254 10.351 27.0133 10.3494C26.3567 10.2614 25.7701 9.89978 25.3941 9.37027C25.389 9.36302 25.3837 9.35595 25.3787 9.34864C25.3667 9.33131 25.3551 9.31367 25.3436 9.29609C25.3356 9.28389 25.3276 9.27169 25.3199 9.25936C25.3099 9.24336 25.3001 9.22717 25.2904 9.21086C25.2817 9.19636 25.2734 9.18168 25.2651 9.167C25.2563 9.1516 25.2477 9.13626 25.2392 9.12068C25.2306 9.10437 25.2222 9.08775 25.2139 9.0712C25.2063 9.0564 25.1987 9.04173 25.1914 9.02674C25.1812 9.00536 25.1716 8.98361 25.162 8.96181C25.1503 8.93541 25.1392 8.90871 25.1285 8.88177C25.1231 8.86824 25.1175 8.85477 25.1124 8.84106C25.1046 8.8204 25.0974 8.7995 25.0901 8.7786C25.0862 8.76712 25.0822 8.75571 25.0784 8.74417C25.071 8.7214 25.0639 8.69838 25.0571 8.67531C24.9956 8.46552 24.9619 8.24402 24.9619 8.01472V6.51245H29.6877V8.01472ZM28.1801 11.4749V22.7919H25.9647V13.6616C25.9647 13.328 25.6933 13.0576 25.3588 13.0576H15.4594H5.56009C5.22547 13.0576 4.95422 13.328 4.95422 13.6616V22.7919H2.73866V11.4796C2.74478 11.4811 2.75096 11.482 2.75708 11.4834C2.81258 11.4965 2.86856 11.5081 2.92503 11.5185C2.93824 11.521 2.95145 11.5233 2.96478 11.5256C3.01737 11.5347 3.07038 11.5425 3.12376 11.5493C3.13909 11.5512 3.15435 11.5534 3.16974 11.5551C3.22221 11.561 3.2751 11.5656 3.32824 11.5692C3.3432 11.5702 3.35811 11.5717 3.37313 11.5726C3.4399 11.5763 3.50703 11.5786 3.57471 11.5786C3.5758 11.5786 3.57677 11.5786 3.57786 11.5786C3.63008 11.5785 3.68207 11.5769 3.73393 11.5746C3.74853 11.574 3.76307 11.5733 3.77767 11.5725C3.82499 11.5698 3.87219 11.5663 3.91915 11.5618C3.94132 11.5596 3.96331 11.5569 3.98531 11.5544C4.01009 11.5515 4.03475 11.5484 4.05928 11.545C5.04734 11.4108 5.9078 10.8731 6.46811 10.1038C6.48041 10.087 6.49241 10.07 6.5044 10.053C6.51737 10.0345 6.53076 10.0162 6.54342 9.99745C6.55584 10.0159 6.56893 10.0338 6.58171 10.0519C6.59401 10.0695 6.60643 10.087 6.61909 10.1044C7.17947 10.8733 8.0398 11.4108 9.02756 11.545C9.05216 11.5484 9.07681 11.5515 9.10159 11.5544C9.12365 11.5569 9.14558 11.5596 9.16776 11.5618C9.21471 11.5663 9.26191 11.5698 9.30923 11.5725C9.32383 11.5733 9.33843 11.574 9.35297 11.5746C9.40483 11.5769 9.45682 11.5785 9.50904 11.5786C9.51013 11.5786 9.5111 11.5786 9.51219 11.5786C9.51328 11.5786 9.51425 11.5786 9.51535 11.5786C9.56757 11.5785 9.61956 11.5769 9.67142 11.5746C9.68596 11.574 9.70056 11.5733 9.71516 11.5725C9.76248 11.5698 9.80968 11.5663 9.85663 11.5618C9.87881 11.5596 9.90074 11.5569 9.92273 11.5544C9.94757 11.5515 9.97223 11.5484 9.99683 11.545C10.9846 11.4108 11.8449 10.8734 12.4052 10.1045C12.4179 10.0871 12.4304 10.0695 12.4428 10.0518C12.4555 10.0336 12.4686 10.0158 12.481 9.99745C12.4933 10.0159 12.5065 10.0337 12.5193 10.0519C12.5316 10.0695 12.544 10.087 12.5566 10.1044C13.117 10.8733 13.9774 11.4108 14.9651 11.545C14.9897 11.5484 15.0144 11.5515 15.0391 11.5544C15.0612 11.5569 15.0831 11.5596 15.1053 11.5618C15.1523 11.5663 15.1995 11.5698 15.2468 11.5725C15.2614 11.5733 15.276 11.574 15.2905 11.5746C15.3424 11.5769 15.3944 11.5785 15.4466 11.5786C15.4477 11.5786 15.4487 11.5786 15.4497 11.5786C15.4508 11.5786 15.4518 11.5786 15.4529 11.5786C15.5051 11.5785 15.5571 11.5769 15.609 11.5746C15.6235 11.574 15.6381 11.5733 15.6527 11.5725C15.7 11.5698 15.7472 11.5663 15.7942 11.5618C15.8164 11.5596 15.8383 11.5569 15.8603 11.5544C15.8851 11.5515 15.9098 11.5484 15.9344 11.545C16.9221 11.4108 17.7824 10.8734 18.3427 10.1045C18.3554 10.0871 18.3679 10.0695 18.3803 10.0518C18.3931 10.0336 18.4062 10.0158 18.4185 9.99745C18.4309 10.0159 18.444 10.0337 18.4568 10.0519C18.4691 10.0695 18.4815 10.087 18.4942 10.1044C19.0546 10.8733 19.9149 11.4108 20.9027 11.545C20.9273 11.5484 20.9519 11.5515 20.9767 11.5544C20.9987 11.5569 21.0207 11.5596 21.0429 11.5618C21.0898 11.5663 21.137 11.5698 21.1843 11.5725C21.1989 11.5733 21.2135 11.574 21.2281 11.5746C21.2799 11.5769 21.3319 11.5785 21.3841 11.5786C21.3852 11.5786 21.3862 11.5786 21.3873 11.5786C21.3884 11.5786 21.3894 11.5786 21.3904 11.5786C21.4427 11.5785 21.4947 11.5769 21.5465 11.5746C21.5611 11.574 21.5757 11.5733 21.5903 11.5725C21.6376 11.5698 21.6848 11.5663 21.7317 11.5618C21.7539 11.5596 21.7758 11.5569 21.7978 11.5544C21.8227 11.5515 21.8473 11.5484 21.8719 11.545C22.8597 11.4108 23.72 10.8734 24.2803 10.1045C24.293 10.0871 24.3055 10.0695 24.3179 10.0518C24.3306 10.0336 24.3437 10.0158 24.3561 9.99745C24.3684 10.0159 24.3816 10.0337 24.3944 10.0519C24.4067 10.0695 24.4191 10.087 24.4317 10.1044C24.9921 10.8733 25.8524 11.4108 26.8402 11.545C26.8648 11.5484 26.8895 11.5515 26.9142 11.5544C26.9363 11.5569 26.9582 11.5596 26.9804 11.5618C27.0274 11.5663 27.0746 11.5698 27.1219 11.5725C27.1365 11.5733 27.1511 11.574 27.1656 11.5746C27.2175 11.5769 27.2695 11.5785 27.3217 11.5786C27.3228 11.5786 27.3237 11.5786 27.3248 11.5786C27.3935 11.5786 27.4617 11.5762 27.5295 11.5723C27.5454 11.5714 27.5611 11.5699 27.5769 11.5688C27.6306 11.565 27.6838 11.5603 27.7367 11.5542C27.7527 11.5523 27.7685 11.5502 27.7844 11.5482C27.8395 11.541 27.8942 11.5328 27.9485 11.5232C27.9606 11.521 27.9728 11.5189 27.985 11.5167C28.0481 11.5049 28.1108 11.4916 28.1728 11.4765C28.1752 11.4759 28.1777 11.4754 28.1801 11.4749ZM16.0652 22.7918H24.7529V14.2657H16.0652V22.7918ZM6.1659 22.7919H14.8535V14.2657H6.1659V22.7919ZM1.21174 6.51245H5.93755V8.01472C5.93755 8.24498 5.90362 8.46733 5.84164 8.67778C5.83528 8.69941 5.82861 8.72091 5.82171 8.7423C5.81728 8.75577 5.81262 8.76906 5.80801 8.78241C5.80141 8.80155 5.79481 8.8207 5.78766 8.83967C5.78135 8.85652 5.77457 8.87313 5.76778 8.88981C5.76154 8.90545 5.75554 8.92116 5.749 8.93656C5.73579 8.96737 5.72192 8.99775 5.70744 9.02789C5.70132 9.04082 5.69453 9.0535 5.68817 9.06637C5.67878 9.08497 5.66933 9.10364 5.65951 9.122C5.65182 9.13626 5.64388 9.15033 5.63588 9.16447C5.62686 9.1806 5.61765 9.19666 5.60814 9.21261C5.59911 9.22771 5.58996 9.24281 5.58057 9.25773C5.57209 9.27138 5.56318 9.28492 5.55439 9.29839C5.54361 9.31482 5.53283 9.33131 5.52168 9.34743C5.51538 9.3565 5.50889 9.36537 5.50247 9.37431C5.12629 9.90165 4.54101 10.2617 3.88606 10.3494C3.87395 10.351 3.86201 10.3526 3.84995 10.354C3.8296 10.3564 3.80912 10.3586 3.78864 10.3604C3.76949 10.3621 3.75017 10.3635 3.73084 10.3648C3.71509 10.3659 3.6994 10.367 3.68358 10.3677C3.64971 10.3693 3.61578 10.3702 3.58161 10.3703C3.57931 10.3703 3.57695 10.3705 3.57465 10.3705C3.52787 10.3705 3.48116 10.3688 3.43457 10.366C3.42348 10.3654 3.41251 10.3643 3.40149 10.3635C3.36465 10.3608 3.328 10.3574 3.29134 10.353C3.28074 10.3517 3.27026 10.3504 3.25965 10.349C3.21906 10.3435 3.17865 10.3371 3.13842 10.3296C3.13333 10.3287 3.12812 10.3278 3.12297 10.3268C3.02954 10.3087 2.93733 10.2849 2.84687 10.2557C2.83839 10.2529 2.82991 10.2499 2.82137 10.247C2.78695 10.2355 2.75278 10.2231 2.71891 10.21C2.70637 10.2051 2.69395 10.2003 2.68153 10.1952C2.65015 10.1825 2.61913 10.1688 2.58829 10.1546C2.57677 10.1493 2.56502 10.1444 2.55357 10.139C2.51607 10.121 2.47905 10.1018 2.44245 10.0819C1.70977 9.68135 1.21174 8.90503 1.21174 8.01472V6.51245ZM9.7872 10.354C9.76696 10.3564 9.74667 10.3585 9.72631 10.3604C9.70704 10.3621 9.6876 10.3636 9.66809 10.3648C9.65245 10.3659 9.63688 10.367 9.62113 10.3677C9.5872 10.3693 9.55315 10.3703 9.51886 10.3703C9.51662 10.3703 9.51438 10.3705 9.51219 10.3705C9.51001 10.3705 9.50777 10.3703 9.50553 10.3703C9.47124 10.3703 9.43725 10.3693 9.40326 10.3677C9.38751 10.367 9.37193 10.3659 9.35624 10.3648C9.33673 10.3636 9.31741 10.3621 9.29808 10.3604C9.27772 10.3585 9.25736 10.3564 9.23713 10.354C9.22495 10.3526 9.21277 10.351 9.20065 10.3494C8.54407 10.2614 7.95747 9.89978 7.58146 9.37027C7.57631 9.36302 7.57104 9.35595 7.56601 9.34864C7.55408 9.33131 7.54244 9.31367 7.53093 9.29609C7.52299 9.28389 7.515 9.27169 7.5073 9.25936C7.49725 9.24336 7.48743 9.22717 7.47774 9.21086C7.46907 9.19636 7.46071 9.18168 7.45241 9.167C7.44363 9.1516 7.43502 9.13626 7.4266 9.12068C7.41794 9.10437 7.40958 9.08775 7.40121 9.0712C7.3937 9.0564 7.38601 9.04173 7.3788 9.02674C7.36856 9.00536 7.35899 8.98361 7.34935 8.96181C7.33766 8.93541 7.32657 8.90871 7.31585 8.88177C7.31045 8.86824 7.30482 8.85477 7.29973 8.84106C7.29191 8.8204 7.28471 8.7995 7.2775 8.7786C7.27356 8.76712 7.26956 8.75571 7.2658 8.74417C7.25835 8.7214 7.25126 8.69838 7.24448 8.67531C7.18298 8.46552 7.14929 8.24402 7.14929 8.01472V6.51245H11.8751V8.01472C11.8751 8.24498 11.8412 8.46733 11.7792 8.67778C11.7728 8.69941 11.7662 8.72091 11.7593 8.7423C11.7548 8.75577 11.7502 8.76906 11.7456 8.78241C11.739 8.80155 11.7324 8.8207 11.7252 8.83961C11.7188 8.85664 11.712 8.87332 11.7052 8.89017C11.699 8.90563 11.693 8.92122 11.6865 8.9365C11.6733 8.96737 11.6594 8.99781 11.645 9.02795C11.6389 9.04076 11.6322 9.05332 11.6258 9.06601C11.6164 9.08479 11.6069 9.10358 11.597 9.12206C11.5894 9.13626 11.5814 9.15027 11.5736 9.16429C11.5644 9.18054 11.5552 9.19666 11.5456 9.21273C11.5366 9.22777 11.5275 9.24275 11.5182 9.25761C11.5096 9.27139 11.5007 9.28498 11.4919 9.29857C11.4811 9.31494 11.4704 9.33131 11.4593 9.34737C11.4529 9.35656 11.4463 9.3655 11.4398 9.37462C11.0637 9.90171 10.4786 10.2617 9.82386 10.3494C9.81162 10.351 9.79944 10.3526 9.7872 10.354ZM15.7247 10.354C15.7045 10.3564 15.6842 10.3585 15.6639 10.3604C15.6446 10.3621 15.6251 10.3636 15.6056 10.3648C15.59 10.3659 15.5744 10.367 15.5587 10.3677C15.5248 10.3693 15.4907 10.3703 15.4564 10.3703C15.4542 10.3703 15.4519 10.3705 15.4497 10.3705C15.4476 10.3705 15.4453 10.3703 15.4431 10.3703C15.4088 10.3703 15.3748 10.3693 15.3408 10.3677C15.3251 10.367 15.3095 10.3659 15.2938 10.3648C15.2743 10.3636 15.255 10.3621 15.2356 10.3604C15.2153 10.3585 15.1949 10.3564 15.1747 10.354C15.1625 10.3526 15.1503 10.351 15.1382 10.3494C14.4816 10.2614 13.895 9.89978 13.519 9.37027C13.5139 9.36302 13.5086 9.35595 13.5036 9.34864C13.4916 9.33131 13.48 9.31367 13.4685 9.29609C13.4605 9.28389 13.4525 9.27169 13.4449 9.25936C13.4348 9.24336 13.425 9.22717 13.4153 9.21086C13.4066 9.19636 13.3983 9.18168 13.39 9.167C13.3812 9.1516 13.3726 9.13626 13.3641 9.12068C13.3555 9.10437 13.3471 9.08775 13.3388 9.0712C13.3313 9.0564 13.3236 9.04173 13.3163 9.02674C13.3061 9.00536 13.2965 8.98361 13.2869 8.96181C13.2752 8.93541 13.2641 8.90871 13.2534 8.88177C13.248 8.86824 13.2424 8.85477 13.2373 8.84106C13.2295 8.8204 13.2223 8.7995 13.215 8.7786C13.2111 8.76712 13.2071 8.75571 13.2034 8.74417C13.1959 8.7214 13.1888 8.69838 13.182 8.67531C13.1205 8.46552 13.0868 8.24402 13.0868 8.01472V6.51245H17.8126V8.01472C17.8126 8.24498 17.7787 8.46733 17.7167 8.67778C17.7104 8.69941 17.7037 8.72091 17.6968 8.7423C17.6924 8.75577 17.6877 8.76906 17.6831 8.78241C17.6765 8.80155 17.6699 8.8207 17.6628 8.83961C17.6564 8.85664 17.6495 8.87332 17.6428 8.89017C17.6366 8.90563 17.6306 8.92122 17.6241 8.9365C17.6109 8.96737 17.597 8.99781 17.5825 9.02795C17.5764 9.04076 17.5698 9.05332 17.5634 9.06601C17.5539 9.08479 17.5445 9.10358 17.5345 9.12206C17.5269 9.13626 17.519 9.15027 17.5111 9.16429C17.502 9.18054 17.4927 9.19666 17.4832 9.21273C17.4741 9.22777 17.4651 9.24275 17.4558 9.25761C17.4472 9.27139 17.4383 9.28498 17.4294 9.29857C17.4186 9.31494 17.4079 9.33131 17.3969 9.34737C17.3905 9.35656 17.3839 9.3655 17.3773 9.37462C17.0013 9.90171 16.4161 10.2617 15.7614 10.3494C15.7492 10.351 15.737 10.3526 15.7247 10.354ZM23.7502 8.01472C23.7502 8.24498 23.7163 8.46733 23.6543 8.67778C23.6479 8.69941 23.6413 8.72091 23.6344 8.7423C23.6299 8.75577 23.6253 8.76906 23.6207 8.78241C23.6141 8.80155 23.6075 8.8207 23.6003 8.83961C23.5939 8.85664 23.5871 8.87332 23.5803 8.89017C23.5741 8.90563 23.5681 8.92122 23.5616 8.9365C23.5484 8.96737 23.5345 8.99781 23.5201 9.02795C23.514 9.04076 23.5073 9.05332 23.5009 9.06601C23.4915 9.08479 23.482 9.10358 23.4721 9.12206C23.4645 9.13626 23.4565 9.15027 23.4487 9.16429C23.4395 9.18054 23.4303 9.19666 23.4207 9.21273C23.4117 9.22777 23.4026 9.24275 23.3933 9.25761C23.3847 9.27139 23.3758 9.28498 23.367 9.29857C23.3562 9.31494 23.3455 9.33131 23.3344 9.34737C23.328 9.35656 23.3214 9.3655 23.3149 9.37462C22.9388 9.90171 22.3537 10.2617 21.699 10.3494C21.6867 10.351 21.6745 10.3526 21.6623 10.354C21.6421 10.3564 21.6218 10.3585 21.6014 10.3604C21.5821 10.3621 21.5627 10.3636 21.5432 10.3648C21.5276 10.3659 21.512 10.367 21.4962 10.3677C21.4623 10.3693 21.4282 10.3703 21.394 10.3703C21.3917 10.3703 21.3895 10.3705 21.3873 10.3705C21.3851 10.3705 21.3829 10.3703 21.3806 10.3703C21.3463 10.3703 21.3123 10.3693 21.2784 10.3677C21.2626 10.367 21.247 10.3659 21.2313 10.3648C21.2118 10.3636 21.1925 10.3621 21.1732 10.3604C21.1528 10.3585 21.1325 10.3564 21.1122 10.354C21.1 10.3526 21.0879 10.351 21.0758 10.3494C20.4192 10.2614 19.8326 9.89978 19.4566 9.37027C19.4514 9.36302 19.4461 9.35595 19.4411 9.34864C19.4292 9.33131 19.4175 9.31367 19.406 9.29609C19.3981 9.28389 19.3901 9.27169 19.3824 9.25936C19.3723 9.24336 19.3625 9.22717 19.3528 9.21086C19.3442 9.19636 19.3358 9.18168 19.3275 9.167C19.3187 9.1516 19.3101 9.13626 19.3017 9.12068C19.293 9.10437 19.2847 9.08775 19.2763 9.0712C19.2688 9.0564 19.2611 9.04173 19.2539 9.02674C19.2437 9.00536 19.2341 8.98361 19.2244 8.96181C19.2128 8.93541 19.2017 8.90871 19.1909 8.88177C19.1856 8.86824 19.1799 8.85477 19.1748 8.84106C19.167 8.8204 19.1598 8.7995 19.1526 8.7786C19.1487 8.76712 19.1447 8.75571 19.1409 8.74417C19.1334 8.7214 19.1264 8.69838 19.1196 8.67531C19.0581 8.46552 19.0244 8.24402 19.0244 8.01472V6.51245H23.7502V8.01472ZM3.98743 1.2081H26.8549L29.2411 5.30435H24.3561H18.4185H12.481H6.54342H1.64803L3.98743 1.2081ZM30.8992 5.90314C30.899 5.88043 30.8974 5.85796 30.8947 5.83585C30.8939 5.82939 30.8928 5.82304 30.8917 5.81658C30.8889 5.79828 30.8854 5.78028 30.8809 5.76258C30.8794 5.75654 30.878 5.75056 30.8763 5.74458C30.87 5.72211 30.8628 5.70012 30.8539 5.6788C30.8536 5.67807 30.8534 5.67735 30.8531 5.67656C30.8436 5.65373 30.8324 5.63168 30.8201 5.6103C30.8192 5.60861 30.8185 5.60673 30.8175 5.60498L27.7276 0.300696C27.6191 0.114588 27.4195 0 27.2037 0H3.63523C3.41748 0 3.21645 0.116521 3.10873 0.305166L0.0793693 5.60951C0.0786422 5.61072 0.0781575 5.61205 0.0774305 5.61332C0.0654948 5.63458 0.0547103 5.65657 0.0453798 5.67934C0.0441681 5.68236 0.0432593 5.68544 0.0420475 5.68846C0.0344135 5.70779 0.0279307 5.7276 0.0222961 5.74784C0.0206602 5.75388 0.019085 5.75992 0.0176309 5.76602C0.0132686 5.78408 0.00975454 5.80251 0.00702812 5.82117C0.00624048 5.82691 0.00502874 5.83259 0.00442287 5.83833C0.00169644 5.86134 0 5.88466 0 5.9084V8.01472C0 9.22077 0.6046 10.2881 1.52692 10.9332V23.396C1.52692 23.7296 1.79823 24 2.13279 24H5.56009H15.4594H25.3588H28.786C29.1206 24 29.3918 23.7296 29.3918 23.396V10.9196C30.3032 10.2731 30.8995 9.21237 30.8995 8.01472V5.9084C30.8995 5.90815 30.8994 5.90803 30.8994 5.90779C30.8994 5.90628 30.8992 5.90471 30.8992 5.90314ZM17.471 17.6655C17.1364 17.6655 16.8651 17.9359 16.8651 18.2696V19.4825C16.8651 19.8161 17.1364 20.0865 17.471 20.0865C17.8055 20.0865 18.0768 19.8161 18.0768 19.4825V18.2696C18.0768 17.9359 17.8055 17.6655 17.471 17.6655Z"
        fill="#B22519" />
</svg>