<svg fill="none" height="24" viewBox="0 0 23 24" width="23" xmlns="http://www.w3.org/2000/svg">
    <path clip-rule="evenodd"
          d="M1.47182 0.0110287C1.59702 -0.00936591 1.72528 0.000307702 1.846 0.039251C1.96673 0.0781944 2.07646 0.145291 2.16614 0.235002L3.19962 1.27008L4.2331 0.235002C4.3074 0.16051 4.39567 0.101408 4.49285 0.0610827C4.59003 0.0207572 4.69421 0 4.79943 0C4.90464 0 5.00882 0.0207572 5.10601 0.0610827C5.20319 0.101408 5.29146 0.16051 5.36576 0.235002L6.39924 1.27008L7.43271 0.235002C7.50702 0.16051 7.59529 0.101408 7.69247 0.0610827C7.78965 0.0207572 7.89383 0 7.99905 0C8.10426 0 8.20844 0.0207572 8.30562 0.0610827C8.40281 0.101408 8.49108 0.16051 8.56538 0.235002L9.59886 1.27008L10.6323 0.235002C10.7066 0.16051 10.7949 0.101408 10.8921 0.0610827C10.9893 0.0207572 11.0935 0 11.1987 0C11.3039 0 11.4081 0.0207572 11.5052 0.0610827C11.6024 0.101408 11.6907 0.16051 11.765 0.235002L12.7985 1.27008L13.832 0.235002C13.9063 0.16051 13.9945 0.101408 14.0917 0.0610827C14.1889 0.0207572 14.2931 0 14.3983 0C14.5035 0 14.6077 0.0207572 14.7049 0.0610827C14.802 0.101408 14.8903 0.16051 14.9646 0.235002L15.9981 1.27008L17.0316 0.235002C17.1059 0.16051 17.1941 0.101408 17.2913 0.0610827C17.3885 0.0207572 17.4927 0 17.5979 0C17.7031 0 17.8073 0.0207572 17.9045 0.0610827C18.0017 0.101408 18.0899 0.16051 18.1642 0.235002L19.1977 1.27008L20.2312 0.235002C20.3208 0.145305 20.4305 0.0782003 20.5511 0.0392231C20.6718 0.000245855 20.8 -0.0094873 20.9252 0.0108264C21.0503 0.0311402 21.1689 0.0809188 21.271 0.156057C21.3732 0.231194 21.456 0.329538 21.5126 0.442977L22.3125 2.04279C22.3683 2.15402 22.3973 2.27672 22.3973 2.40114V21.5989C22.3973 21.7233 22.3683 21.846 22.3125 21.9572L21.5126 23.557C21.4559 23.6702 21.3731 23.7682 21.2711 23.8432C21.1691 23.9181 21.0508 23.9678 20.9259 23.9881C20.8009 24.0084 20.673 23.9987 20.5525 23.96C20.432 23.9212 20.3224 23.8544 20.2328 23.765L19.1977 22.7299L18.1642 23.765C18.0899 23.8395 18.0017 23.8986 17.9045 23.9389C17.8073 23.9792 17.7031 24 17.5979 24C17.4927 24 17.3885 23.9792 17.2913 23.9389C17.1941 23.8986 17.1059 23.8395 17.0316 23.765L15.9981 22.7299L14.9646 23.765C14.8903 23.8395 14.802 23.8986 14.7049 23.9389C14.6077 23.9792 14.5035 24 14.3983 24C14.2931 24 14.1889 23.9792 14.0917 23.9389C13.9945 23.8986 13.9063 23.8395 13.832 23.765L12.7985 22.7299L11.765 23.765C11.6907 23.8395 11.6024 23.8986 11.5052 23.9389C11.4081 23.9792 11.3039 24 11.1987 24C11.0935 24 10.9893 23.9792 10.8921 23.9389C10.7949 23.8986 10.7066 23.8395 10.6323 23.765L9.59886 22.7299L8.56538 23.765C8.49108 23.8395 8.40281 23.8986 8.30562 23.9389C8.20844 23.9792 8.10426 24 7.99905 24C7.89383 24 7.78965 23.9792 7.69247 23.9389C7.59529 23.8986 7.50702 23.8395 7.43271 23.765L6.39924 22.7299L5.36576 23.765C5.29146 23.8395 5.20319 23.8986 5.10601 23.9389C5.00882 23.9792 4.90464 24 4.79943 24C4.69421 24 4.59003 23.9792 4.49285 23.9389C4.39567 23.8986 4.3074 23.8395 4.2331 23.765L3.19962 22.7299L2.16614 23.765C2.07651 23.8547 1.96685 23.9218 1.84618 23.9608C1.72552 23.9998 1.59732 24.0095 1.47216 23.9892C1.34699 23.9689 1.22845 23.9191 1.12631 23.8439C1.02417 23.7688 0.941353 23.6705 0.884695 23.557L0.0847899 21.9572C0.0290409 21.846 8.3317e-06 21.7233 0 21.5989V2.40114C8.3317e-06 2.27672 0.0290409 2.15402 0.0847899 2.04279L0.884695 0.442977C0.941346 0.329617 1.02412 0.231339 1.1262 0.15624C1.22828 0.0811414 1.34674 0.0313707 1.47182 0.0110287ZM1.81898 2.15157L1.59981 2.58992V21.4101L1.81898 21.8484L2.63489 21.0325C2.78489 20.8826 2.98831 20.7983 3.20042 20.7983C3.41252 20.7983 3.61595 20.8826 3.76595 21.0325L4.79943 22.0676L5.8329 21.0341C5.90721 20.9596 5.99548 20.9005 6.09266 20.8602C6.18984 20.8199 6.29402 20.7991 6.39924 20.7991C6.50445 20.7991 6.60863 20.8199 6.70581 20.8602C6.803 20.9005 6.89127 20.9596 6.96557 21.0341L7.99905 22.0676L9.03252 21.0341C9.10683 20.9596 9.1951 20.9005 9.29228 20.8602C9.38946 20.8199 9.49364 20.7991 9.59886 20.7991C9.70407 20.7991 9.80825 20.8199 9.90543 20.8602C10.0026 20.9005 10.0909 20.9596 10.1652 21.0341L11.1987 22.0676L12.2321 21.0341C12.3064 20.9596 12.3947 20.9005 12.4919 20.8602C12.5891 20.8199 12.6933 20.7991 12.7985 20.7991C12.9037 20.7991 13.0079 20.8199 13.1051 20.8602C13.2022 20.9005 13.2905 20.9596 13.3648 21.0341L14.3983 22.0676L15.4318 21.0341C15.5061 20.9596 15.5943 20.9005 15.6915 20.8602C15.7887 20.8199 15.8929 20.7991 15.9981 20.7991C16.1033 20.7991 16.2075 20.8199 16.3047 20.8602C16.4019 20.9005 16.4901 20.9596 16.5644 21.0341L17.5979 22.0676L18.6314 21.0341C18.7057 20.9596 18.794 20.9005 18.8911 20.8602C18.9883 20.8199 19.0925 20.7991 19.1977 20.7991C19.3029 20.7991 19.4071 20.8199 19.5043 20.8602C19.6015 20.9005 19.6897 20.9596 19.764 21.0341L20.5783 21.8484L20.7975 21.4101V2.58992L20.5783 2.15157L19.7624 2.96748C19.6124 3.11744 19.409 3.20168 19.1969 3.20168C18.9848 3.20168 18.7814 3.11744 18.6314 2.96748L17.5979 1.9324L16.5644 2.96748C16.4901 3.04197 16.4019 3.10107 16.3047 3.1414C16.2075 3.18172 16.1033 3.20248 15.9981 3.20248C15.8929 3.20248 15.7887 3.18172 15.6915 3.1414C15.5943 3.10107 15.5061 3.04197 15.4318 2.96748L14.3983 1.9324L13.3648 2.96748C13.2905 3.04197 13.2022 3.10107 13.1051 3.1414C13.0079 3.18172 12.9037 3.20248 12.7985 3.20248C12.6933 3.20248 12.5891 3.18172 12.4919 3.1414C12.3947 3.10107 12.3064 3.04197 12.2321 2.96748L11.1987 1.9324L10.1652 2.96748C10.0909 3.04197 10.0026 3.10107 9.90543 3.1414C9.80825 3.18172 9.70407 3.20248 9.59886 3.20248C9.49364 3.20248 9.38946 3.18172 9.29228 3.1414C9.1951 3.10107 9.10683 3.04197 9.03252 2.96748L7.99905 1.9324L6.96557 2.96748C6.89127 3.04197 6.803 3.10107 6.70581 3.1414C6.60863 3.18172 6.50445 3.20248 6.39924 3.20248C6.29402 3.20248 6.18984 3.18172 6.09266 3.1414C5.99548 3.10107 5.90721 3.04197 5.8329 2.96748L4.79943 1.9324L3.76595 2.96748C3.69165 3.04197 3.60338 3.10107 3.5062 3.1414C3.40902 3.18172 3.30483 3.20248 3.19962 3.20248C3.0944 3.20248 2.99022 3.18172 2.89304 3.1414C2.79586 3.10107 2.70759 3.04197 2.63329 2.96748L1.81898 2.15157Z"
          fill="#B22519"
          fill-rule="evenodd"/>
    <path clip-rule="evenodd"
          d="M3.19971 6.40067C3.19971 6.18853 3.28398 5.98507 3.43399 5.83506C3.58401 5.68504 3.78746 5.60077 3.99961 5.60077H13.5985C13.8106 5.60077 14.0141 5.68504 14.1641 5.83506C14.3141 5.98507 14.3984 6.18853 14.3984 6.40067C14.3984 6.61282 14.3141 6.81628 14.1641 6.96629C14.0141 7.1163 13.8106 7.20058 13.5985 7.20058H3.99961C3.78746 7.20058 3.58401 7.1163 3.43399 6.96629C3.28398 6.81628 3.19971 6.61282 3.19971 6.40067ZM3.19971 9.60029C3.19971 9.38814 3.28398 9.18469 3.43399 9.03467C3.58401 8.88466 3.78746 8.80039 3.99961 8.80039H13.5985C13.8106 8.80039 14.0141 8.88466 14.1641 9.03467C14.3141 9.18469 14.3984 9.38814 14.3984 9.60029C14.3984 9.81244 14.3141 10.0159 14.1641 10.1659C14.0141 10.3159 13.8106 10.4002 13.5985 10.4002H3.99961C3.78746 10.4002 3.58401 10.3159 3.43399 10.1659C3.28398 10.0159 3.19971 9.81244 3.19971 9.60029ZM3.19971 12.7999C3.19971 12.5878 3.28398 12.3843 3.43399 12.2343C3.58401 12.0843 3.78746 12 3.99961 12H13.5985C13.8106 12 14.0141 12.0843 14.1641 12.2343C14.3141 12.3843 14.3984 12.5878 14.3984 12.7999C14.3984 13.0121 14.3141 13.2155 14.1641 13.3655C14.0141 13.5155 13.8106 13.5998 13.5985 13.5998H3.99961C3.78746 13.5998 3.58401 13.5155 3.43399 13.3655C3.28398 13.2155 3.19971 13.0121 3.19971 12.7999ZM3.19971 15.9995C3.19971 15.7874 3.28398 15.5839 3.43399 15.4339C3.58401 15.2839 3.78746 15.1996 3.99961 15.1996H13.5985C13.8106 15.1996 14.0141 15.2839 14.1641 15.4339C14.3141 15.5839 14.3984 15.7874 14.3984 15.9995C14.3984 16.2117 14.3141 16.4151 14.1641 16.5651C14.0141 16.7152 13.8106 16.7994 13.5985 16.7994H3.99961C3.78746 16.7994 3.58401 16.7152 3.43399 16.5651C3.28398 16.4151 3.19971 16.2117 3.19971 15.9995ZM15.9982 6.40067C15.9982 6.18853 16.0825 5.98507 16.2325 5.83506C16.3825 5.68504 16.5859 5.60077 16.7981 5.60077H18.3979C18.61 5.60077 18.8135 5.68504 18.9635 5.83506C19.1135 5.98507 19.1978 6.18853 19.1978 6.40067C19.1978 6.61282 19.1135 6.81628 18.9635 6.96629C18.8135 7.1163 18.61 7.20058 18.3979 7.20058H16.7981C16.5859 7.20058 16.3825 7.1163 16.2325 6.96629C16.0825 6.81628 15.9982 6.61282 15.9982 6.40067ZM15.9982 9.60029C15.9982 9.38814 16.0825 9.18469 16.2325 9.03467C16.3825 8.88466 16.5859 8.80039 16.7981 8.80039H18.3979C18.61 8.80039 18.8135 8.88466 18.9635 9.03467C19.1135 9.18469 19.1978 9.38814 19.1978 9.60029C19.1978 9.81244 19.1135 10.0159 18.9635 10.1659C18.8135 10.3159 18.61 10.4002 18.3979 10.4002H16.7981C16.5859 10.4002 16.3825 10.3159 16.2325 10.1659C16.0825 10.0159 15.9982 9.81244 15.9982 9.60029ZM15.9982 12.7999C15.9982 12.5878 16.0825 12.3843 16.2325 12.2343C16.3825 12.0843 16.5859 12 16.7981 12H18.3979C18.61 12 18.8135 12.0843 18.9635 12.2343C19.1135 12.3843 19.1978 12.5878 19.1978 12.7999C19.1978 13.0121 19.1135 13.2155 18.9635 13.3655C18.8135 13.5155 18.61 13.5998 18.3979 13.5998H16.7981C16.5859 13.5998 16.3825 13.5155 16.2325 13.3655C16.0825 13.2155 15.9982 13.0121 15.9982 12.7999ZM15.9982 15.9995C15.9982 15.7874 16.0825 15.5839 16.2325 15.4339C16.3825 15.2839 16.5859 15.1996 16.7981 15.1996H18.3979C18.61 15.1996 18.8135 15.2839 18.9635 15.4339C19.1135 15.5839 19.1978 15.7874 19.1978 15.9995C19.1978 16.2117 19.1135 16.4151 18.9635 16.5651C18.8135 16.7152 18.61 16.7994 18.3979 16.7994H16.7981C16.5859 16.7994 16.3825 16.7152 16.2325 16.5651C16.0825 16.4151 15.9982 16.2117 15.9982 15.9995Z"
          fill="#B22519"
          fill-rule="evenodd"/>
</svg>
