<svg fill="none" height="24" viewBox="0 0 19 24" width="19" xmlns="http://www.w3.org/2000/svg">
    <path d="M19 7.2L11.875 0H2.375C1.74511 0 1.14102 0.252856 0.695621 0.702944C0.250222 1.15303 0 1.76348 0 2.4V21.6C0 22.2365 0.250222 22.847 0.695621 23.2971C1.14102 23.7471 1.74511 24 2.375 24H16.625C17.2549 24 17.859 23.7471 18.3044 23.2971C18.7498 22.847 19 22.2365 19 21.6V7.2ZM5.9375 20.4H3.5625V9.6H5.9375V20.4ZM10.6875 20.4H8.3125V13.2H10.6875V20.4ZM15.4375 20.4H13.0625V16.8H15.4375V20.4ZM11.875 8.4H10.6875V2.4L16.625 8.4H11.875Z"
          fill="#B22519"/>
</svg>
