<svg width="30" height="30" viewBox="0 0 30 30" fill="none" xmlns="http://www.w3.org/2000/svg">
    <path
        d="M27.1167 11.7299H24.3009C24.2615 11.2925 24.1565 10.8706 23.9945 10.477L27.5121 6.7886C27.664 6.6293 27.664 6.37133 27.5121 6.21203L25.3986 3.9957C25.3258 3.91931 25.227 3.87636 25.1236 3.87636C25.0209 3.87636 24.9216 3.91931 24.8485 3.9957L21.9396 7.04577V3.88044C22.3471 3.60017 22.617 3.11711 22.617 2.5688C22.617 1.70353 21.9461 1 21.1209 1H18.2633C17.4383 1 16.7671 1.7038 16.7671 2.5688C16.7671 3.11711 17.037 3.59963 17.4446 3.88017V8.29379C16.2621 8.84156 15.4135 9.95937 15.1501 11.265C14.665 9.6405 13.4527 8.33756 11.3872 8.33756C10.9667 8.33756 10.5506 8.42591 10.157 8.59309C10.2911 7.98036 10.4355 6.8109 9.86511 5.93638C9.07567 4.72532 7.28004 4.6454 7.20407 4.64268L6.91785 4.63208L6.82322 4.91561C6.79807 4.99091 6.21707 6.7742 7.00704 7.98471C7.10996 8.14292 7.23052 8.28075 7.3617 8.40253C5.75533 8.6915 4.58322 9.94197 4.20781 11.7296H2.88378C1.84518 11.7296 1 12.6158 1 13.7048C1 14.7938 1.84518 15.6797 2.88378 15.6797H3.59181L4.59411 26.981C4.60448 28.0964 5.47274 29 6.53856 29H23.4614C24.5273 29 25.3953 28.0964 25.4059 26.981L26.4079 15.6797H27.1162C28.1548 15.6797 29 14.7938 29 13.7048C29 12.6158 28.1553 11.7299 27.1167 11.7299ZM25.1236 4.86016L26.6871 6.49991L15.0487 18.704L13.4849 17.0642L25.1236 4.86016ZM23.5195 11.7299H22.7996L23.3889 11.1123C23.4495 11.3121 23.4951 11.5178 23.5195 11.7299ZM18.2633 1.81525H21.1206C21.517 1.81525 21.839 2.15315 21.839 2.56853C21.839 2.9839 21.517 3.3218 21.1206 3.3218H18.2633C17.8674 3.3218 17.5449 2.9839 17.5449 2.56853C17.5449 2.15315 17.8674 1.81525 18.2633 1.81525ZM17.9651 8.95301C18.1197 8.89456 18.2223 8.74125 18.2223 8.56944V4.13543C18.2361 4.1357 18.2496 4.1376 18.2633 4.1376H21.1206C21.1343 4.1376 21.1478 4.1357 21.1616 4.13543V7.86129L17.4723 11.7296H15.8657C16.008 10.4761 16.8143 9.3885 17.9651 8.95301ZM7.47785 5.48811C7.99896 5.56586 8.83896 5.80753 9.22293 6.39688C9.631 7.02293 9.50111 7.9529 9.39456 8.42999C8.93152 8.35931 8.05393 8.14591 7.64922 7.52475C7.24011 6.89734 7.3713 5.96411 7.47785 5.48811ZM8.08893 9.15309C8.58904 9.15309 9.08422 9.31565 9.52133 9.6231L9.73807 9.77561L9.95481 9.62283C10.3917 9.31538 10.8871 9.15281 11.3872 9.15281C13.2116 9.15281 14.1325 10.3652 14.4667 11.7296H5.01359C5.37163 10.3158 6.35785 9.15309 8.08893 9.15309ZM2.88404 14.8642C2.274 14.8642 1.77804 14.3442 1.77804 13.7048C1.77804 13.0652 2.274 12.5451 2.88404 12.5451H16.6948L14.483 14.8639H3.94622H2.88404V14.8642ZM24.6299 26.9234C24.6289 26.9359 24.6284 26.9487 24.6284 26.9612C24.6284 27.6356 24.1047 28.1845 23.4617 28.1845H6.53881C5.89559 28.1845 5.37215 27.6356 5.37215 26.9612C5.37215 26.9487 5.37163 26.9359 5.37033 26.9234L4.37296 15.6797H13.705L12.6597 16.7758C12.5077 16.9351 12.5077 17.1931 12.6597 17.3524L14.7734 19.5687C14.8463 19.6451 14.9453 19.6881 15.0485 19.6881C15.1517 19.6881 15.2504 19.6451 15.3233 19.5687L19.0325 15.6795H25.6276L24.6299 26.9234ZM27.1167 14.8642H26.0543H19.8103L22.0215 12.5454H27.1165C27.7263 12.5454 28.2225 13.0654 28.2225 13.7051C28.2227 14.3442 27.7263 14.8642 27.1167 14.8642Z"
        fill="#B22519" stroke="#B22519" stroke-width="0.4" />
</svg>