<svg fill="none" height="17" viewBox="0 0 24 17" width="24" xmlns="http://www.w3.org/2000/svg">
      <path d="M21.0669 2.94055H19.2002V13.6332H21.0669V2.94055Z" fill="#B22519" />
      <path d="M16.8003 2.94055H14.9336V13.6332H16.8003V2.94055Z" fill="#B22519" />
      <path d="M9.06687 2.94055H7.2002V13.6332H9.06687V2.94055Z" fill="#B22519" />
      <path d="M4.80027 2.94055H2.93359V13.6332H4.80027V2.94055Z" fill="#B22519" />
      <path d="M18.4001 2.94055H17.6001V13.6332H18.4001V2.94055Z" fill="#B22519" />
      <path d="M13.8664 2.94055H13.0664V13.6332H13.8664V2.94055Z" fill="#B22519" />
      <path d="M10.6667 2.94055H9.8667V13.6332H10.6667V2.94055Z" fill="#B22519" />
      <path d="M6.4001 2.94055H5.6001V13.6332H6.4001V2.94055Z" fill="#B22519" />
      <path d="M12.2668 2.94055H11.4668V13.6332H12.2668V2.94055Z" fill="#B22519" />
      <path d="M5.8667 0H0.533336C0.391887 0 0.25623 0.0563274 0.15621 0.156591C0.0561906 0.256854 0 0.39284 0 0.534633V5.88097C0 6.02276 0.0561906 6.15875 0.15621 6.25901C0.25623 6.35927 0.391887 6.4156 0.533336 6.4156C0.674786 6.4156 0.810442 6.35927 0.910461 6.25901C1.01048 6.15875 1.06667 6.02276 1.06667 5.88097V1.06927H5.8667C6.00815 1.06927 6.1438 1.01294 6.24382 0.912676C6.34384 0.812413 6.40003 0.676427 6.40003 0.534633C6.40003 0.39284 6.34384 0.256854 6.24382 0.156591C6.1438 0.0563274 6.00815 0 5.8667 0Z"
            fill="#B22519" />
      <path d="M5.8667 15.5044H1.06667V10.6927C1.06667 10.5509 1.01048 10.4149 0.910461 10.3146C0.810442 10.2143 0.674786 10.158 0.533336 10.158C0.391887 10.158 0.25623 10.2143 0.15621 10.3146C0.0561906 10.4149 0 10.5509 0 10.6927V16.039C0 16.1808 0.0561906 16.3168 0.15621 16.417C0.25623 16.5173 0.391887 16.5736 0.533336 16.5736H5.8667C6.00815 16.5736 6.1438 16.5173 6.24382 16.417C6.34384 16.3168 6.40003 16.1808 6.40003 16.039C6.40003 15.8972 6.34384 15.7612 6.24382 15.6609C6.1438 15.5607 6.00815 15.5044 5.8667 15.5044Z"
            fill="#B22519" />
      <path d="M23.4668 0H18.1334C17.992 0 17.8563 0.0563274 17.7563 0.156591C17.6563 0.256854 17.6001 0.39284 17.6001 0.534633C17.6001 0.676427 17.6563 0.812413 17.7563 0.912676C17.8563 1.01294 17.992 1.06927 18.1334 1.06927H22.9335V5.88097C22.9335 6.02276 22.9896 6.15875 23.0897 6.25901C23.1897 6.35927 23.3253 6.4156 23.4668 6.4156C23.6082 6.4156 23.7439 6.35927 23.8439 6.25901C23.9439 6.15875 24.0001 6.02276 24.0001 5.88097V0.534633C24.0001 0.39284 23.9439 0.256854 23.8439 0.156591C23.7439 0.0563274 23.6082 0 23.4668 0Z"
            fill="#B22519" />
      <path d="M23.4668 10.1581C23.3253 10.1581 23.1897 10.2144 23.0897 10.3147C22.9896 10.4149 22.9335 10.5509 22.9335 10.6927V15.5044H18.1334C17.992 15.5044 17.8563 15.5607 17.7563 15.661C17.6563 15.7613 17.6001 15.8973 17.6001 16.039C17.6001 16.1808 17.6563 16.3168 17.7563 16.4171C17.8563 16.5174 17.992 16.5737 18.1334 16.5737H23.4668C23.6082 16.5737 23.7439 16.5174 23.8439 16.4171C23.9439 16.3168 24.0001 16.1808 24.0001 16.039V10.6927C24.0001 10.5509 23.9439 10.4149 23.8439 10.3147C23.7439 10.2144 23.6082 10.1581 23.4668 10.1581Z"
            fill="#B22519" />
</svg>