<svg fill="none" height="24" viewBox="0 0 24 24" width="24" xmlns="http://www.w3.org/2000/svg">
    <path d="M12.0002 13.8C12.9943 13.8 13.8002 12.9941 13.8002 12C13.8002 11.0059 12.9943 10.2 12.0002 10.2C11.0061 10.2 10.2002 11.0059 10.2002 12C10.2002 12.9941 11.0061 13.8 12.0002 13.8Z"
          fill="#B22519"/>
    <path d="M21.984 8.844H20.676C20.508 8.844 20.388 8.712 20.316 8.532C20.2731 8.46589 20.2503 8.38879 20.2503 8.31C20.2503 8.23121 20.2731 8.15411 20.316 8.088L21.288 7.2C21.4785 7.01676 21.6299 6.79681 21.733 6.55344C21.8361 6.31007 21.8889 6.04832 21.888 5.784C21.8877 5.51807 21.8346 5.25486 21.7315 5.00969C21.6285 4.76452 21.4778 4.54231 21.288 4.356L19.68 2.712C19.4937 2.52442 19.2722 2.37555 19.0281 2.27396C18.7841 2.17237 18.5224 2.12007 18.258 2.12007C17.9937 2.12007 17.7319 2.17237 17.4879 2.27396C17.2438 2.37555 17.0223 2.52442 16.836 2.712L15.912 3.6C15.8386 3.64704 15.7532 3.67205 15.666 3.67205C15.5788 3.67205 15.4934 3.64704 15.42 3.6C15.3475 3.57298 15.2842 3.52592 15.2375 3.46431C15.1908 3.40269 15.1625 3.32906 15.156 3.252V2.016C15.1562 1.49156 14.9521 0.987669 14.5869 0.611274C14.2217 0.234879 13.7242 0.0156083 13.2 3.11214e-10H10.872C10.3362 -9.37946e-06 9.82219 0.212006 9.44221 0.589739C9.06223 0.967471 8.84717 1.48022 8.844 2.016V3.324C8.844 3.492 8.712 3.612 8.532 3.684C8.46589 3.72687 8.38879 3.74968 8.31 3.74968C8.23121 3.74968 8.15411 3.72687 8.088 3.684L7.2 2.712C6.81994 2.3342 6.30784 2.11904 5.772 2.112C5.50789 2.11252 5.24655 2.16586 5.00337 2.26891C4.76019 2.37195 4.54008 2.5226 4.356 2.712L2.712 4.32C2.51894 4.50686 2.36542 4.73063 2.26058 4.97801C2.15573 5.22539 2.10171 5.49132 2.10171 5.76C2.10171 6.02868 2.15573 6.29462 2.26058 6.54199C2.36542 6.78937 2.51894 7.01314 2.712 7.2L3.6 8.088C3.64704 8.16142 3.67205 8.2468 3.67205 8.334C3.67205 8.4212 3.64704 8.50658 3.6 8.58C3.57298 8.65246 3.52592 8.71575 3.46431 8.76249C3.40269 8.80923 3.32906 8.8375 3.252 8.844H2.016C1.48132 8.844 0.968546 9.0564 0.590473 9.43447C0.212399 9.81255 3.11215e-10 10.3253 3.11214e-10 10.86V13.128C-9.37946e-06 13.6638 0.212006 14.1778 0.589739 14.5578C0.967471 14.9378 1.48022 15.1528 2.016 15.156H3.324C3.492 15.156 3.612 15.288 3.684 15.468C3.72687 15.5341 3.74968 15.6112 3.74968 15.69C3.74968 15.7688 3.72687 15.8459 3.684 15.912L2.712 16.8C2.3342 17.1801 2.11904 17.6922 2.112 18.228C2.11159 18.494 2.16447 18.7574 2.26752 19.0027C2.37057 19.248 2.5217 19.4701 2.712 19.656L4.32 21.288C4.50627 21.4756 4.72781 21.6245 4.97186 21.726C5.21591 21.8276 5.47765 21.8799 5.742 21.8799C6.00635 21.8799 6.26809 21.8276 6.51214 21.726C6.75619 21.6245 6.97773 21.4756 7.164 21.288L8.088 20.4C8.16142 20.353 8.2468 20.328 8.334 20.328C8.4212 20.328 8.50658 20.353 8.58 20.4C8.65246 20.427 8.71575 20.4741 8.76249 20.5357C8.80923 20.5973 8.8375 20.6709 8.844 20.748V22.056C8.86266 22.5781 9.08327 23.0726 9.45934 23.4352C9.83541 23.7978 10.3376 24.0003 10.86 24H13.128C13.6638 24 14.1778 23.788 14.5578 23.4103C14.9378 23.0325 15.1528 22.5198 15.156 21.984V20.676C15.156 20.508 15.288 20.388 15.468 20.316C15.5341 20.2731 15.6112 20.2503 15.69 20.2503C15.7688 20.2503 15.8459 20.2731 15.912 20.316L16.824 21.24C17.2041 21.6178 17.7162 21.833 18.252 21.84C18.5161 21.8395 18.7775 21.7861 19.0206 21.6831C19.2638 21.5801 19.4839 21.4294 19.668 21.24L21.276 19.632C21.4636 19.4457 21.6124 19.2242 21.714 18.9801C21.8156 18.7361 21.8679 18.4743 21.8679 18.21C21.8679 17.9456 21.8156 17.6839 21.714 17.4399C21.6124 17.1958 21.4636 16.9743 21.276 16.788L20.4 15.912C20.3571 15.8459 20.3343 15.7688 20.3343 15.69C20.3343 15.6112 20.3571 15.5341 20.4 15.468C20.427 15.3955 20.4741 15.3322 20.5357 15.2855C20.5973 15.2388 20.6709 15.2105 20.748 15.204H22.056C22.576 15.1854 23.0687 14.9665 23.4311 14.593C23.7934 14.2195 23.9972 13.7204 24 13.2V10.872C24 10.3362 23.788 9.82219 23.4103 9.44221C23.0325 9.06223 22.5198 8.84717 21.984 8.844ZM12 16.2C11.1693 16.2 10.3573 15.9537 9.6666 15.4922C8.97592 15.0307 8.43759 14.3747 8.11971 13.6073C7.80182 12.8398 7.71864 11.9953 7.8807 11.1806C8.04276 10.3659 8.44277 9.61753 9.03015 9.03015C9.61753 8.44277 10.3659 8.04276 11.1806 7.8807C11.9953 7.71864 12.8398 7.80182 13.6073 8.11971C14.3747 8.43759 15.0307 8.97592 15.4922 9.6666C15.9537 10.3573 16.2 11.1693 16.2 12C16.2 13.1139 15.7575 14.1822 14.9698 14.9698C14.1822 15.7575 13.1139 16.2 12 16.2Z"
          fill="#B22519"/>
</svg>
